<?xml version="1.0" standalone="no"?>
<!DOCTYPE svg PUBLIC "-//W3C//DTD SVG 20010904//EN"
 "http://www.w3.org/TR/2001/REC-SVG-20010904/DTD/svg10.dtd">
<svg version="1.0" xmlns="http://www.w3.org/2000/svg"
 width="500.000000pt" height="500.000000pt" viewBox="0 0 500.000000 500.000000"
 preserveAspectRatio="xMidYMid meet">
<metadata>
Created by potrace 1.14, written by Peter Selinger 2001-2017
</metadata>
<g transform="translate(0.000000,500.000000) scale(0.100000,-0.100000)"
fill="#000000" stroke="none">
<path d="M0 2500 l0 -2500 2500 0 2500 0 0 2500 0 2500 -2500 0 -2500 0 0
-2500z m1350 2110 c24 -24 25 -38 4 -68 -9 -13 -26 -22 -42 -22 -38 0 -342
-302 -342 -340 0 -33 -17 -50 -50 -50 -33 0 -50 17 -50 51 0 35 26 61 56 57
35 -4 334 294 334 334 0 53 52 76 90 38z m2374 4 c9 -8 16 -28 16 -42 0 -22
32 -59 158 -185 87 -87 161 -155 165 -151 12 13 54 -6 64 -29 16 -34 -4 -71
-40 -75 -36 -4 -57 13 -57 47 0 38 -303 341 -342 341 -27 0 -58 31 -58 57 0
20 38 53 59 53 11 0 27 -7 35 -16z m-1985 -80 c29 -37 9 -84 -38 -84 -39 0
-341 -303 -341 -342 0 -56 -76 -72 -99 -21 -16 35 8 73 47 73 37 0 342 302
342 339 0 29 26 61 51 61 10 0 27 -12 38 -26z m1593 9 c10 -9 18 -28 18 -42 0
-39 303 -341 342 -341 34 0 63 -39 53 -70 -17 -54 -105 -39 -105 18 0 38 -302
342 -340 342 -33 0 -50 17 -50 49 0 28 26 61 48 61 9 0 24 -7 34 -17z m-310
-293 l522 -240 138 0 138 0 0 106 c0 91 -3 109 -20 131 -24 31 -25 56 -4 77
18 19 65 21 82 4 17 -17 15 -77 -3 -84 -12 -5 -15 -28 -15 -120 l0 -114 104 0
c103 0 105 1 134 30 38 37 80 39 118 6 39 -33 39 -89 0 -122 -38 -33 -80 -31
-118 6 l-30 30 -254 0 c-238 0 -255 -1 -250 -17 3 -10 8 -40 11 -68 3 -27 8
-60 11 -72 l4 -23 247 0 246 0 23 25 c31 33 86 35 108 3 24 -34 20 -73 -10
-97 -35 -28 -59 -26 -90 4 l-25 25 -247 0 -248 0 7 -57 c4 -32 8 -66 8 -75 1
-17 22 -18 300 -18 l299 0 58 73 c31 39 61 77 66 84 6 7 3 21 -8 38 -21 32 -8
69 31 87 22 10 30 8 53 -9 35 -26 40 -66 11 -90 -12 -10 -65 -62 -118 -116
l-96 -97 -297 0 -297 0 6 -57 c2 -32 6 -64 9 -70 2 -10 72 -13 303 -13 l301 0
15 24 c39 60 122 54 153 -11 14 -30 14 -36 0 -66 -21 -45 -66 -64 -108 -47
-17 7 -35 21 -41 31 -9 18 -27 19 -314 19 l-305 0 0 -49 c0 -26 3 -76 6 -110
l7 -61 165 0 c157 0 167 1 189 22 19 18 28 20 51 12 21 -7 28 -17 30 -44 6
-55 -50 -81 -85 -40 -16 19 -30 20 -185 20 l-168 0 0 -220 0 -220 170 0 170 0
0 108 c0 96 -2 111 -20 127 -52 47 7 118 71 85 23 -13 26 -72 4 -90 -12 -10
-15 -37 -15 -121 l0 -109 110 0 c96 0 110 2 119 19 6 10 24 24 41 31 27 11 37
11 64 -3 67 -31 69 -119 5 -153 -37 -19 -71 -10 -107 27 l-29 29 -294 -2 -294
-3 -3 -67 -3 -68 289 0 290 0 83 -91 c45 -49 95 -97 110 -105 61 -31 41 -114
-26 -114 -26 0 -39 6 -51 26 -16 23 -16 28 -1 59 l16 33 -66 81 -65 81 -288 0
c-318 0 -300 4 -300 -65 0 -27 -28 -147 -56 -242 l-6 -23 211 0 211 0 0 73 c0
40 -5 78 -11 84 -15 15 -7 54 14 67 36 23 76 -36 42 -64 -11 -9 -15 -32 -15
-86 l0 -74 49 0 49 0 83 -94 c46 -51 93 -96 105 -100 30 -8 47 -51 33 -79 -15
-28 -28 -37 -58 -37 -51 0 -80 62 -46 100 13 14 7 24 -52 98 l-66 82 -129 0
-128 0 0 -64 c0 -42 6 -75 17 -94 15 -26 15 -32 3 -46 -20 -25 -64 -17 -68 13
-2 13 1 28 7 34 6 6 11 44 11 84 l0 73 -137 0 -138 -1 -37 -79 c-21 -43 -67
-122 -102 -174 l-64 -96 184 0 184 0 0 72 c0 51 -4 76 -16 89 -31 34 16 88 51
59 17 -14 20 -56 5 -65 -5 -3 -10 -40 -10 -81 l0 -74 48 0 c47 0 47 0 131 -95
46 -52 90 -95 97 -95 17 0 44 -39 44 -64 0 -28 -29 -56 -59 -56 -32 0 -44 8
-60 38 -10 18 -9 28 5 51 l17 29 -67 81 -68 81 -129 0 -129 0 0 -69 c0 -50 4
-72 16 -81 8 -8 14 -25 12 -39 -2 -20 -9 -27 -29 -29 -14 -2 -31 4 -38 12 -13
16 -6 56 10 56 5 0 9 34 9 75 l0 75 -117 0 -118 0 -50 -61 c-27 -34 -102 -110
-165 -170 l-115 -109 287 0 287 0 59 72 c76 95 75 92 55 126 -16 28 -16 31 0
56 13 19 26 26 49 26 61 0 91 -61 47 -98 -12 -9 -65 -61 -118 -115 l-96 -97
-308 0 -307 0 -70 -53 -69 -52 238 -3 239 -2 31 31 c27 26 37 30 64 25 69 -13
102 -100 55 -143 -13 -11 -33 -24 -45 -27 -27 -8 -78 16 -93 45 -10 17 -19 20
-63 17 l-52 -3 -3 -238 -2 -239 25 -30 c30 -36 31 -48 4 -82 -25 -31 -61 -34
-89 -6 -27 27 -25 66 5 94 l25 24 -2 238 -3 239 -195 3 c-107 1 -205 0 -217
-3 -23 -5 -23 -8 -23 -150 l0 -145 118 0 c105 0 119 2 135 20 20 24 69 26 91
4 24 -24 20 -80 -6 -98 -31 -22 -52 -20 -86 9 -28 23 -37 25 -141 25 l-111 0
0 -129 0 -129 77 -61 c53 -43 81 -60 92 -55 9 4 32 8 50 8 28 1 38 -4 50 -26
14 -25 14 -31 1 -55 -13 -23 -23 -28 -55 -28 -33 0 -42 5 -52 26 -7 14 -55 65
-108 113 l-95 88 0 274 0 275 -42 -26 c-24 -14 -62 -36 -84 -47 l-42 -21 -76
46 -76 47 0 -273 c0 -149 -4 -277 -8 -282 -4 -6 -46 -46 -95 -89 -48 -43 -93
-90 -100 -105 -10 -22 -19 -26 -52 -26 -32 0 -42 5 -55 27 -13 25 -13 31 1 55
12 23 22 28 50 27 18 0 41 -4 50 -8 11 -5 39 12 92 55 l77 61 0 129 0 129
-111 0 c-104 0 -113 -2 -141 -25 -34 -29 -55 -31 -86 -9 -26 18 -30 74 -6 98
22 22 71 20 91 -4 16 -18 30 -20 135 -20 l118 0 0 144 c0 122 -2 145 -16 150
-9 3 -105 6 -215 6 l-199 0 0 -245 c0 -232 1 -246 20 -265 26 -26 26 -64 0
-90 -28 -28 -64 -25 -89 6 -27 34 -26 46 4 82 l25 30 -2 239 -3 238 -52 3
c-44 3 -53 0 -63 -17 -15 -29 -66 -53 -93 -45 -95 28 -87 150 11 170 26 5 36
1 62 -25 l32 -31 240 0 240 0 -73 55 -72 55 -306 0 -306 0 -96 97 c-53 54
-106 106 -118 115 -46 38 -12 102 50 96 46 -4 69 -47 44 -84 -19 -29 -19 -27
58 -121 l60 -73 285 0 286 0 -119 114 c-66 63 -140 139 -165 169 l-45 56 -117
1 -118 0 0 -75 c0 -41 4 -75 9 -75 13 0 22 -30 15 -52 -4 -15 -13 -18 -37 -16
-26 2 -33 8 -35 29 -2 14 4 31 12 39 12 9 16 31 16 81 l0 69 -129 0 -130 0
-59 -72 c-76 -95 -75 -93 -57 -122 14 -20 14 -29 4 -48 -15 -29 -28 -38 -58
-38 -31 0 -61 27 -61 54 0 27 27 66 45 66 7 0 51 43 97 95 83 95 83 95 131 95
l47 0 0 74 c0 41 -4 78 -10 81 -15 9 -12 51 5 65 35 29 82 -25 51 -59 -12 -13
-16 -38 -16 -89 l0 -72 180 0 c99 0 180 2 180 4 0 3 -31 53 -69 111 -38 59
-82 136 -98 171 l-27 64 -138 0 -138 0 0 -73 c0 -40 5 -78 11 -84 6 -6 9 -21
7 -34 -4 -29 -48 -38 -67 -15 -13 16 -6 56 10 56 5 0 9 34 9 75 l0 75 -128 0
-128 0 -67 -82 c-59 -73 -64 -84 -52 -99 34 -36 5 -99 -44 -99 -32 0 -44 8
-60 37 -14 28 3 71 33 79 12 4 59 49 105 100 l83 94 49 0 49 0 0 72 c0 52 -4
76 -17 90 -33 37 20 91 55 56 15 -15 16 -54 2 -63 -6 -3 -10 -40 -10 -81 l0
-74 211 0 211 0 -6 23 c-28 95 -56 215 -56 242 0 69 18 65 -300 65 l-288 0
-65 -81 -66 -81 16 -33 c15 -31 15 -36 -1 -59 -12 -20 -25 -26 -51 -26 -67 0
-87 83 -26 114 15 8 65 56 110 105 l83 91 290 0 291 0 -7 38 c-3 20 -6 52 -6
70 l0 32 -293 0 -292 0 -27 -29 c-35 -37 -70 -46 -107 -27 -62 32 -63 114 -3
149 39 23 74 17 106 -18 22 -24 30 -25 130 -25 l106 0 0 109 c0 84 -3 111 -15
121 -22 18 -19 77 4 90 28 14 52 12 73 -7 24 -21 23 -55 -2 -78 -18 -16 -20
-31 -20 -127 l0 -108 168 0 168 0 -1 220 0 220 -165 0 c-153 0 -167 -1 -183
-20 -35 -41 -91 -15 -85 40 2 27 9 37 30 44 23 8 32 6 51 -12 22 -21 32 -22
190 -22 l167 0 0 49 c0 26 3 76 6 110 l7 61 -306 0 c-289 0 -307 -1 -316 -19
-17 -31 -66 -46 -102 -31 -68 29 -74 116 -11 153 41 24 76 16 111 -24 l25 -29
298 0 298 0 4 23 c3 12 7 43 8 70 l3 47 -295 0 -295 0 -96 97 c-53 54 -106
106 -118 116 -29 24 -24 64 11 90 23 17 31 19 53 9 39 -18 52 -55 31 -87 -11
-17 -14 -31 -8 -38 5 -7 35 -45 66 -84 l58 -73 298 0 297 0 7 46 c3 26 6 60 6
75 l0 29 -245 0 -244 0 -25 -25 c-31 -30 -55 -32 -90 -4 -17 14 -26 30 -26 50
0 64 79 93 124 44 l23 -25 246 0 245 0 5 23 c4 12 9 52 13 90 l7 67 -251 0
-250 0 -30 -30 c-38 -37 -80 -39 -118 -6 -39 33 -39 89 0 122 38 33 80 31 118
-6 29 -29 31 -30 134 -30 l104 0 0 111 c0 85 -3 114 -15 125 -19 19 -19 68 -1
83 8 7 30 11 48 9 47 -4 61 -46 30 -88 -19 -26 -22 -42 -22 -135 l0 -105 138
0 138 0 520 239 c285 132 520 240 521 240 2 1 238 -107 525 -239z m-2879 -650
c23 -19 40 -20 242 -20 202 0 219 1 242 20 14 11 32 20 39 20 20 0 54 -37 54
-59 0 -48 -77 -71 -102 -31 -12 19 -24 20 -229 20 -203 0 -217 -1 -234 -20
-26 -28 -71 -26 -91 5 -19 29 -11 63 19 75 31 12 31 12 60 -10z m4230 0 c23
-19 40 -20 241 -20 203 0 219 1 245 20 52 39 112 -12 77 -65 -20 -31 -65 -33
-91 -5 -17 19 -31 20 -234 20 -205 0 -217 -1 -229 -20 -25 -40 -102 -17 -102
31 0 22 34 59 54 59 7 0 25 -9 39 -20z m-3948 -300 c17 -19 31 -20 239 -20
209 0 223 1 239 20 9 11 26 20 37 20 22 0 60 -33 60 -53 0 -50 -77 -78 -102
-37 -12 19 -24 20 -233 20 -208 0 -222 -1 -238 -20 -9 -11 -27 -20 -39 -20
-27 0 -58 27 -58 52 0 23 35 58 58 58 11 0 27 -9 37 -20z m3672 0 c16 -19 30
-20 237 -20 212 0 221 1 243 22 19 18 28 20 50 12 16 -5 32 -21 37 -36 19 -54
-54 -92 -91 -48 -16 19 -30 20 -234 20 -203 0 -217 -1 -234 -20 -34 -38 -105
-13 -105 37 0 20 38 53 60 53 11 0 28 -9 37 -20z m-3477 -220 c19 -19 33 -20
240 -20 207 0 221 1 240 20 11 11 28 20 37 20 24 0 53 -30 53 -56 0 -50 -61
-72 -95 -34 -17 19 -31 20 -235 20 -204 0 -218 -1 -235 -20 -34 -38 -95 -19
-95 30 0 55 52 78 90 40z m3285 0 c17 -19 31 -20 237 -20 205 0 219 1 238 20
38 38 90 15 90 -40 0 -48 -68 -70 -92 -30 -12 19 -24 20 -234 20 -208 0 -222
-1 -239 -20 -34 -37 -95 -16 -95 32 0 51 61 75 95 38z m-3412 -1310 c23 -19
40 -20 246 -20 144 0 221 4 221 10 0 6 11 15 25 22 52 23 100 -46 59 -86 -21
-22 -57 -20 -79 4 -17 19 -31 20 -234 20 -204 0 -218 -1 -234 -20 -9 -11 -28
-20 -41 -20 -25 0 -56 32 -56 57 0 17 36 53 54 53 7 0 25 -9 39 -20z m3537 0
c19 -19 33 -20 235 -20 206 0 217 1 245 22 25 18 34 20 54 10 34 -15 44 -57
21 -82 -23 -26 -61 -25 -82 0 -16 19 -30 20 -233 20 -203 0 -217 -1 -233 -20
-31 -37 -97 -16 -97 31 0 23 34 59 55 59 8 0 24 -9 35 -20z m-3180 -490 c19
-19 33 -20 245 -20 147 0 225 4 225 10 0 6 12 15 26 21 20 7 32 6 50 -6 26
-17 33 -62 12 -83 -19 -19 -63 -14 -83 8 -17 19 -31 20 -234 20 -204 0 -218
-1 -234 -20 -19 -22 -66 -27 -85 -8 -20 20 -14 65 10 82 30 21 44 20 68 -4z
m2826 -6 c9 -11 56 -14 238 -14 147 0 226 4 226 10 0 6 11 15 25 22 50 23 102
-51 63 -90 -19 -19 -66 -14 -85 8 -16 19 -30 20 -234 20 -203 0 -217 -1 -234
-20 -20 -22 -64 -27 -83 -8 -7 7 -12 24 -12 39 0 51 65 73 96 33z m-2358 -146
c7 -7 12 -21 12 -33 0 -28 226 -252 259 -257 56 -7 52 -73 -5 -73 -24 0 -30 5
-32 26 -4 34 -237 266 -272 271 -32 4 -41 46 -14 65 22 16 37 16 52 1z m2422
-2 c19 -24 8 -61 -20 -64 -35 -5 -268 -237 -272 -271 -2 -21 -8 -26 -32 -26
-57 0 -61 66 -5 73 33 5 259 229 259 257 0 41 45 60 70 31z"/>
<path d="M1290 4602 c-40 -32 -4 -85 41 -62 25 14 25 56 0 70 -15 7 -24 5 -41
-8z"/>
<path d="M890 4205 c-26 -32 13 -81 48 -59 34 22 22 74 -18 74 -10 0 -23 -7
-30 -15z"/>
<path d="M3666 4608 c-9 -5 -16 -20 -16 -33 0 -42 60 -57 74 -18 15 38 -22 71
-58 51z"/>
<path d="M4050 4205 c-26 -32 13 -81 48 -59 34 22 22 74 -18 74 -10 0 -23 -7
-30 -15z"/>
<path d="M1670 4525 c-26 -32 13 -81 48 -59 34 22 22 74 -18 74 -10 0 -23 -7
-30 -15z"/>
<path d="M1280 4135 c-26 -32 13 -81 48 -59 34 22 22 74 -18 74 -10 0 -23 -7
-30 -15z"/>
<path d="M3270 4525 c-26 -32 13 -81 48 -59 34 22 22 74 -18 74 -10 0 -23 -7
-30 -15z"/>
<path d="M3660 4135 c-26 -32 13 -81 48 -59 34 22 22 74 -18 74 -10 0 -23 -7
-30 -15z"/>
<path d="M1136 4314 c-31 -30 -8 -69 36 -62 26 3 37 41 18 64 -16 18 -35 18
-54 -2z"/>
<path d="M3815 4317 c-26 -20 -13 -67 18 -67 43 0 60 35 31 64 -19 19 -25 20
-49 3z"/>
<path d="M2018 4102 c-410 -191 -468 -220 -473 -242 -12 -55 -36 -233 -52
-395 -22 -216 -25 -889 -5 -1028 54 -369 273 -691 680 -999 104 -79 286 -196
318 -204 23 -6 94 32 236 128 265 177 515 429 641 645 105 180 142 320 158
587 12 204 7 608 -11 811 -12 135 -47 425 -56 458 -4 18 -100 66 -477 240
-260 119 -476 217 -482 216 -5 0 -220 -98 -477 -217z m632 -781 c230 -87 338
-353 235 -578 -28 -61 -111 -154 -167 -185 l-38 -22 0 -168 0 -168 -180 0
-180 0 0 168 0 167 -35 19 c-56 31 -133 114 -165 180 -120 244 7 527 271 601
71 20 187 13 259 -14z"/>
<path d="M810 4037 c-20 -10 -25 -20 -25 -52 0 -32 5 -42 28 -55 24 -13 30
-13 55 0 70 40 14 143 -58 107z"/>
<path d="M4130 4037 c-20 -10 -25 -20 -25 -52 0 -32 5 -42 28 -55 24 -13 30
-13 55 0 20 12 28 24 30 51 4 52 -40 80 -88 56z"/>
<path d="M591 3832 c-16 -29 20 -72 46 -56 11 7 18 23 18 40 0 24 -5 30 -27
32 -18 2 -30 -3 -37 -16z"/>
<path d="M4344 3836 c-9 -23 -1 -48 19 -60 26 -16 62 27 47 55 -13 22 -58 26
-66 5z"/>
<path d="M812 3804 c-43 -30 -21 -94 32 -94 22 0 46 28 46 55 0 20 -32 55 -50
55 -3 0 -16 -7 -28 -16z"/>
<path d="M4132 3804 c-37 -26 -20 -94 24 -94 53 0 75 64 32 94 -12 9 -25 16
-28 16 -3 0 -16 -7 -28 -16z"/>
<path d="M637 3442 c-21 -23 -22 -66 -1 -86 36 -37 104 -7 104 46 0 51 -69 78
-103 40z"/>
<path d="M4277 3442 c-22 -24 -21 -65 1 -85 40 -36 102 -9 102 45 0 51 -69 78
-103 40z"/>
<path d="M934 3143 c-12 -47 57 -68 71 -21 9 25 -11 48 -41 48 -17 0 -25 -7
-30 -27z"/>
<path d="M4002 3158 c-18 -18 -15 -35 10 -52 30 -21 60 -4 56 32 -2 20 -9 28
-28 30 -14 2 -31 -3 -38 -10z"/>
<path d="M972 2978 c-17 -17 -15 -32 7 -52 16 -14 23 -15 41 -6 31 17 24 64
-10 68 -14 2 -31 -3 -38 -10z"/>
<path d="M3967 2984 c-15 -15 -6 -54 14 -65 18 -9 25 -7 43 10 16 17 18 25 10
39 -11 18 -55 28 -67 16z"/>
<path d="M630 2691 c-26 -50 -1 -101 49 -101 52 0 82 68 45 104 -22 23 -81 21
-94 -3z"/>
<path d="M4276 2694 c-37 -36 -7 -104 46 -104 47 0 73 54 48 101 -13 24 -72
26 -94 3z"/>
<path d="M980 2334 c-11 -12 -10 -18 3 -31 8 -9 23 -13 31 -10 21 8 21 43 0
51 -21 8 -20 8 -34 -10z"/>
<path d="M3983 2343 c-18 -7 -16 -42 3 -50 8 -3 23 1 31 10 13 13 14 19 3 31
-13 17 -17 18 -37 9z"/>
<path d="M596 2258 c-21 -30 -4 -60 32 -56 30 3 42 39 22 64 -17 20 -36 17
-54 -8z"/>
<path d="M4350 2266 c-20 -25 -8 -61 22 -64 36 -4 53 26 32 56 -18 25 -37 28
-54 8z"/>
<path d="M1260 1955 c-7 -8 -10 -22 -6 -30 7 -20 42 -19 50 1 8 22 8 22 -13
33 -14 8 -22 7 -31 -4z"/>
<path d="M3707 1955 c-20 -19 -12 -45 14 -45 26 0 36 28 17 46 -13 14 -17 14
-31 -1z"/>
<path d="M1145 1933 c-15 -14 -15 -18 -1 -31 18 -19 46 -9 46 17 0 26 -26 34
-45 14z"/>
<path d="M3823 1943 c-18 -6 -16 -42 2 -49 8 -4 22 -1 30 6 24 20 -1 54 -32
43z"/>
<path d="M702 1908 c-25 -25 -6 -68 30 -68 9 0 22 9 28 20 22 40 -26 80 -58
48z"/>
<path d="M4240 1901 c-25 -47 36 -83 64 -38 8 12 8 22 0 35 -16 25 -51 27 -64
3z"/>
<path d="M1240 1619 c-9 -16 -8 -25 6 -40 9 -10 23 -19 29 -19 22 0 38 29 31
55 -8 32 -50 35 -66 4z"/>
<path d="M3694 1615 c-7 -26 9 -55 31 -55 6 0 20 9 29 19 14 15 15 24 6 40
-16 31 -58 28 -66 -4z"/>
<path d="M1414 1545 c-8 -19 3 -35 26 -35 19 0 34 25 24 41 -8 14 -44 10 -50
-6z"/>
<path d="M3536 1551 c-11 -18 6 -42 28 -39 29 4 29 42 -1 46 -11 2 -24 -1 -27
-7z"/>
<path d="M976 1521 c-23 -25 -6 -64 26 -59 29 4 46 33 32 56 -16 24 -37 26
-58 3z"/>
<path d="M3972 1528 c-25 -25 -6 -68 30 -68 9 0 22 9 28 21 9 16 8 25 -6 40
-20 22 -35 24 -52 7z"/>
<path d="M1586 1248 c-9 -12 -16 -29 -16 -38 0 -9 7 -26 16 -38 23 -34 83 -27
104 11 13 24 13 30 0 55 -21 37 -81 44 -104 10z"/>
<path d="M3316 1248 c-9 -12 -16 -29 -16 -38 0 -9 7 -26 16 -38 23 -34 83 -27
104 11 13 24 13 30 0 55 -21 37 -81 44 -104 10z"/>
<path d="M1974 902 c-32 -22 -13 -82 26 -82 29 0 54 43 40 69 -11 21 -45 28
-66 13z"/>
<path d="M2961 888 c-19 -50 43 -90 72 -47 25 34 4 69 -41 69 -14 0 -26 -8
-31 -22z"/>
<path d="M1812 668 c-16 -16 -15 -53 2 -68 21 -16 56 -9 72 15 27 41 -39 88
-74 53z"/>
<path d="M3122 668 c-28 -28 -7 -78 33 -78 27 0 45 18 45 45 0 27 -18 45 -45
45 -12 0 -26 -5 -33 -12z"/>
<path d="M2050 451 c-25 -47 36 -83 64 -38 8 12 8 22 0 35 -16 25 -51 27 -64
3z"/>
<path d="M2892 458 c-25 -25 -6 -68 30 -68 9 0 22 9 28 20 22 40 -26 80 -58
48z"/>
<path d="M80 3585 c-26 -32 13 -81 48 -59 34 22 22 74 -18 74 -10 0 -23 -7
-30 -15z"/>
<path d="M630 3581 c-21 -40 20 -77 58 -52 8 5 12 21 10 37 -2 23 -9 30 -30
32 -19 2 -30 -3 -38 -17z"/>
<path d="M4307 3593 c-11 -11 -8 -48 5 -61 32 -32 87 18 58 53 -13 15 -51 20
-63 8z"/>
<path d="M4860 3585 c-26 -32 13 -81 48 -59 34 22 22 74 -18 74 -10 0 -23 -7
-30 -15z"/>
<path d="M357 3293 c-12 -12 -7 -50 8 -63 32 -27 82 23 55 55 -13 15 -51 20
-63 8z"/>
<path d="M912 3288 c-33 -33 17 -88 53 -58 25 21 15 64 -15 68 -14 2 -31 -3
-38 -10z"/>
<path d="M4027 3293 c-12 -12 -7 -50 8 -63 35 -29 85 26 53 58 -13 13 -50 16
-61 5z"/>
<path d="M4581 3286 c-16 -20 -5 -53 20 -61 27 -9 51 13 47 44 -2 20 -9 27
-29 29 -14 2 -31 -4 -38 -12z"/>
<path d="M1110 3070 c-19 -19 -20 -24 -7 -43 19 -28 40 -32 61 -11 21 21 17
42 -11 61 -19 13 -24 12 -43 -7z"/>
<path d="M551 3066 c-7 -8 -10 -24 -6 -35 14 -45 79 -30 73 17 -2 21 -9 28
-29 30 -14 2 -31 -4 -38 -12z"/>
<path d="M3838 3070 c-25 -20 -19 -43 16 -64 14 -9 21 -6 36 12 35 43 -10 87
-52 52z"/>
<path d="M4387 3073 c-14 -14 -6 -53 13 -63 38 -20 70 12 54 54 -6 16 -54 22
-67 9z"/>
<path d="M427 1763 c-12 -12 -7 -50 8 -63 32 -27 82 23 55 55 -13 15 -51 20
-63 8z"/>
<path d="M971 1752 c-12 -22 11 -62 34 -62 8 0 21 10 29 22 20 28 4 58 -29 58
-13 0 -29 -8 -34 -18z"/>
<path d="M3961 1752 c-12 -22 11 -62 34 -62 8 0 21 10 29 22 20 28 4 58 -29
58 -13 0 -29 -8 -34 -18z"/>
<path d="M4511 1756 c-28 -33 22 -83 55 -55 8 7 14 24 12 38 -2 20 -9 27 -29
29 -14 2 -31 -4 -38 -12z"/>
<path d="M780 1261 c-21 -40 20 -77 58 -52 8 5 12 21 10 37 -2 23 -9 30 -30
32 -19 2 -30 -3 -38 -17z"/>
<path d="M1334 1266 c-15 -40 21 -80 54 -60 37 24 21 74 -25 74 -13 0 -26 -6
-29 -14z"/>
<path d="M3601 1266 c-16 -19 -11 -46 12 -60 25 -16 52 4 52 40 0 24 -5 30
-26 32 -14 2 -31 -4 -38 -12z"/>
<path d="M4157 1273 c-11 -11 -8 -48 5 -61 32 -32 87 18 58 53 -13 15 -51 20
-63 8z"/>
<path d="M1270 1115 c-18 -21 -5 -47 22 -43 26 3 37 36 16 49 -18 12 -24 11
-38 -6z"/>
<path d="M1564 815 c-8 -21 2 -45 19 -45 21 0 38 25 31 44 -8 20 -43 21 -50 1z"/>
<path d="M3690 1115 c-17 -20 -5 -45 20 -45 11 0 23 7 26 15 6 15 -11 45 -26
45 -4 0 -13 -7 -20 -15z"/>
<path d="M3390 815 c-11 -13 -11 -19 3 -32 21 -21 49 -9 45 19 -4 28 -30 35
-48 13z"/>
</g>
</svg>
