<svg xmlns="http://www.w3.org/2000/svg" xmlns:xlink="http://www.w3.org/1999/xlink" width="500" zoomAndPan="magnify" viewBox="0 0 375 374.999991" height="500" preserveAspectRatio="xMidYMid meet" version="1.0"><defs><clipPath id="id1"><path d="M 155 287 L 177 287 L 177 347.132812 L 155 347.132812 Z M 155 287 " clip-rule="nonzero"/></clipPath><clipPath id="id2"><path d="M 198 287 L 221 287 L 221 347.132812 L 198 347.132812 Z M 198 287 " clip-rule="nonzero"/></clipPath><clipPath id="id3"><path d="M 308 126 L 354.511719 126 L 354.511719 134 L 308 134 Z M 308 126 " clip-rule="nonzero"/></clipPath></defs><path fill="#000000" d="M 187.5 0 C 83.945312 0 0 83.945312 0 187.5 C 0 291.054688 83.945312 375 187.5 375 C 291.054688 375 375 291.054688 375 187.5 C 375 83.945312 291.054688 0 187.5 0 " fill-opacity="1" fill-rule="nonzero"/><path fill="#52afe6" d="M 59.558594 140.894531 C 59.558594 138.496094 61.503906 136.550781 63.902344 136.550781 C 66.300781 136.550781 68.246094 138.496094 68.246094 140.894531 C 68.246094 143.292969 66.300781 145.234375 63.902344 145.234375 C 61.503906 145.234375 59.558594 143.292969 59.558594 140.894531 Z M 57.988281 140.894531 C 57.988281 144.15625 60.636719 146.804688 63.902344 146.804688 C 66.546875 146.804688 68.78125 145.070312 69.539062 142.679688 L 116.417969 142.679688 L 116.417969 139.105469 L 69.539062 139.105469 C 68.78125 136.714844 66.546875 134.980469 63.902344 134.980469 C 60.636719 134.980469 57.988281 137.628906 57.988281 140.894531 " fill-opacity="1" fill-rule="nonzero"/><path fill="#52afe6" d="M 71.136719 116.226562 C 71.136719 114.25 72.738281 112.648438 74.714844 112.648438 C 76.691406 112.648438 78.296875 114.25 78.296875 116.226562 C 78.296875 118.199219 76.691406 119.804688 74.714844 119.804688 C 72.738281 119.804688 71.136719 118.199219 71.136719 116.226562 Z M 69.839844 116.226562 C 69.839844 118.917969 72.023438 121.097656 74.714844 121.097656 C 76.890625 121.097656 78.738281 119.671875 79.363281 117.699219 L 118.015625 117.699219 L 118.015625 114.753906 L 79.363281 114.753906 C 78.738281 112.78125 76.890625 111.351562 74.714844 111.351562 C 72.023438 111.351562 69.839844 113.535156 69.839844 116.226562 " fill-opacity="1" fill-rule="nonzero"/><path fill="#52afe6" d="M 143.21875 332.03125 C 141.433594 332.03125 139.988281 330.582031 139.988281 328.796875 C 139.988281 327.011719 141.433594 325.5625 143.21875 325.5625 C 145.007812 325.5625 146.457031 327.011719 146.457031 328.796875 C 146.457031 330.582031 145.007812 332.03125 143.21875 332.03125 Z M 143.21875 333.199219 C 145.65625 333.199219 147.625 331.230469 147.625 328.796875 C 147.625 326.828125 146.332031 325.167969 144.554688 324.601562 L 144.554688 289.695312 L 141.890625 289.695312 L 141.890625 324.601562 C 140.105469 325.167969 138.816406 326.828125 138.816406 328.796875 C 138.816406 331.230469 140.789062 333.199219 143.21875 333.199219 " fill-opacity="1" fill-rule="nonzero"/><path fill="#52afe6" d="M 59.558594 191.851562 C 59.558594 189.453125 61.503906 187.511719 63.902344 187.511719 C 66.300781 187.511719 68.246094 189.453125 68.246094 191.851562 C 68.246094 194.246094 66.300781 196.191406 63.902344 196.191406 C 61.503906 196.191406 59.558594 194.246094 59.558594 191.851562 Z M 57.988281 191.851562 C 57.988281 195.117188 60.636719 197.761719 63.902344 197.761719 C 66.546875 197.761719 68.78125 196.03125 69.539062 193.640625 L 116.417969 193.640625 L 116.417969 190.0625 L 69.539062 190.0625 C 68.78125 187.671875 66.546875 185.941406 63.902344 185.941406 C 60.636719 185.941406 57.988281 188.585938 57.988281 191.851562 " fill-opacity="1" fill-rule="nonzero"/><path fill="#52afe6" d="M 83.121094 171.226562 C 83.121094 169.722656 84.339844 168.507812 85.839844 168.507812 C 87.339844 168.507812 88.558594 169.722656 88.558594 171.226562 C 88.558594 172.726562 87.339844 173.941406 85.839844 173.941406 C 84.339844 173.941406 83.121094 172.726562 83.121094 171.226562 Z M 81.890625 171.226562 C 81.890625 172.925781 82.96875 174.359375 84.476562 174.917969 L 84.476562 190.558594 L 87.203125 190.558594 L 87.203125 174.917969 C 88.710938 174.359375 89.792969 172.925781 89.792969 171.226562 C 89.792969 169.042969 88.023438 167.273438 85.839844 167.273438 C 83.660156 167.273438 81.890625 169.042969 81.890625 171.226562 " fill-opacity="1" fill-rule="nonzero"/><path fill="#52afe6" d="M 70.429688 101.1875 C 70.429688 98.789062 72.375 96.847656 74.773438 96.847656 C 77.171875 96.847656 79.117188 98.789062 79.117188 101.1875 C 79.117188 103.582031 77.171875 105.527344 74.773438 105.527344 C 72.375 105.527344 70.429688 103.582031 70.429688 101.1875 Z M 68.859375 101.1875 C 68.859375 104.453125 71.507812 107.097656 74.773438 107.097656 C 77.414062 107.097656 79.652344 105.363281 80.410156 102.972656 L 127.292969 102.972656 L 127.292969 99.398438 L 80.410156 99.398438 C 79.652344 97.007812 77.414062 95.277344 74.773438 95.277344 C 71.507812 95.277344 68.859375 97.921875 68.859375 101.1875 " fill-opacity="1" fill-rule="nonzero"/><path fill="#52afe6" d="M 93.996094 80.5625 C 93.996094 79.058594 95.210938 77.84375 96.710938 77.84375 C 98.214844 77.84375 99.433594 79.058594 99.433594 80.5625 C 99.433594 82.0625 98.214844 83.28125 96.710938 83.28125 C 95.210938 83.28125 93.996094 82.0625 93.996094 80.5625 Z M 92.757812 80.5625 C 92.757812 82.261719 93.839844 83.699219 95.347656 84.253906 L 95.347656 99.894531 L 98.074219 99.894531 L 98.074219 84.253906 C 99.582031 83.699219 100.660156 82.261719 100.660156 80.5625 C 100.660156 78.378906 98.890625 76.613281 96.710938 76.613281 C 94.527344 76.613281 92.757812 78.378906 92.757812 80.5625 " fill-opacity="1" fill-rule="nonzero"/><path fill="#52afe6" d="M 83.882812 214.394531 C 83.882812 213.316406 84.761719 212.441406 85.839844 212.441406 C 86.921875 212.441406 87.796875 213.316406 87.796875 214.394531 C 87.796875 215.476562 86.921875 216.347656 85.839844 216.347656 C 84.761719 216.347656 83.882812 215.476562 83.882812 214.394531 Z M 82.996094 214.394531 C 82.996094 215.617188 83.777344 216.648438 84.859375 217.050781 L 84.859375 228.296875 L 86.820312 228.296875 L 86.820312 217.050781 C 87.90625 216.648438 88.679688 215.617188 88.679688 214.394531 C 88.679688 212.828125 87.410156 211.554688 85.839844 211.554688 C 84.269531 211.554688 82.996094 212.828125 82.996094 214.394531 " fill-opacity="1" fill-rule="nonzero"/><path fill="#52afe6" d="M 98.722656 241.648438 C 98.722656 242.730469 97.84375 243.605469 96.765625 243.605469 C 95.683594 243.605469 94.808594 242.730469 94.808594 241.648438 C 94.808594 240.570312 95.683594 239.695312 96.765625 239.695312 C 97.84375 239.695312 98.722656 240.570312 98.722656 241.648438 Z M 99.609375 241.648438 C 99.609375 240.425781 98.832031 239.398438 97.75 238.992188 L 97.75 227.75 L 95.785156 227.75 L 95.785156 238.992188 C 94.703125 239.398438 93.925781 240.425781 93.925781 241.648438 C 93.925781 243.21875 95.199219 244.488281 96.765625 244.488281 C 98.335938 244.488281 99.609375 243.21875 99.609375 241.648438 " fill-opacity="1" fill-rule="nonzero"/><path fill="#52afe6" d="M 80.839844 158.921875 C 80.839844 157.421875 82.058594 156.207031 83.554688 156.207031 C 85.058594 156.207031 86.273438 157.421875 86.273438 158.921875 C 86.273438 160.425781 85.058594 161.640625 83.554688 161.640625 C 82.058594 161.640625 80.839844 160.425781 80.839844 158.921875 Z M 79.855469 158.921875 C 79.855469 160.964844 81.511719 162.621094 83.554688 162.621094 C 85.210938 162.621094 86.609375 161.539062 87.085938 160.042969 L 116.417969 160.042969 L 116.417969 157.804688 L 87.085938 157.804688 C 86.609375 156.308594 85.210938 155.226562 83.554688 155.226562 C 81.511719 155.226562 79.855469 156.882812 79.855469 158.921875 " fill-opacity="1" fill-rule="nonzero"/><path fill="#52afe6" d="M 57.410156 112.765625 C 57.410156 111.265625 58.625 110.054688 60.121094 110.054688 C 61.621094 110.054688 62.832031 111.265625 62.832031 112.765625 C 62.832031 114.261719 61.621094 115.472656 60.121094 115.472656 C 58.625 115.472656 57.410156 114.261719 57.410156 112.765625 Z M 55.808594 112.765625 C 55.808594 115.054688 57.59375 116.921875 59.855469 117.0625 L 71.457031 129.941406 L 115.867188 129.941406 L 115.867188 127.726562 L 71.457031 127.726562 L 62.328125 116.464844 C 63.589844 115.710938 64.433594 114.339844 64.433594 112.765625 C 64.433594 110.382812 62.503906 108.453125 60.121094 108.453125 C 57.738281 108.453125 55.808594 110.382812 55.808594 112.765625 " fill-opacity="1" fill-rule="nonzero"/><path fill="#52afe6" d="M 101.519531 263.078125 C 101.519531 261.582031 102.734375 260.371094 104.230469 260.371094 C 105.730469 260.371094 106.945312 261.582031 106.945312 263.078125 C 106.945312 264.574219 105.730469 265.789062 104.230469 265.789062 C 102.734375 265.789062 101.519531 264.574219 101.519531 263.078125 Z M 99.921875 263.078125 C 99.921875 265.367188 101.707031 267.234375 103.964844 267.375 L 115.566406 280.257812 L 159.980469 280.257812 L 159.980469 278.039062 L 115.566406 278.039062 L 106.4375 266.777344 C 107.699219 266.023438 108.546875 264.652344 108.546875 263.078125 C 108.546875 260.699219 106.617188 258.769531 104.230469 258.769531 C 101.851562 258.769531 99.921875 260.699219 99.921875 263.078125 " fill-opacity="1" fill-rule="nonzero"/><g clip-path="url(#id1)"><path fill="#52afe6" d="M 159.3125 345.515625 C 157.816406 345.515625 156.605469 344.300781 156.605469 342.808594 C 156.605469 341.308594 157.816406 340.097656 159.3125 340.097656 C 160.808594 340.097656 162.023438 341.308594 162.023438 342.808594 C 162.023438 344.300781 160.808594 345.515625 159.3125 345.515625 Z M 159.3125 347.117188 C 161.605469 347.117188 163.472656 345.332031 163.613281 343.078125 L 176.5 331.476562 L 176.5 287.082031 L 174.28125 287.082031 L 174.28125 331.476562 L 163.015625 340.605469 C 162.261719 339.34375 160.890625 338.496094 159.3125 338.496094 C 156.933594 338.496094 155.003906 340.425781 155.003906 342.808594 C 155.003906 345.1875 156.933594 347.117188 159.3125 347.117188 " fill-opacity="1" fill-rule="nonzero"/></g><path fill="#52afe6" d="M 60.121094 217.210938 C 61.621094 217.210938 62.832031 218.425781 62.832031 219.921875 C 62.832031 221.417969 61.621094 222.628906 60.121094 222.628906 C 58.625 222.628906 57.410156 221.417969 57.410156 219.921875 C 57.410156 218.425781 58.625 217.210938 60.121094 217.210938 Z M 60.121094 224.230469 C 62.503906 224.230469 64.433594 222.300781 64.433594 219.921875 C 64.433594 218.347656 63.589844 216.972656 62.328125 216.222656 L 71.457031 204.960938 L 115.867188 204.960938 L 115.867188 202.742188 L 71.457031 202.742188 L 59.855469 215.625 C 57.59375 215.765625 55.808594 217.632812 55.808594 219.921875 C 55.808594 222.300781 57.738281 224.230469 60.121094 224.230469 " fill-opacity="1" fill-rule="nonzero"/><path fill="#52afe6" d="M 67.144531 241.472656 C 68.640625 241.472656 69.855469 242.683594 69.855469 244.179688 C 69.855469 245.679688 68.640625 246.890625 67.144531 246.890625 C 65.644531 246.890625 64.433594 245.679688 64.433594 244.179688 C 64.433594 242.683594 65.644531 241.472656 67.144531 241.472656 Z M 67.144531 248.492188 C 69.527344 248.492188 71.457031 246.5625 71.457031 244.179688 C 71.457031 242.605469 70.609375 241.234375 69.347656 240.480469 L 78.480469 229.21875 L 122.890625 229.21875 L 122.890625 227.003906 L 78.480469 227.003906 L 66.875 239.882812 C 64.617188 240.023438 62.832031 241.890625 62.832031 244.179688 C 62.832031 246.5625 64.761719 248.492188 67.144531 248.492188 " fill-opacity="1" fill-rule="nonzero"/><path fill="#52afe6" d="M 102.59375 240.324219 C 102.59375 239.246094 103.46875 238.371094 104.546875 238.371094 C 105.628906 238.371094 106.503906 239.246094 106.503906 240.324219 C 106.503906 241.40625 105.628906 242.28125 104.546875 242.28125 C 103.46875 242.28125 102.59375 241.40625 102.59375 240.324219 Z M 101.707031 240.324219 C 101.707031 241.550781 102.484375 242.578125 103.5625 242.984375 L 103.5625 254.226562 L 105.527344 254.226562 L 105.527344 242.984375 C 106.609375 242.578125 107.386719 241.550781 107.386719 240.324219 C 107.386719 238.757812 106.117188 237.484375 104.546875 237.484375 C 102.980469 237.484375 101.707031 238.757812 101.707031 240.324219 " fill-opacity="1" fill-rule="nonzero"/><path fill="#52afe6" d="M 117.429688 267.582031 C 117.429688 268.660156 116.554688 269.535156 115.476562 269.535156 C 114.394531 269.535156 113.519531 268.660156 113.519531 267.582031 C 113.519531 266.5 114.394531 265.625 115.476562 265.625 C 116.554688 265.625 117.429688 266.5 117.429688 267.582031 Z M 118.3125 267.582031 C 118.3125 266.355469 117.539062 265.324219 116.453125 264.921875 L 116.453125 253.679688 L 114.492188 253.679688 L 114.492188 264.921875 C 113.410156 265.324219 112.632812 266.355469 112.632812 267.582031 C 112.632812 269.148438 113.902344 270.421875 115.476562 270.421875 C 117.042969 270.421875 118.3125 269.148438 118.3125 267.582031 " fill-opacity="1" fill-rule="nonzero"/><path fill="#52afe6" d="M 153.664062 316.140625 C 151.945312 316.140625 150.554688 314.75 150.554688 313.03125 C 150.554688 311.316406 151.945312 309.929688 153.664062 309.929688 C 155.378906 309.929688 156.773438 311.316406 156.773438 313.03125 C 156.773438 314.75 155.378906 316.140625 153.664062 316.140625 Z M 153.664062 317.542969 C 155.605469 317.542969 157.246094 316.3125 157.882812 314.59375 L 175.761719 314.59375 L 175.761719 311.476562 L 157.882812 311.476562 C 157.246094 309.753906 155.605469 308.523438 153.664062 308.523438 C 151.167969 308.523438 149.148438 310.542969 149.148438 313.03125 C 149.148438 315.527344 151.167969 317.542969 153.664062 317.542969 " fill-opacity="1" fill-rule="nonzero"/><path fill="#52afe6" d="M 85.851562 267.398438 C 87.347656 267.398438 88.5625 268.613281 88.5625 270.109375 C 88.5625 271.609375 87.347656 272.820312 85.851562 272.820312 C 84.351562 272.820312 83.140625 271.609375 83.140625 270.109375 C 83.140625 268.613281 84.351562 267.398438 85.851562 267.398438 Z M 85.851562 274.421875 C 88.234375 274.421875 90.164062 272.492188 90.164062 270.109375 C 90.164062 268.535156 89.316406 267.164062 88.054688 266.410156 L 97.183594 255.148438 L 141.597656 255.148438 L 141.597656 252.933594 L 97.183594 252.933594 L 85.582031 265.816406 C 83.328125 265.953125 81.539062 267.820312 81.539062 270.109375 C 81.539062 272.492188 83.46875 274.421875 85.851562 274.421875 " fill-opacity="1" fill-rule="nonzero"/><path fill="#52afe6" d="M 124.460938 289.695312 C 124.460938 287.300781 126.40625 285.359375 128.804688 285.359375 C 131.203125 285.359375 133.148438 287.300781 133.148438 289.695312 C 133.148438 292.09375 131.203125 294.039062 128.804688 294.039062 C 126.40625 294.039062 124.460938 292.09375 124.460938 289.695312 Z M 122.890625 289.695312 C 122.890625 292.964844 125.539062 295.609375 128.804688 295.609375 C 131.449219 295.609375 133.683594 293.875 134.441406 291.484375 L 181.324219 291.484375 L 181.324219 287.910156 L 134.441406 287.910156 C 133.683594 285.519531 131.449219 283.789062 128.804688 283.789062 C 125.539062 283.789062 122.890625 286.433594 122.890625 289.695312 " fill-opacity="1" fill-rule="nonzero"/><path fill="#52afe6" d="M 110.679688 290.414062 C 109.128906 290.414062 107.875 289.160156 107.875 287.609375 C 107.875 286.058594 109.128906 284.800781 110.679688 284.800781 C 112.230469 284.800781 113.488281 286.058594 113.488281 287.609375 C 113.488281 289.160156 112.230469 290.414062 110.679688 290.414062 Z M 73 290.414062 C 71.449219 290.414062 70.191406 289.160156 70.191406 287.609375 C 70.191406 286.058594 71.449219 284.800781 73 284.800781 C 74.546875 284.800781 75.808594 286.058594 75.808594 287.609375 C 75.808594 289.160156 74.546875 290.414062 73 290.414062 Z M 110.679688 283.789062 C 108.972656 283.789062 107.527344 284.90625 107.035156 286.453125 L 76.640625 286.453125 C 76.152344 284.90625 74.707031 283.789062 73 283.789062 C 70.890625 283.789062 69.175781 285.5 69.175781 287.609375 C 69.175781 289.71875 70.890625 291.429688 73 291.429688 C 74.707031 291.429688 76.152344 290.308594 76.644531 288.761719 L 107.035156 288.761719 C 107.527344 290.308594 108.972656 291.429688 110.679688 291.429688 C 112.792969 291.429688 114.503906 289.71875 114.503906 287.609375 C 114.503906 285.5 112.792969 283.789062 110.679688 283.789062 " fill-opacity="1" fill-rule="nonzero"/><path fill="#52afe6" d="M 94.910156 167.894531 C 93.359375 167.894531 92.101562 166.636719 92.101562 165.089844 C 92.101562 163.539062 93.359375 162.285156 94.910156 162.285156 C 96.460938 162.285156 97.71875 163.539062 97.71875 165.089844 C 97.71875 166.636719 96.460938 167.894531 94.910156 167.894531 Z M 57.234375 167.894531 C 55.679688 167.894531 54.421875 166.636719 54.421875 165.089844 C 54.421875 163.539062 55.679688 162.285156 57.234375 162.285156 C 58.78125 162.285156 60.035156 163.539062 60.035156 165.089844 C 60.035156 166.636719 58.78125 167.894531 57.234375 167.894531 Z M 94.910156 161.265625 C 93.199219 161.265625 91.757812 162.390625 91.261719 163.933594 L 60.875 163.933594 C 60.386719 162.390625 58.941406 161.265625 57.234375 161.265625 C 55.117188 161.265625 53.410156 162.976562 53.410156 165.089844 C 53.410156 167.199219 55.117188 168.910156 57.234375 168.910156 C 58.941406 168.910156 60.386719 167.792969 60.875 166.246094 L 91.261719 166.246094 C 91.757812 167.792969 93.199219 168.910156 94.910156 168.910156 C 97.023438 168.910156 98.730469 167.199219 98.730469 165.089844 C 98.730469 162.976562 97.023438 161.265625 94.910156 161.265625 " fill-opacity="1" fill-rule="nonzero"/><path fill="#52afe6" d="M 81.671875 152.988281 C 80.125 152.988281 78.867188 151.734375 78.867188 150.183594 C 78.867188 148.632812 80.125 147.375 81.671875 147.375 C 83.222656 147.375 84.480469 148.632812 84.480469 150.183594 C 84.480469 151.734375 83.222656 152.988281 81.671875 152.988281 Z M 43.992188 152.988281 C 42.445312 152.988281 41.1875 151.734375 41.1875 150.183594 C 41.1875 148.632812 42.445312 147.375 43.992188 147.375 C 45.542969 147.375 46.800781 148.632812 46.800781 150.183594 C 46.800781 151.734375 45.542969 152.988281 43.992188 152.988281 Z M 81.671875 146.359375 C 79.964844 146.359375 78.519531 147.480469 78.027344 149.027344 L 47.636719 149.027344 C 47.148438 147.480469 45.703125 146.359375 43.992188 146.359375 C 41.882812 146.359375 40.167969 148.070312 40.167969 150.183594 C 40.167969 152.292969 41.882812 154.003906 43.992188 154.003906 C 45.703125 154.003906 47.148438 152.882812 47.636719 151.339844 L 78.027344 151.339844 C 78.519531 152.882812 79.964844 154.003906 81.671875 154.003906 C 83.785156 154.003906 85.496094 152.292969 85.496094 150.183594 C 85.496094 148.070312 83.785156 146.359375 81.671875 146.359375 " fill-opacity="1" fill-rule="nonzero"/><path fill="#52afe6" d="M 135.238281 68 C 134.140625 69.101562 132.363281 69.101562 131.265625 68 C 130.171875 66.90625 130.171875 65.132812 131.265625 64.03125 C 132.363281 62.9375 134.140625 62.9375 135.238281 64.03125 C 136.332031 65.132812 136.332031 66.90625 135.238281 68 Z M 108.59375 94.636719 C 107.496094 95.730469 105.71875 95.730469 104.621094 94.636719 C 103.527344 93.542969 103.527344 91.761719 104.621094 90.667969 C 105.71875 89.574219 107.496094 89.570312 108.59375 90.667969 C 109.691406 91.761719 109.691406 93.542969 108.59375 94.636719 Z M 130.546875 63.316406 C 129.339844 64.527344 129.109375 66.339844 129.855469 67.777344 L 108.367188 89.257812 C 106.925781 88.511719 105.109375 88.742188 103.902344 89.949219 C 102.410156 91.441406 102.410156 93.863281 103.902344 95.355469 C 105.394531 96.847656 107.820312 96.847656 109.3125 95.355469 C 110.519531 94.148438 110.75 92.332031 110.003906 90.894531 L 110.058594 90.832031 L 110.058594 90.835938 L 131.492188 69.410156 C 132.929688 70.15625 134.746094 69.929688 135.957031 68.71875 C 137.449219 67.230469 137.449219 64.808594 135.957031 63.316406 C 134.460938 61.824219 132.039062 61.824219 130.546875 63.316406 " fill-opacity="1" fill-rule="nonzero"/><path fill="#52afe6" d="M 108.851562 63.054688 C 107.757812 64.152344 105.976562 64.152344 104.882812 63.054688 C 103.785156 61.960938 103.785156 60.183594 104.882812 59.089844 C 105.976562 57.992188 107.757812 57.992188 108.851562 59.089844 C 109.949219 60.183594 109.949219 61.960938 108.851562 63.054688 Z M 82.210938 89.6875 C 81.113281 90.785156 79.332031 90.785156 78.238281 89.6875 C 77.140625 88.59375 77.140625 86.820312 78.238281 85.71875 C 79.332031 84.625 81.113281 84.625 82.210938 85.71875 C 83.304688 86.820312 83.304688 88.59375 82.210938 89.6875 Z M 104.164062 58.371094 C 102.953125 59.578125 102.726562 61.390625 103.472656 62.832031 L 81.980469 84.3125 C 80.539062 83.566406 78.726562 83.796875 77.519531 85 C 76.027344 86.496094 76.027344 88.914062 77.519531 90.40625 C 79.015625 91.898438 81.433594 91.898438 82.925781 90.40625 C 84.132812 89.199219 84.363281 87.386719 83.617188 85.945312 L 83.679688 85.886719 L 105.109375 64.464844 C 106.546875 65.214844 108.363281 64.980469 109.570312 63.773438 C 111.0625 62.28125 111.0625 59.863281 109.570312 58.371094 C 108.078125 56.878906 105.65625 56.878906 104.164062 58.371094 " fill-opacity="1" fill-rule="nonzero"/><path fill="#52afe6" d="M 62.769531 132.75 C 61.21875 132.75 59.964844 131.492188 59.964844 129.941406 C 59.964844 128.394531 61.21875 127.136719 62.769531 127.136719 C 64.316406 127.136719 65.578125 128.394531 65.578125 129.941406 C 65.578125 131.492188 64.316406 132.75 62.769531 132.75 Z M 25.089844 132.75 C 23.542969 132.75 22.28125 131.492188 22.28125 129.941406 C 22.28125 128.394531 23.542969 127.136719 25.089844 127.136719 C 26.636719 127.136719 27.898438 128.394531 27.898438 129.941406 C 27.898438 131.492188 26.636719 132.75 25.089844 132.75 Z M 62.769531 126.121094 C 61.0625 126.121094 59.613281 127.242188 59.125 128.785156 L 28.734375 128.785156 C 28.242188 127.242188 26.800781 126.121094 25.089844 126.121094 C 22.976562 126.121094 21.269531 127.832031 21.269531 129.941406 C 21.269531 132.054688 22.976562 133.765625 25.089844 133.765625 C 26.800781 133.765625 28.242188 132.644531 28.734375 131.097656 L 59.125 131.097656 C 59.613281 132.644531 61.0625 133.765625 62.769531 133.765625 C 64.878906 133.765625 66.59375 132.054688 66.59375 129.941406 C 66.59375 127.832031 64.878906 126.121094 62.769531 126.121094 " fill-opacity="1" fill-rule="nonzero"/><path fill="#52afe6" d="M 124.046875 319.105469 C 123.214844 318.277344 123.214844 316.933594 124.046875 316.105469 C 124.875 315.277344 126.214844 315.277344 127.042969 316.105469 C 127.875 316.933594 127.875 318.277344 127.042969 319.105469 C 126.214844 319.933594 124.875 319.933594 124.046875 319.105469 Z M 103.902344 298.972656 C 103.074219 298.144531 103.074219 296.800781 103.902344 295.972656 C 104.730469 295.144531 106.078125 295.144531 106.90625 295.972656 C 107.734375 296.800781 107.734375 298.144531 106.90625 298.972656 C 106.078125 299.800781 104.730469 299.800781 103.902344 298.972656 Z M 127.585938 315.5625 C 126.671875 314.652344 125.304688 314.476562 124.214844 315.039062 L 124.167969 314.996094 L 107.96875 298.800781 C 108.535156 297.714844 108.359375 296.34375 107.449219 295.429688 C 106.320312 294.300781 104.488281 294.300781 103.359375 295.429688 C 102.234375 296.558594 102.234375 298.386719 103.359375 299.515625 C 104.273438 300.429688 105.644531 300.601562 106.734375 300.039062 L 106.777344 300.082031 L 122.980469 316.277344 C 122.414062 317.363281 122.585938 318.734375 123.5 319.648438 C 124.625 320.773438 126.457031 320.773438 127.585938 319.648438 C 128.714844 318.519531 128.714844 316.691406 127.585938 315.5625 " fill-opacity="1" fill-rule="nonzero"/><path fill="#52afe6" d="M 86.011719 256.996094 C 84.480469 256.996094 83.242188 255.757812 83.242188 254.226562 C 83.242188 252.691406 84.484375 251.453125 86.011719 251.453125 C 87.546875 251.453125 88.785156 252.695312 88.789062 254.226562 C 88.789062 255.757812 87.546875 256.996094 86.011719 256.996094 Z M 48.785156 256.996094 C 47.257812 256.996094 46.015625 255.753906 46.015625 254.226562 C 46.015625 252.691406 47.257812 251.453125 48.789062 251.453125 C 50.320312 251.453125 51.5625 252.691406 51.5625 254.226562 C 51.5625 255.757812 50.320312 256.996094 48.785156 256.996094 Z M 86.011719 250.453125 C 84.324219 250.453125 82.898438 251.554688 82.414062 253.082031 L 52.386719 253.082031 C 51.902344 251.554688 50.472656 250.453125 48.789062 250.449219 C 46.699219 250.453125 45.011719 252.136719 45.011719 254.226562 C 45.011719 256.308594 46.703125 258 48.785156 258 C 50.472656 258 51.902344 256.894531 52.386719 255.367188 L 82.414062 255.367188 C 82.894531 256.894531 84.324219 258 86.011719 258 C 88.101562 258 89.792969 256.3125 89.792969 254.226562 C 89.792969 252.140625 88.101562 250.453125 86.011719 250.453125 " fill-opacity="1" fill-rule="nonzero"/><path fill="#52afe6" d="M 311.371094 145.234375 C 308.96875 145.234375 307.027344 143.292969 307.027344 140.894531 C 307.027344 138.496094 308.96875 136.550781 311.371094 136.550781 C 313.769531 136.550781 315.710938 138.496094 315.710938 140.894531 C 315.710938 143.292969 313.769531 145.234375 311.371094 145.234375 Z M 311.371094 134.980469 C 308.726562 134.980469 306.492188 136.714844 305.730469 139.105469 L 258.851562 139.105469 L 258.851562 142.679688 L 305.730469 142.679688 C 306.492188 145.070312 308.726562 146.804688 311.371094 146.804688 C 314.632812 146.804688 317.285156 144.15625 317.285156 140.894531 C 317.285156 137.628906 314.632812 134.980469 311.371094 134.980469 " fill-opacity="1" fill-rule="nonzero"/><path fill="#52afe6" d="M 300.558594 119.804688 C 298.578125 119.804688 296.976562 118.199219 296.976562 116.226562 C 296.976562 114.25 298.578125 112.648438 300.558594 112.648438 C 302.535156 112.648438 304.136719 114.25 304.136719 116.226562 C 304.136719 118.199219 302.535156 119.804688 300.558594 119.804688 Z M 300.558594 111.351562 C 298.378906 111.351562 296.535156 112.78125 295.910156 114.753906 L 257.253906 114.753906 L 257.253906 117.699219 L 295.910156 117.699219 C 296.535156 119.671875 298.378906 121.097656 300.558594 121.097656 C 303.25 121.097656 305.429688 118.917969 305.429688 116.226562 C 305.429688 113.535156 303.25 111.351562 300.558594 111.351562 " fill-opacity="1" fill-rule="nonzero"/><path fill="#52afe6" d="M 228.8125 328.796875 C 228.8125 327.011719 230.265625 325.5625 232.050781 325.5625 C 233.835938 325.5625 235.285156 327.011719 235.285156 328.796875 C 235.285156 330.582031 233.835938 332.03125 232.050781 332.03125 C 230.265625 332.03125 228.8125 330.582031 228.8125 328.796875 Z M 236.453125 328.796875 C 236.453125 326.828125 235.164062 325.167969 233.382812 324.601562 L 233.382812 289.695312 L 230.714844 289.695312 L 230.714844 324.601562 C 228.9375 325.167969 227.644531 326.828125 227.644531 328.796875 C 227.644531 331.230469 229.617188 333.199219 232.050781 333.199219 C 234.480469 333.199219 236.453125 331.230469 236.453125 328.796875 " fill-opacity="1" fill-rule="nonzero"/><path fill="#52afe6" d="M 311.371094 196.191406 C 308.96875 196.191406 307.027344 194.246094 307.027344 191.851562 C 307.027344 189.453125 308.96875 187.511719 311.371094 187.511719 C 313.769531 187.511719 315.710938 189.453125 315.710938 191.851562 C 315.710938 194.246094 313.769531 196.191406 311.371094 196.191406 Z M 311.371094 185.941406 C 308.726562 185.941406 306.492188 187.671875 305.730469 190.0625 L 258.851562 190.0625 L 258.851562 193.640625 L 305.730469 193.640625 C 306.492188 196.03125 308.726562 197.761719 311.371094 197.761719 C 314.632812 197.761719 317.285156 195.117188 317.285156 191.851562 C 317.285156 188.585938 314.632812 185.941406 311.371094 185.941406 " fill-opacity="1" fill-rule="nonzero"/><path fill="#52afe6" d="M 289.429688 173.941406 C 287.929688 173.941406 286.714844 172.726562 286.714844 171.226562 C 286.714844 169.722656 287.929688 168.507812 289.429688 168.507812 C 290.933594 168.507812 292.152344 169.722656 292.152344 171.226562 C 292.152344 172.726562 290.933594 173.941406 289.429688 173.941406 Z M 289.429688 167.273438 C 287.246094 167.273438 285.480469 169.042969 285.480469 171.226562 C 285.480469 172.925781 286.558594 174.359375 288.070312 174.917969 L 288.070312 190.558594 L 290.796875 190.558594 L 290.796875 174.917969 C 292.300781 174.359375 293.378906 172.925781 293.378906 171.226562 C 293.378906 169.042969 291.609375 167.273438 289.429688 167.273438 " fill-opacity="1" fill-rule="nonzero"/><path fill="#52afe6" d="M 300.496094 105.527344 C 298.101562 105.527344 296.152344 103.582031 296.152344 101.1875 C 296.152344 98.789062 298.101562 96.847656 300.496094 96.847656 C 302.894531 96.847656 304.839844 98.789062 304.839844 101.1875 C 304.839844 103.582031 302.894531 105.527344 300.496094 105.527344 Z M 300.496094 95.277344 C 297.855469 95.277344 295.617188 97.007812 294.859375 99.398438 L 247.980469 99.398438 L 247.980469 102.972656 L 294.859375 102.972656 C 295.617188 105.363281 297.855469 107.097656 300.496094 107.097656 C 303.765625 107.097656 306.410156 104.453125 306.410156 101.1875 C 306.410156 97.921875 303.765625 95.277344 300.496094 95.277344 " fill-opacity="1" fill-rule="nonzero"/><path fill="#52afe6" d="M 278.558594 83.28125 C 277.058594 83.28125 275.839844 82.0625 275.839844 80.5625 C 275.839844 79.058594 277.058594 77.84375 278.558594 77.84375 C 280.058594 77.84375 281.277344 79.058594 281.277344 80.5625 C 281.277344 82.0625 280.058594 83.28125 278.558594 83.28125 Z M 278.558594 76.613281 C 276.375 76.613281 274.609375 78.378906 274.609375 80.5625 C 274.609375 82.261719 275.6875 83.699219 277.195312 84.253906 L 277.195312 99.894531 L 279.921875 99.894531 L 279.921875 84.253906 C 281.429688 83.699219 282.511719 82.261719 282.511719 80.5625 C 282.511719 78.378906 280.742188 76.613281 278.558594 76.613281 " fill-opacity="1" fill-rule="nonzero"/><path fill="#52afe6" d="M 289.429688 216.347656 C 288.351562 216.347656 287.476562 215.476562 287.476562 214.394531 C 287.476562 213.316406 288.351562 212.441406 289.429688 212.441406 C 290.507812 212.441406 291.386719 213.316406 291.386719 214.394531 C 291.386719 215.476562 290.507812 216.347656 289.429688 216.347656 Z M 289.429688 211.554688 C 287.863281 211.554688 286.589844 212.828125 286.589844 214.394531 C 286.589844 215.617188 287.367188 216.648438 288.449219 217.050781 L 288.449219 228.296875 L 290.410156 228.296875 L 290.410156 217.050781 C 291.496094 216.648438 292.269531 215.617188 292.269531 214.394531 C 292.269531 212.828125 291 211.554688 289.429688 211.554688 " fill-opacity="1" fill-rule="nonzero"/><path fill="#52afe6" d="M 278.503906 239.695312 C 279.582031 239.695312 280.457031 240.570312 280.457031 241.648438 C 280.457031 242.730469 279.582031 243.605469 278.503906 243.605469 C 277.425781 243.605469 276.546875 242.730469 276.546875 241.648438 C 276.546875 240.570312 277.425781 239.695312 278.503906 239.695312 Z M 278.503906 244.488281 C 280.074219 244.488281 281.34375 243.21875 281.34375 241.648438 C 281.34375 240.425781 280.566406 239.398438 279.484375 238.992188 L 279.484375 227.75 L 277.523438 227.75 L 277.523438 238.992188 C 276.4375 239.398438 275.660156 240.425781 275.660156 241.648438 C 275.660156 243.21875 276.933594 244.488281 278.503906 244.488281 " fill-opacity="1" fill-rule="nonzero"/><path fill="#52afe6" d="M 291.714844 161.640625 C 290.214844 161.640625 288.996094 160.425781 288.996094 158.921875 C 288.996094 157.421875 290.214844 156.207031 291.714844 156.207031 C 293.214844 156.207031 294.429688 157.421875 294.429688 158.921875 C 294.429688 160.425781 293.214844 161.640625 291.714844 161.640625 Z M 291.714844 155.226562 C 290.058594 155.226562 288.660156 156.308594 288.183594 157.804688 L 258.851562 157.804688 L 258.851562 160.042969 L 288.183594 160.042969 C 288.660156 161.539062 290.058594 162.621094 291.714844 162.621094 C 293.761719 162.621094 295.414062 160.964844 295.414062 158.921875 C 295.414062 156.882812 293.761719 155.226562 291.714844 155.226562 " fill-opacity="1" fill-rule="nonzero"/><path fill="#52afe6" d="M 315.148438 115.472656 C 313.652344 115.472656 312.4375 114.261719 312.4375 112.765625 C 312.4375 111.265625 313.652344 110.054688 315.148438 110.054688 C 316.648438 110.054688 317.859375 111.265625 317.859375 112.765625 C 317.859375 114.261719 316.648438 115.472656 315.148438 115.472656 Z M 315.148438 108.453125 C 312.765625 108.453125 310.835938 110.382812 310.835938 112.765625 C 310.835938 114.339844 311.683594 115.710938 312.945312 116.464844 L 303.8125 127.726562 L 259.402344 127.726562 L 259.402344 129.941406 L 303.8125 129.941406 L 315.417969 117.0625 C 317.671875 116.921875 319.460938 115.054688 319.460938 112.765625 C 319.460938 110.382812 317.53125 108.453125 315.148438 108.453125 " fill-opacity="1" fill-rule="nonzero"/><path fill="#52afe6" d="M 271.039062 265.789062 C 269.539062 265.789062 268.328125 264.574219 268.328125 263.078125 C 268.328125 261.582031 269.539062 260.371094 271.039062 260.371094 C 272.535156 260.371094 273.75 261.582031 273.75 263.078125 C 273.75 264.574219 272.535156 265.789062 271.039062 265.789062 Z M 271.039062 258.769531 C 268.65625 258.769531 266.726562 260.699219 266.726562 263.078125 C 266.726562 264.652344 267.570312 266.023438 268.832031 266.777344 L 259.703125 278.039062 L 215.289062 278.039062 L 215.289062 280.257812 L 259.703125 280.257812 L 271.308594 267.375 C 273.5625 267.234375 275.351562 265.367188 275.351562 263.078125 C 275.351562 260.699219 273.417969 258.769531 271.039062 258.769531 " fill-opacity="1" fill-rule="nonzero"/><g clip-path="url(#id2)"><path fill="#52afe6" d="M 213.246094 342.808594 C 213.246094 341.308594 214.460938 340.097656 215.957031 340.097656 C 217.453125 340.097656 218.667969 341.308594 218.667969 342.808594 C 218.667969 344.300781 217.453125 345.515625 215.957031 345.515625 C 214.460938 345.515625 213.246094 344.300781 213.246094 342.808594 Z M 220.269531 342.808594 C 220.269531 340.425781 218.339844 338.496094 215.957031 338.496094 C 214.378906 338.496094 213.007812 339.34375 212.253906 340.605469 L 200.988281 331.476562 L 200.988281 287.082031 L 198.769531 287.082031 L 198.769531 331.476562 L 211.660156 343.078125 C 211.800781 345.332031 213.667969 347.117188 215.957031 347.117188 C 218.339844 347.117188 220.269531 345.1875 220.269531 342.808594 " fill-opacity="1" fill-rule="nonzero"/></g><path fill="#52afe6" d="M 317.859375 219.921875 C 317.859375 221.417969 316.648438 222.628906 315.148438 222.628906 C 313.652344 222.628906 312.4375 221.417969 312.4375 219.921875 C 312.4375 218.425781 313.652344 217.210938 315.148438 217.210938 C 316.648438 217.210938 317.859375 218.425781 317.859375 219.921875 Z M 319.460938 219.921875 C 319.460938 217.632812 317.671875 215.765625 315.417969 215.625 L 303.8125 202.742188 L 259.402344 202.742188 L 259.402344 204.960938 L 303.8125 204.960938 L 312.945312 216.222656 C 311.683594 216.972656 310.835938 218.347656 310.835938 219.921875 C 310.835938 222.300781 312.765625 224.230469 315.148438 224.230469 C 317.53125 224.230469 319.460938 222.300781 319.460938 219.921875 " fill-opacity="1" fill-rule="nonzero"/><path fill="#52afe6" d="M 310.835938 244.179688 C 310.835938 245.679688 309.625 246.890625 308.125 246.890625 C 306.628906 246.890625 305.414062 245.679688 305.414062 244.179688 C 305.414062 242.683594 306.628906 241.472656 308.125 241.472656 C 309.625 241.472656 310.835938 242.683594 310.835938 244.179688 Z M 312.4375 244.179688 C 312.4375 241.890625 310.652344 240.023438 308.394531 239.882812 L 296.792969 227.003906 L 252.378906 227.003906 L 252.378906 229.21875 L 296.792969 229.21875 L 305.921875 240.480469 C 304.660156 241.234375 303.8125 242.605469 303.8125 244.179688 C 303.8125 246.5625 305.742188 248.492188 308.125 248.492188 C 310.507812 248.492188 312.4375 246.5625 312.4375 244.179688 " fill-opacity="1" fill-rule="nonzero"/><path fill="#52afe6" d="M 270.722656 242.28125 C 269.640625 242.28125 268.769531 241.40625 268.769531 240.324219 C 268.769531 239.246094 269.640625 238.371094 270.722656 238.371094 C 271.804688 238.371094 272.675781 239.246094 272.675781 240.324219 C 272.675781 241.40625 271.804688 242.28125 270.722656 242.28125 Z M 270.722656 237.484375 C 269.15625 237.484375 267.882812 238.757812 267.882812 240.324219 C 267.882812 241.550781 268.660156 242.578125 269.742188 242.984375 L 269.742188 254.226562 L 271.707031 254.226562 L 271.707031 242.984375 C 272.785156 242.578125 273.5625 241.550781 273.5625 240.324219 C 273.5625 238.757812 272.289062 237.484375 270.722656 237.484375 " fill-opacity="1" fill-rule="nonzero"/><path fill="#52afe6" d="M 259.796875 265.625 C 260.875 265.625 261.753906 266.5 261.753906 267.582031 C 261.753906 268.660156 260.875 269.535156 259.796875 269.535156 C 258.714844 269.535156 257.84375 268.660156 257.84375 267.582031 C 257.84375 266.5 258.714844 265.625 259.796875 265.625 Z M 259.796875 270.421875 C 261.367188 270.421875 262.636719 269.148438 262.636719 267.582031 C 262.636719 266.355469 261.859375 265.324219 260.777344 264.921875 L 260.777344 253.679688 L 258.816406 253.679688 L 258.816406 264.921875 C 257.734375 265.324219 256.957031 266.355469 256.957031 267.582031 C 256.957031 269.148438 258.226562 270.421875 259.796875 270.421875 " fill-opacity="1" fill-rule="nonzero"/><path fill="#52afe6" d="M 218.5 313.03125 C 218.5 311.316406 219.890625 309.929688 221.605469 309.929688 C 223.324219 309.929688 224.714844 311.316406 224.714844 313.03125 C 224.714844 314.75 223.324219 316.140625 221.605469 316.140625 C 219.890625 316.140625 218.5 314.75 218.5 313.03125 Z M 226.121094 313.03125 C 226.121094 310.542969 224.101562 308.523438 221.605469 308.523438 C 219.664062 308.523438 218.023438 309.753906 217.386719 311.476562 L 199.507812 311.476562 L 199.507812 314.59375 L 217.386719 314.59375 C 218.023438 316.3125 219.664062 317.542969 221.605469 317.542969 C 224.101562 317.542969 226.121094 315.527344 226.121094 313.03125 " fill-opacity="1" fill-rule="nonzero"/><path fill="#52afe6" d="M 292.128906 270.109375 C 292.128906 271.609375 290.917969 272.820312 289.421875 272.820312 C 287.921875 272.820312 286.710938 271.609375 286.710938 270.109375 C 286.710938 268.613281 287.921875 267.398438 289.421875 267.398438 C 290.917969 267.398438 292.128906 268.613281 292.128906 270.109375 Z M 293.730469 270.109375 C 293.730469 267.820312 291.941406 265.953125 289.6875 265.816406 L 278.085938 252.933594 L 233.671875 252.933594 L 233.671875 255.148438 L 278.085938 255.148438 L 287.210938 266.410156 C 285.953125 267.164062 285.109375 268.535156 285.109375 270.109375 C 285.109375 272.492188 287.039062 274.421875 289.421875 274.421875 C 291.800781 274.421875 293.730469 272.492188 293.730469 270.109375 " fill-opacity="1" fill-rule="nonzero"/><path fill="#52afe6" d="M 246.464844 294.039062 C 244.066406 294.039062 242.121094 292.09375 242.121094 289.695312 C 242.121094 287.300781 244.066406 285.359375 246.464844 285.359375 C 248.863281 285.359375 250.808594 287.300781 250.808594 289.695312 C 250.808594 292.09375 248.863281 294.039062 246.464844 294.039062 Z M 246.464844 283.789062 C 243.820312 283.789062 241.585938 285.519531 240.828125 287.910156 L 193.949219 287.910156 L 193.949219 291.484375 L 240.828125 291.484375 C 241.585938 293.875 243.820312 295.609375 246.464844 295.609375 C 249.730469 295.609375 252.378906 292.964844 252.378906 289.695312 C 252.378906 286.433594 249.730469 283.789062 246.464844 283.789062 " fill-opacity="1" fill-rule="nonzero"/><path fill="#52afe6" d="M 261.78125 287.609375 C 261.78125 286.058594 263.039062 284.800781 264.589844 284.800781 C 266.140625 284.800781 267.398438 286.058594 267.398438 287.609375 C 267.398438 289.160156 266.140625 290.414062 264.589844 290.414062 C 263.039062 290.414062 261.78125 289.160156 261.78125 287.609375 Z M 299.460938 287.609375 C 299.460938 286.058594 300.71875 284.800781 302.273438 284.800781 C 303.820312 284.800781 305.078125 286.058594 305.078125 287.609375 C 305.078125 289.160156 303.820312 290.414062 302.273438 290.414062 C 300.71875 290.414062 299.460938 289.160156 299.460938 287.609375 Z M 260.765625 287.609375 C 260.765625 289.71875 262.476562 291.429688 264.589844 291.429688 C 266.296875 291.429688 267.746094 290.308594 268.234375 288.761719 L 298.628906 288.761719 C 299.117188 290.308594 300.5625 291.429688 302.273438 291.429688 C 304.378906 291.429688 306.09375 289.71875 306.09375 287.609375 C 306.09375 285.5 304.378906 283.789062 302.273438 283.789062 C 300.5625 283.789062 299.117188 284.90625 298.628906 286.453125 L 268.234375 286.453125 C 267.746094 284.90625 266.300781 283.789062 264.589844 283.789062 C 262.476562 283.789062 260.765625 285.5 260.765625 287.609375 " fill-opacity="1" fill-rule="nonzero"/><path fill="#52afe6" d="M 277.554688 165.089844 C 277.554688 163.539062 278.808594 162.285156 280.359375 162.285156 C 281.910156 162.285156 283.167969 163.539062 283.167969 165.089844 C 283.167969 166.636719 281.910156 167.894531 280.359375 167.894531 C 278.808594 167.894531 277.554688 166.636719 277.554688 165.089844 Z M 315.234375 165.089844 C 315.234375 163.539062 316.488281 162.285156 318.039062 162.285156 C 319.589844 162.285156 320.847656 163.539062 320.847656 165.089844 C 320.847656 166.636719 319.589844 167.894531 318.039062 167.894531 C 316.488281 167.894531 315.234375 166.636719 315.234375 165.089844 Z M 276.539062 165.089844 C 276.539062 167.199219 278.25 168.910156 280.359375 168.910156 C 282.070312 168.910156 283.511719 167.792969 284.003906 166.246094 L 314.394531 166.246094 C 314.886719 167.792969 316.332031 168.910156 318.039062 168.910156 C 320.152344 168.910156 321.863281 167.199219 321.863281 165.089844 C 321.863281 162.976562 320.152344 161.265625 318.039062 161.265625 C 316.332031 161.265625 314.886719 162.390625 314.394531 163.933594 L 284.003906 163.933594 C 283.511719 162.390625 282.070312 161.265625 280.359375 161.265625 C 278.25 161.265625 276.539062 162.976562 276.539062 165.089844 " fill-opacity="1" fill-rule="nonzero"/><path fill="#52afe6" d="M 290.789062 150.183594 C 290.789062 148.632812 292.050781 147.375 293.597656 147.375 C 295.148438 147.375 296.402344 148.632812 296.402344 150.183594 C 296.402344 151.734375 295.148438 152.988281 293.597656 152.988281 C 292.050781 152.988281 290.789062 151.734375 290.789062 150.183594 Z M 328.472656 150.183594 C 328.472656 148.632812 329.726562 147.375 331.273438 147.375 C 332.828125 147.375 334.085938 148.632812 334.085938 150.183594 C 334.085938 151.734375 332.828125 152.988281 331.273438 152.988281 C 329.726562 152.988281 328.472656 151.734375 328.472656 150.183594 Z M 289.777344 150.183594 C 289.777344 152.292969 291.488281 154.003906 293.597656 154.003906 C 295.304688 154.003906 296.75 152.882812 297.242188 151.339844 L 327.632812 151.339844 C 328.121094 152.882812 329.570312 154.003906 331.273438 154.003906 C 333.386719 154.003906 335.097656 152.292969 335.097656 150.183594 C 335.097656 148.070312 333.386719 146.359375 331.273438 146.359375 C 329.570312 146.359375 328.121094 147.480469 327.632812 149.027344 L 297.242188 149.027344 C 296.75 147.480469 295.304688 146.359375 293.597656 146.359375 C 291.488281 146.359375 289.777344 148.070312 289.777344 150.183594 " fill-opacity="1" fill-rule="nonzero"/><path fill="#52afe6" d="M 240.03125 64.03125 C 241.128906 62.9375 242.90625 62.9375 244.007812 64.03125 C 245.101562 65.132812 245.101562 66.90625 244.007812 68 C 242.90625 69.101562 241.132812 69.101562 240.03125 68 C 238.9375 66.90625 238.9375 65.132812 240.03125 64.03125 Z M 266.675781 90.667969 C 267.773438 89.570312 269.550781 89.574219 270.648438 90.667969 C 271.746094 91.761719 271.746094 93.542969 270.648438 94.636719 C 269.550781 95.730469 267.773438 95.730469 266.675781 94.636719 C 265.582031 93.542969 265.582031 91.761719 266.675781 90.667969 Z M 239.316406 63.316406 C 237.820312 64.808594 237.824219 67.230469 239.316406 68.71875 C 240.523438 69.929688 242.335938 70.15625 243.78125 69.410156 L 265.210938 90.835938 L 265.210938 90.832031 L 265.265625 90.894531 C 264.523438 92.332031 264.75 94.148438 265.957031 95.355469 C 267.449219 96.847656 269.875 96.847656 271.367188 95.355469 C 272.859375 93.863281 272.859375 91.441406 271.367188 89.949219 C 270.15625 88.742188 268.34375 88.511719 266.902344 89.257812 L 245.414062 67.777344 C 246.160156 66.339844 245.929688 64.527344 244.726562 63.316406 C 243.230469 61.824219 240.808594 61.824219 239.316406 63.316406 " fill-opacity="1" fill-rule="nonzero"/><path fill="#52afe6" d="M 266.417969 59.089844 C 267.515625 57.992188 269.292969 57.992188 270.386719 59.089844 C 271.484375 60.183594 271.484375 61.960938 270.386719 63.054688 C 269.292969 64.152344 267.515625 64.152344 266.417969 63.054688 C 265.320312 61.960938 265.320312 60.183594 266.417969 59.089844 Z M 293.0625 85.71875 C 294.15625 84.625 295.9375 84.625 297.03125 85.71875 C 298.128906 86.820312 298.128906 88.59375 297.03125 89.6875 C 295.933594 90.785156 294.15625 90.785156 293.0625 89.6875 C 291.964844 88.59375 291.964844 86.820312 293.0625 85.71875 Z M 265.699219 58.371094 C 264.207031 59.863281 264.207031 62.28125 265.699219 63.773438 C 266.90625 64.980469 268.71875 65.214844 270.160156 64.464844 L 291.652344 85.945312 C 290.90625 87.386719 291.136719 89.199219 292.34375 90.40625 C 293.835938 91.898438 296.253906 91.898438 297.75 90.40625 C 299.242188 88.914062 299.242188 86.496094 297.75 85 C 296.542969 83.796875 294.726562 83.566406 293.289062 84.3125 L 271.796875 62.832031 C 272.542969 61.390625 272.3125 59.578125 271.105469 58.371094 C 269.613281 56.878906 267.195312 56.878906 265.699219 58.371094 " fill-opacity="1" fill-rule="nonzero"/><g clip-path="url(#id3)"><path fill="#52afe6" d="M 309.691406 129.941406 C 309.691406 128.394531 310.953125 127.136719 312.5 127.136719 C 314.050781 127.136719 315.304688 128.394531 315.308594 129.941406 C 315.308594 131.492188 314.050781 132.75 312.5 132.75 C 310.953125 132.75 309.691406 131.492188 309.691406 129.941406 Z M 347.371094 129.941406 C 347.371094 128.394531 348.632812 127.136719 350.179688 127.136719 C 351.730469 127.136719 352.988281 128.394531 352.988281 129.941406 C 352.988281 131.492188 351.730469 132.75 350.179688 132.75 C 348.632812 132.75 347.371094 131.492188 347.371094 129.941406 Z M 308.675781 129.941406 C 308.675781 132.054688 310.390625 133.765625 312.5 133.765625 C 314.210938 133.765625 315.65625 132.644531 316.144531 131.097656 L 346.535156 131.097656 C 347.027344 132.644531 348.46875 133.765625 350.179688 133.765625 C 352.289062 133.765625 354.003906 132.054688 354.003906 129.941406 C 354.003906 127.832031 352.289062 126.121094 350.179688 126.121094 C 348.472656 126.121094 347.027344 127.242188 346.535156 128.785156 L 316.144531 128.785156 C 315.65625 127.242188 314.210938 126.121094 312.5 126.121094 C 310.386719 126.121094 308.675781 127.832031 308.675781 129.941406 " fill-opacity="1" fill-rule="nonzero"/></g><path fill="#52afe6" d="M 248.226562 319.105469 C 247.398438 318.277344 247.398438 316.933594 248.226562 316.105469 C 249.054688 315.277344 250.398438 315.277344 251.226562 316.105469 C 252.054688 316.933594 252.054688 318.277344 251.226562 319.105469 C 250.398438 319.933594 249.054688 319.933594 248.226562 319.105469 Z M 268.363281 298.972656 C 267.535156 298.144531 267.535156 296.800781 268.363281 295.972656 C 269.195312 295.144531 270.539062 295.144531 271.367188 295.972656 C 272.195312 296.800781 272.195312 298.144531 271.367188 298.972656 C 270.539062 299.800781 269.195312 299.800781 268.363281 298.972656 Z M 247.683594 319.648438 C 248.8125 320.773438 250.644531 320.773438 251.773438 319.648438 C 252.683594 318.734375 252.855469 317.363281 252.292969 316.277344 L 268.535156 300.039062 C 269.625 300.601562 270.996094 300.429688 271.910156 299.515625 C 273.035156 298.386719 273.035156 296.558594 271.910156 295.429688 C 270.78125 294.300781 268.949219 294.300781 267.824219 295.429688 C 266.910156 296.34375 266.734375 297.714844 267.300781 298.800781 L 251.101562 314.996094 L 251.058594 315.039062 C 249.96875 314.476562 248.597656 314.652344 247.683594 315.5625 C 246.554688 316.691406 246.554688 318.519531 247.683594 319.648438 " fill-opacity="1" fill-rule="nonzero"/><path fill="#52afe6" d="M 286.480469 254.226562 C 286.484375 252.695312 287.722656 251.453125 289.257812 251.453125 C 290.785156 251.453125 292.027344 252.691406 292.027344 254.226562 C 292.027344 255.757812 290.789062 256.996094 289.257812 256.996094 C 287.722656 256.996094 286.480469 255.757812 286.480469 254.226562 Z M 323.707031 254.226562 C 323.707031 252.691406 324.953125 251.453125 326.484375 251.453125 C 328.011719 251.453125 329.253906 252.691406 329.253906 254.226562 C 329.253906 255.753906 328.011719 256.996094 326.484375 256.996094 C 324.953125 256.996094 323.707031 255.757812 323.707031 254.226562 Z M 285.480469 254.226562 C 285.480469 256.3125 287.167969 258 289.257812 258 C 290.945312 258 292.375 256.894531 292.855469 255.367188 L 322.800781 255.367188 L 322.796875 255.367188 L 322.882812 255.367188 C 323.367188 256.894531 324.796875 258 326.484375 258 C 328.566406 258 330.261719 256.308594 330.261719 254.226562 C 330.261719 252.136719 328.566406 250.453125 326.484375 250.449219 C 324.796875 250.453125 323.367188 251.554688 322.882812 253.082031 L 292.855469 253.082031 C 292.375 251.554688 290.945312 250.453125 289.257812 250.453125 C 287.167969 250.453125 285.480469 252.140625 285.480469 254.226562 " fill-opacity="1" fill-rule="nonzero"/><path fill="#409bce" d="M 256.5625 204.585938 C 252.300781 255.910156 187.636719 288.722656 187.636719 288.722656 C 187.636719 288.722656 122.96875 255.910156 118.710938 204.585938 C 114.449219 153.261719 122.96875 108.039062 122.96875 108.039062 L 187.636719 78.207031 L 252.300781 108.039062 C 252.300781 108.039062 260.824219 153.261719 256.5625 204.585938 Z M 259.359375 99.8125 L 187.636719 66.722656 L 115.914062 99.8125 C 115.914062 99.8125 106.460938 149.96875 111.1875 206.890625 C 115.914062 263.8125 187.636719 300.210938 187.636719 300.210938 C 187.636719 300.210938 259.359375 263.8125 264.085938 206.890625 C 268.8125 149.96875 259.359375 99.8125 259.359375 99.8125 " fill-opacity="1" fill-rule="nonzero"/><path fill="#52afe6" d="M 216.648438 173.265625 C 216.648438 157.242188 203.660156 144.265625 187.636719 144.265625 C 171.613281 144.265625 158.621094 157.242188 158.621094 173.265625 C 158.621094 184.96875 165.570312 195.023438 175.554688 199.609375 L 175.554688 222.667969 L 199.71875 222.667969 L 199.71875 199.609375 C 209.703125 195.023438 216.648438 184.96875 216.648438 173.265625 " fill-opacity="1" fill-rule="nonzero"/><path fill="#409bce" d="M 211.257812 178.359375 C 211.257812 166.117188 201.332031 156.195312 189.085938 156.195312 C 176.839844 156.195312 166.914062 166.117188 166.914062 178.359375 C 166.914062 187.304688 172.222656 194.992188 179.851562 198.496094 L 179.851562 216.117188 L 198.316406 216.117188 L 198.316406 198.496094 C 205.949219 194.992188 211.257812 187.304688 211.257812 178.359375 " fill-opacity="1" fill-rule="nonzero"/></svg>