<svg xmlns="http://www.w3.org/2000/svg" xmlns:xlink="http://www.w3.org/1999/xlink" width="1567" zoomAndPan="magnify" viewBox="0 0 1175.25 209.999996" height="280" preserveAspectRatio="xMidYMid meet" version="1.0"><defs><g/><clipPath id="id1"><path d="M 88 160 L 103 160 L 103 200.058594 L 88 200.058594 Z M 88 160 " clip-rule="nonzero"/></clipPath><clipPath id="id2"><path d="M 36 9.679688 L 59 9.679688 L 59 33 L 36 33 Z M 36 9.679688 " clip-rule="nonzero"/></clipPath><clipPath id="id3"><path d="M 116 160 L 131 160 L 131 200.058594 L 116 200.058594 Z M 116 160 " clip-rule="nonzero"/></clipPath><clipPath id="id4"><path d="M 159 9.679688 L 183 9.679688 L 183 33 L 159 33 Z M 159 9.679688 " clip-rule="nonzero"/></clipPath><clipPath id="id5"><path d="M 188 55 L 218.859375 55 L 218.859375 61 L 188 61 Z M 188 55 " clip-rule="nonzero"/></clipPath></defs><g fill="#ffffff" fill-opacity="1"><g transform="translate(219.126989, 139.85275)"><g><path d="M 91.617188 -68.613281 L 74.96875 -68.613281 L 66.898438 -21.289062 L 53.476562 -68.613281 L 38.644531 -68.613281 L 25.226562 -21.289062 L 17.152344 -68.613281 L 0.503906 -68.613281 L 13.824219 0 L 31.785156 0 L 46.113281 -48.128906 L 60.339844 0 L 78.300781 0 Z M 91.617188 -68.613281 "/></g></g></g><g fill="#ffffff" fill-opacity="1"><g transform="translate(311.242029, 139.85275)"><g><path d="M 40.863281 -22.199219 C 40.863281 -16.347656 36.324219 -11.097656 30.269531 -11.097656 C 24.214844 -11.097656 19.675781 -16.347656 19.675781 -22.199219 C 19.675781 -28.050781 24.214844 -33.296875 30.269531 -33.296875 C 36.324219 -33.296875 40.863281 -28.050781 40.863281 -22.199219 Z M 56 -44.394531 L 40.863281 -44.394531 L 40.863281 -39.046875 C 36.929688 -43.890625 31.277344 -45.507812 25.628906 -45.507812 C 13.015625 -45.507812 3.53125 -34.507812 3.53125 -22.199219 C 3.53125 -9.886719 13.015625 1.007812 25.628906 1.007812 C 31.277344 1.007812 37.835938 -0.808594 40.863281 -5.347656 L 40.863281 0 L 56 0 Z M 56 -44.394531 "/></g></g></g><g fill="#ffffff" fill-opacity="1"><g transform="translate(373.291045, 139.85275)"><g><path d="M 21.1875 0 L 21.1875 -75.675781 L 6.054688 -75.675781 L 6.054688 0 Z M 21.1875 0 "/></g></g></g><g fill="#ffffff" fill-opacity="1"><g transform="translate(400.532079, 139.85275)"><g><path d="M 25.125 -32.792969 L 33.195312 -32.792969 L 33.195312 -44.496094 L 25.125 -44.496094 L 25.125 -61.449219 L 10.089844 -61.449219 L 10.089844 -44.496094 L 2.019531 -44.496094 L 2.019531 -32.792969 L 10.089844 -32.792969 L 10.089844 0 L 25.125 0 Z M 25.125 -32.792969 "/></g></g></g><g fill="#ffffff" fill-opacity="1"><g transform="translate(435.743643, 139.85275)"><g/></g></g><g fill="#ffffff" fill-opacity="1"><g transform="translate(460.966803, 139.85275)"><g><path d="M 55.597656 -23.308594 C 52.769531 -17.253906 45.910156 -13.117188 38.847656 -13.117188 C 27.746094 -13.117188 18.867188 -22.601562 18.867188 -34.304688 C 18.867188 -45.910156 27.746094 -55.496094 38.847656 -55.496094 C 45.808594 -55.496094 52.671875 -51.660156 55.496094 -45.507812 L 72.347656 -45.507812 C 67.703125 -59.53125 54.484375 -69.621094 38.847656 -69.621094 C 19.371094 -69.621094 3.53125 -53.78125 3.53125 -34.304688 C 3.53125 -14.832031 19.371094 1.007812 38.847656 1.007812 C 54.484375 1.007812 67.804688 -9.183594 72.445312 -23.308594 Z M 55.597656 -23.308594 "/></g></g></g><g fill="#ffffff" fill-opacity="1"><g transform="translate(535.930085, 139.85275)"><g><path d="M 24.117188 25.226562 L 33.800781 0 L 50.753906 -44.496094 L 35.417969 -44.496094 L 24.820312 -12.714844 L 14.226562 -44.496094 L -1.007812 -44.496094 L 15.941406 0 L 18.464844 0 L 8.375 25.226562 Z M 24.117188 25.226562 "/></g></g></g><g fill="#ffffff" fill-opacity="1"><g transform="translate(585.670184, 139.85275)"><g><path d="M 21.1875 -22.199219 C 21.1875 -28.050781 25.730469 -33.296875 31.785156 -33.296875 C 37.835938 -33.296875 42.378906 -28.050781 42.378906 -22.199219 C 42.378906 -16.347656 37.835938 -11.097656 31.785156 -11.097656 C 25.730469 -11.097656 21.1875 -16.347656 21.1875 -22.199219 Z M 21.1875 0 L 21.1875 -5.347656 C 24.214844 -0.808594 30.671875 1.007812 36.425781 1.007812 C 49.039062 1.007812 58.523438 -9.886719 58.523438 -22.199219 C 58.523438 -34.507812 49.039062 -45.507812 36.425781 -45.507812 C 30.671875 -45.507812 25.125 -43.890625 21.1875 -39.046875 L 21.1875 -75.675781 L 6.054688 -75.675781 L 6.054688 0 Z M 21.1875 0 "/></g></g></g><g fill="#ffffff" fill-opacity="1"><g transform="translate(647.719199, 139.85275)"><g><path d="M 19.777344 -27.546875 C 19.777344 -27.546875 20.28125 -35.820312 29.765625 -35.820312 C 38.949219 -35.820312 39.652344 -27.546875 39.652344 -27.546875 Z M 54.183594 -23.207031 C 54.183594 -37.433594 42.984375 -45.507812 29.464844 -45.507812 C 14.53125 -45.507812 3.53125 -36.121094 3.53125 -22.199219 C 3.53125 -8.070312 14.125 1.007812 29.464844 1.007812 C 41.269531 1.007812 50.753906 -4.84375 53.375 -16.546875 L 37.9375 -16.546875 C 37.835938 -13.320312 34.507812 -9.789062 29.160156 -9.789062 C 23.207031 -9.789062 19.574219 -15.234375 19.574219 -20.382812 L 54.082031 -20.382812 C 54.082031 -21.289062 54.183594 -22.300781 54.183594 -23.207031 Z M 54.183594 -23.207031 "/></g></g></g><g fill="#ffffff" fill-opacity="1"><g transform="translate(705.429851, 139.85275)"><g><path d="M 31.179688 -33.296875 C 33.5 -33.296875 35.71875 -32.589844 37.230469 -30.773438 L 37.433594 -30.773438 L 37.433594 -44.496094 C 36.222656 -45.101562 34.207031 -45.507812 32.894531 -45.507812 C 27.34375 -45.507812 23.511719 -42.378906 21.1875 -39.046875 L 21.1875 -44.496094 L 6.054688 -44.496094 L 6.054688 0 L 21.1875 0 L 21.1875 -22.199219 C 21.1875 -27.546875 25.527344 -33.296875 31.179688 -33.296875 Z M 31.179688 -33.296875 "/></g></g></g><g fill="#ffffff" fill-opacity="1"><g transform="translate(743.869963, 139.85275)"><g/></g></g><g fill="#ffffff" fill-opacity="1"><g transform="translate(769.093124, 139.85275)"><g><path d="M 32.691406 -10.695312 C 25.226562 -10.695312 18.765625 -14.429688 18.363281 -22.601562 L 3.027344 -22.601562 C 3.128906 -5.851562 16.953125 1.613281 32.085938 1.613281 C 46.113281 1.613281 60.539062 -4.339844 60.539062 -20.484375 C 60.539062 -46.617188 20.886719 -37.835938 20.886719 -50.046875 C 20.886719 -55.191406 26.839844 -57.210938 31.078125 -57.210938 C 38.644531 -57.210938 42.78125 -54.890625 43.589844 -47.726562 L 58.21875 -47.726562 C 57.714844 -63.367188 45 -69.621094 30.875 -69.621094 C 18.363281 -69.621094 5.246094 -62.960938 5.246094 -48.835938 C 5.246094 -23.511719 44.902344 -32.085938 44.902344 -18.765625 C 44.902344 -12.613281 37.433594 -10.695312 32.691406 -10.695312 Z M 32.691406 -10.695312 "/></g></g></g><g fill="#ffffff" fill-opacity="1"><g transform="translate(832.655524, 139.85275)"><g><path d="M 19.777344 -27.546875 C 19.777344 -27.546875 20.28125 -35.820312 29.765625 -35.820312 C 38.949219 -35.820312 39.652344 -27.546875 39.652344 -27.546875 Z M 54.183594 -23.207031 C 54.183594 -37.433594 42.984375 -45.507812 29.464844 -45.507812 C 14.53125 -45.507812 3.53125 -36.121094 3.53125 -22.199219 C 3.53125 -8.070312 14.125 1.007812 29.464844 1.007812 C 41.269531 1.007812 50.753906 -4.84375 53.375 -16.546875 L 37.9375 -16.546875 C 37.835938 -13.320312 34.507812 -9.789062 29.160156 -9.789062 C 23.207031 -9.789062 19.574219 -15.234375 19.574219 -20.382812 L 54.082031 -20.382812 C 54.082031 -21.289062 54.183594 -22.300781 54.183594 -23.207031 Z M 54.183594 -23.207031 "/></g></g></g><g fill="#ffffff" fill-opacity="1"><g transform="translate(890.366175, 139.85275)"><g><path d="M 28.757812 -33.699219 C 34.003906 -33.699219 37.332031 -30.976562 37.535156 -26.636719 L 52.570312 -26.636719 C 51.863281 -36.929688 42.679688 -45.507812 28.253906 -45.507812 C 13.417969 -45.507812 3.53125 -34.910156 3.53125 -22.199219 C 3.53125 -9.484375 12.8125 1.007812 28.253906 1.007812 C 41.773438 1.007812 50.753906 -6.660156 52.265625 -16.546875 L 37.535156 -16.546875 C 37.03125 -12.511719 33.398438 -10.492188 28.757812 -10.492188 C 21.695312 -10.492188 19.675781 -16.953125 19.675781 -22.097656 C 19.675781 -27.140625 21.894531 -33.699219 28.757812 -33.699219 Z M 28.757812 -33.699219 "/></g></g></g><g fill="#ffffff" fill-opacity="1"><g transform="translate(946.058964, 139.85275)"><g><path d="M 5.046875 -19.171875 C 5.046875 -7.164062 9.886719 1.007812 21.792969 1.007812 C 27.648438 1.007812 32.390625 -1.613281 35.417969 -5.449219 L 35.417969 0 L 50.550781 0 L 50.550781 -44.496094 L 35.417969 -44.496094 L 35.417969 -22.199219 C 35.417969 -16.246094 31.683594 -11.097656 26.941406 -11.097656 C 22.199219 -11.097656 20.179688 -14.023438 20.179688 -19.171875 L 20.179688 -44.496094 L 5.046875 -44.496094 Z M 5.046875 -19.171875 "/></g></g></g><g fill="#ffffff" fill-opacity="1"><g transform="translate(1002.659743, 139.85275)"><g><path d="M 31.179688 -33.296875 C 33.5 -33.296875 35.71875 -32.589844 37.230469 -30.773438 L 37.433594 -30.773438 L 37.433594 -44.496094 C 36.222656 -45.101562 34.207031 -45.507812 32.894531 -45.507812 C 27.34375 -45.507812 23.511719 -42.378906 21.1875 -39.046875 L 21.1875 -44.496094 L 6.054688 -44.496094 L 6.054688 0 L 21.1875 0 L 21.1875 -22.199219 C 21.1875 -27.546875 25.527344 -33.296875 31.179688 -33.296875 Z M 31.179688 -33.296875 "/></g></g></g><g fill="#ffffff" fill-opacity="1"><g transform="translate(1041.099902, 139.85275)"><g><path d="M 5.246094 -59.734375 C 5.246094 -54.890625 9.183594 -50.855469 14.125 -50.855469 C 18.96875 -50.855469 23.003906 -54.890625 23.003906 -59.734375 C 23.003906 -64.675781 18.96875 -68.613281 14.125 -68.613281 C 9.183594 -68.613281 5.246094 -64.675781 5.246094 -59.734375 Z M 21.695312 0 L 21.695312 -44.496094 L 6.558594 -44.496094 L 6.558594 0 Z M 21.695312 0 "/></g></g></g><g fill="#ffffff" fill-opacity="1"><g transform="translate(1069.349878, 139.85275)"><g><path d="M 25.125 -32.792969 L 33.195312 -32.792969 L 33.195312 -44.496094 L 25.125 -44.496094 L 25.125 -61.449219 L 10.089844 -61.449219 L 10.089844 -44.496094 L 2.019531 -44.496094 L 2.019531 -32.792969 L 10.089844 -32.792969 L 10.089844 0 L 25.125 0 Z M 25.125 -32.792969 "/></g></g></g><g fill="#ffffff" fill-opacity="1"><g transform="translate(1104.561476, 139.85275)"><g><path d="M 24.117188 25.226562 L 33.800781 0 L 50.753906 -44.496094 L 35.417969 -44.496094 L 24.820312 -12.714844 L 14.226562 -44.496094 L -1.007812 -44.496094 L 15.941406 0 L 18.464844 0 L 8.375 25.226562 Z M 24.117188 25.226562 "/></g></g></g><path fill="#52afe6" d="M 25.441406 64.785156 C 25.441406 63.210938 26.71875 61.9375 28.292969 61.9375 C 29.863281 61.9375 31.140625 63.210938 31.140625 64.785156 C 31.140625 66.355469 29.863281 67.632812 28.292969 67.632812 C 26.71875 67.632812 25.441406 66.355469 25.441406 64.785156 Z M 24.414062 64.785156 C 24.414062 66.925781 26.148438 68.660156 28.292969 68.660156 C 30.023438 68.660156 31.488281 67.523438 31.988281 65.953125 L 62.730469 65.953125 L 62.730469 63.609375 L 31.988281 63.609375 C 31.488281 62.042969 30.023438 60.90625 28.292969 60.90625 C 26.148438 60.90625 24.414062 62.640625 24.414062 64.785156 " fill-opacity="1" fill-rule="nonzero"/><path fill="#52afe6" d="M 33.035156 48.605469 C 33.035156 47.308594 34.085938 46.257812 35.382812 46.257812 C 36.675781 46.257812 37.730469 47.308594 37.730469 48.605469 C 37.730469 49.898438 36.675781 50.953125 35.382812 50.953125 C 34.085938 50.953125 33.035156 49.898438 33.035156 48.605469 Z M 32.183594 48.605469 C 32.183594 50.367188 33.613281 51.800781 35.382812 51.800781 C 36.808594 51.800781 38.019531 50.863281 38.429688 49.570312 L 63.773438 49.570312 L 63.773438 47.636719 L 38.429688 47.636719 C 38.019531 46.34375 36.808594 45.40625 35.382812 45.40625 C 33.613281 45.40625 32.183594 46.839844 32.183594 48.605469 " fill-opacity="1" fill-rule="nonzero"/><path fill="#52afe6" d="M 80.304688 190.152344 C 79.132812 190.152344 78.183594 189.203125 78.183594 188.03125 C 78.183594 186.859375 79.132812 185.910156 80.304688 185.910156 C 81.476562 185.910156 82.425781 186.859375 82.425781 188.03125 C 82.425781 189.203125 81.476562 190.152344 80.304688 190.152344 Z M 80.304688 190.917969 C 81.902344 190.917969 83.195312 189.625 83.195312 188.03125 C 83.195312 186.742188 82.34375 185.648438 81.179688 185.28125 L 81.179688 162.382812 L 79.433594 162.382812 L 79.433594 185.28125 C 78.261719 185.648438 77.417969 186.742188 77.417969 188.03125 C 77.417969 189.625 78.710938 190.917969 80.304688 190.917969 " fill-opacity="1" fill-rule="nonzero"/><path fill="#52afe6" d="M 25.441406 98.207031 C 25.441406 96.636719 26.71875 95.359375 28.292969 95.359375 C 29.863281 95.359375 31.140625 96.636719 31.140625 98.207031 C 31.140625 99.777344 29.863281 101.054688 28.292969 101.054688 C 26.71875 101.054688 25.441406 99.777344 25.441406 98.207031 Z M 24.414062 98.207031 C 24.414062 100.347656 26.148438 102.082031 28.292969 102.082031 C 30.023438 102.082031 31.488281 100.949219 31.988281 99.378906 L 62.730469 99.378906 L 62.730469 97.035156 L 31.988281 97.035156 C 31.488281 95.464844 30.023438 94.332031 28.292969 94.332031 C 26.148438 94.332031 24.414062 96.066406 24.414062 98.207031 " fill-opacity="1" fill-rule="nonzero"/><path fill="#52afe6" d="M 40.894531 84.679688 C 40.894531 83.695312 41.691406 82.894531 42.675781 82.894531 C 43.660156 82.894531 44.460938 83.695312 44.460938 84.679688 C 44.460938 85.664062 43.660156 86.460938 42.675781 86.460938 C 41.691406 86.460938 40.894531 85.664062 40.894531 84.679688 Z M 40.085938 84.679688 C 40.085938 85.792969 40.792969 86.734375 41.78125 87.101562 L 41.78125 97.359375 L 43.570312 97.359375 L 43.570312 87.101562 C 44.558594 86.734375 45.269531 85.792969 45.269531 84.679688 C 45.269531 83.246094 44.109375 82.085938 42.675781 82.085938 C 41.246094 82.085938 40.085938 83.246094 40.085938 84.679688 " fill-opacity="1" fill-rule="nonzero"/><path fill="#52afe6" d="M 32.570312 38.738281 C 32.570312 37.167969 33.847656 35.890625 35.417969 35.890625 C 36.992188 35.890625 38.269531 37.167969 38.269531 38.738281 C 38.269531 40.308594 36.992188 41.585938 35.417969 41.585938 C 33.847656 41.585938 32.570312 40.308594 32.570312 38.738281 Z M 31.542969 38.738281 C 31.542969 40.878906 33.277344 42.617188 35.417969 42.617188 C 37.152344 42.617188 38.617188 41.480469 39.117188 39.910156 L 69.859375 39.910156 L 69.859375 37.566406 L 39.117188 37.566406 C 38.617188 35.996094 37.152344 34.863281 35.417969 34.863281 C 33.277344 34.863281 31.542969 36.597656 31.542969 38.738281 " fill-opacity="1" fill-rule="nonzero"/><path fill="#52afe6" d="M 48.023438 25.210938 C 48.023438 24.226562 48.820312 23.429688 49.804688 23.429688 C 50.792969 23.429688 51.589844 24.226562 51.589844 25.210938 C 51.589844 26.195312 50.792969 26.992188 49.804688 26.992188 C 48.820312 26.992188 48.023438 26.195312 48.023438 25.210938 Z M 47.214844 25.210938 C 47.214844 26.324219 47.921875 27.269531 48.910156 27.632812 L 48.910156 37.890625 L 50.699219 37.890625 L 50.699219 27.632812 C 51.6875 27.269531 52.394531 26.324219 52.394531 25.210938 C 52.394531 23.777344 51.234375 22.621094 49.804688 22.621094 C 48.375 22.621094 47.214844 23.777344 47.214844 25.210938 " fill-opacity="1" fill-rule="nonzero"/><path fill="#52afe6" d="M 41.394531 112.992188 C 41.394531 112.285156 41.96875 111.710938 42.675781 111.710938 C 43.386719 111.710938 43.960938 112.285156 43.960938 112.992188 C 43.960938 113.703125 43.386719 114.273438 42.675781 114.273438 C 41.96875 114.273438 41.394531 113.703125 41.394531 112.992188 Z M 40.8125 112.992188 C 40.8125 113.792969 41.324219 114.472656 42.035156 114.734375 L 42.035156 122.109375 L 43.320312 122.109375 L 43.320312 114.734375 C 44.03125 114.472656 44.539062 113.792969 44.539062 112.992188 C 44.539062 111.964844 43.707031 111.132812 42.675781 111.132812 C 41.648438 111.132812 40.8125 111.964844 40.8125 112.992188 " fill-opacity="1" fill-rule="nonzero"/><path fill="#52afe6" d="M 51.125 130.871094 C 51.125 131.578125 50.550781 132.152344 49.84375 132.152344 C 49.132812 132.152344 48.558594 131.578125 48.558594 130.871094 C 48.558594 130.164062 49.132812 129.589844 49.84375 129.589844 C 50.550781 129.589844 51.125 130.164062 51.125 130.871094 Z M 51.703125 130.871094 C 51.703125 130.070312 51.195312 129.394531 50.484375 129.128906 L 50.484375 121.753906 L 49.199219 121.753906 L 49.199219 129.128906 C 48.488281 129.394531 47.980469 130.070312 47.980469 130.871094 C 47.980469 131.898438 48.8125 132.730469 49.84375 132.730469 C 50.871094 132.730469 51.703125 131.898438 51.703125 130.871094 " fill-opacity="1" fill-rule="nonzero"/><path fill="#52afe6" d="M 39.398438 76.609375 C 39.398438 75.625 40.195312 74.828125 41.179688 74.828125 C 42.164062 74.828125 42.960938 75.625 42.960938 76.609375 C 42.960938 77.59375 42.164062 78.390625 41.179688 78.390625 C 40.195312 78.390625 39.398438 77.59375 39.398438 76.609375 Z M 38.753906 76.609375 C 38.753906 77.949219 39.839844 79.035156 41.179688 79.035156 C 42.265625 79.035156 43.179688 78.324219 43.492188 77.34375 L 62.730469 77.34375 L 62.730469 75.875 L 43.492188 75.875 C 43.179688 74.894531 42.265625 74.183594 41.179688 74.183594 C 39.839844 74.183594 38.753906 75.269531 38.753906 76.609375 " fill-opacity="1" fill-rule="nonzero"/><path fill="#52afe6" d="M 24.035156 46.332031 C 24.035156 45.351562 24.832031 44.554688 25.8125 44.554688 C 26.792969 44.554688 27.589844 45.351562 27.589844 46.332031 C 27.589844 47.3125 26.792969 48.109375 25.8125 48.109375 C 24.832031 48.109375 24.035156 47.3125 24.035156 46.332031 Z M 22.984375 46.332031 C 22.984375 47.835938 24.15625 49.058594 25.636719 49.152344 L 33.246094 57.601562 L 62.367188 57.601562 L 62.367188 56.144531 L 33.246094 56.144531 L 27.257812 48.757812 C 28.085938 48.265625 28.640625 47.367188 28.640625 46.332031 C 28.640625 44.769531 27.375 43.503906 25.8125 43.503906 C 24.25 43.503906 22.984375 44.769531 22.984375 46.332031 " fill-opacity="1" fill-rule="nonzero"/><path fill="#52afe6" d="M 52.960938 144.925781 C 52.960938 143.941406 53.757812 143.148438 54.738281 143.148438 C 55.71875 143.148438 56.515625 143.941406 56.515625 144.925781 C 56.515625 145.90625 55.71875 146.703125 54.738281 146.703125 C 53.757812 146.703125 52.960938 145.90625 52.960938 144.925781 Z M 51.910156 144.925781 C 51.910156 146.425781 53.082031 147.652344 54.5625 147.746094 L 62.171875 156.191406 L 91.296875 156.191406 L 91.296875 154.738281 L 62.171875 154.738281 L 56.183594 147.351562 C 57.011719 146.859375 57.566406 145.957031 57.566406 144.925781 C 57.566406 143.363281 56.300781 142.097656 54.738281 142.097656 C 53.175781 142.097656 51.910156 143.363281 51.910156 144.925781 " fill-opacity="1" fill-rule="nonzero"/><g clip-path="url(#id1)"><path fill="#52afe6" d="M 90.855469 198.996094 C 89.875 198.996094 89.082031 198.199219 89.082031 197.21875 C 89.082031 196.238281 89.875 195.441406 90.855469 195.441406 C 91.839844 195.441406 92.636719 196.238281 92.636719 197.21875 C 92.636719 198.199219 91.839844 198.996094 90.855469 198.996094 Z M 90.855469 200.046875 C 92.359375 200.046875 93.585938 198.875 93.675781 197.398438 L 102.128906 189.789062 L 102.128906 160.671875 L 100.671875 160.671875 L 100.671875 189.789062 L 93.285156 195.773438 C 92.792969 194.949219 91.890625 194.394531 90.855469 194.394531 C 89.296875 194.394531 88.03125 195.660156 88.03125 197.21875 C 88.03125 198.78125 89.296875 200.046875 90.855469 200.046875 " fill-opacity="1" fill-rule="nonzero"/></g><path fill="#52afe6" d="M 25.8125 114.839844 C 26.792969 114.839844 27.589844 115.636719 27.589844 116.617188 C 27.589844 117.601562 26.792969 118.394531 25.8125 118.394531 C 24.832031 118.394531 24.035156 117.601562 24.035156 116.617188 C 24.035156 115.636719 24.832031 114.839844 25.8125 114.839844 Z M 25.8125 119.445312 C 27.375 119.445312 28.640625 118.179688 28.640625 116.617188 C 28.640625 115.585938 28.085938 114.683594 27.257812 114.191406 L 33.246094 106.804688 L 62.367188 106.804688 L 62.367188 105.351562 L 33.246094 105.351562 L 25.636719 113.800781 C 24.15625 113.890625 22.984375 115.117188 22.984375 116.617188 C 22.984375 118.179688 24.25 119.445312 25.8125 119.445312 " fill-opacity="1" fill-rule="nonzero"/><path fill="#52afe6" d="M 30.417969 130.753906 C 31.398438 130.753906 32.195312 131.550781 32.195312 132.53125 C 32.195312 133.511719 31.398438 134.308594 30.417969 134.308594 C 29.433594 134.308594 28.640625 133.511719 28.640625 132.53125 C 28.640625 131.550781 29.433594 130.753906 30.417969 130.753906 Z M 30.417969 135.359375 C 31.980469 135.359375 33.246094 134.09375 33.246094 132.53125 C 33.246094 131.496094 32.6875 130.597656 31.863281 130.105469 L 37.851562 122.71875 L 66.972656 122.71875 L 66.972656 121.261719 L 37.851562 121.261719 L 30.238281 129.710938 C 28.761719 129.804688 27.589844 131.027344 27.589844 132.53125 C 27.589844 134.09375 28.855469 135.359375 30.417969 135.359375 " fill-opacity="1" fill-rule="nonzero"/><path fill="#52afe6" d="M 53.660156 130 C 53.660156 129.292969 54.238281 128.71875 54.945312 128.71875 C 55.652344 128.71875 56.226562 129.292969 56.226562 130 C 56.226562 130.710938 55.652344 131.285156 54.945312 131.285156 C 54.238281 131.285156 53.660156 130.710938 53.660156 130 Z M 53.082031 130 C 53.082031 130.804688 53.589844 131.480469 54.300781 131.746094 L 54.300781 139.117188 L 55.585938 139.117188 L 55.585938 131.746094 C 56.296875 131.480469 56.804688 130.804688 56.804688 130 C 56.804688 128.972656 55.972656 128.136719 54.945312 128.136719 C 53.914062 128.136719 53.082031 128.972656 53.082031 130 " fill-opacity="1" fill-rule="nonzero"/><path fill="#52afe6" d="M 63.390625 147.878906 C 63.390625 148.585938 62.816406 149.160156 62.109375 149.160156 C 61.402344 149.160156 60.828125 148.585938 60.828125 147.878906 C 60.828125 147.171875 61.402344 146.59375 62.109375 146.59375 C 62.816406 146.59375 63.390625 147.171875 63.390625 147.878906 Z M 63.96875 147.878906 C 63.96875 147.074219 63.464844 146.398438 62.75 146.136719 L 62.75 138.761719 L 61.464844 138.761719 L 61.464844 146.136719 C 60.757812 146.398438 60.246094 147.074219 60.246094 147.878906 C 60.246094 148.90625 61.078125 149.742188 62.109375 149.742188 C 63.136719 149.742188 63.96875 148.90625 63.96875 147.878906 " fill-opacity="1" fill-rule="nonzero"/><path fill="#52afe6" d="M 87.152344 179.726562 C 86.027344 179.726562 85.113281 178.816406 85.113281 177.691406 C 85.113281 176.566406 86.027344 175.65625 87.152344 175.65625 C 88.277344 175.65625 89.191406 176.566406 89.191406 177.691406 C 89.191406 178.816406 88.277344 179.726562 87.152344 179.726562 Z M 87.152344 180.652344 C 88.425781 180.652344 89.503906 179.84375 89.921875 178.714844 L 101.644531 178.714844 L 101.644531 176.667969 L 89.921875 176.667969 C 89.503906 175.542969 88.425781 174.734375 87.152344 174.734375 C 85.515625 174.734375 84.191406 176.058594 84.191406 177.691406 C 84.191406 179.328125 85.515625 180.652344 87.152344 180.652344 " fill-opacity="1" fill-rule="nonzero"/><path fill="#52afe6" d="M 42.683594 147.761719 C 43.664062 147.761719 44.460938 148.558594 44.460938 149.539062 C 44.460938 150.519531 43.664062 151.316406 42.683594 151.316406 C 41.703125 151.316406 40.90625 150.519531 40.90625 149.539062 C 40.90625 148.558594 41.703125 147.761719 42.683594 147.761719 Z M 42.683594 152.363281 C 44.246094 152.363281 45.511719 151.097656 45.511719 149.539062 C 45.511719 148.503906 44.957031 147.605469 44.128906 147.113281 L 50.117188 139.722656 L 79.242188 139.722656 L 79.242188 138.269531 L 50.117188 138.269531 L 42.507812 146.722656 C 41.027344 146.8125 39.855469 148.035156 39.855469 149.539062 C 39.855469 151.097656 41.121094 152.363281 42.683594 152.363281 " fill-opacity="1" fill-rule="nonzero"/><path fill="#52afe6" d="M 68.003906 162.382812 C 68.003906 160.8125 69.277344 159.539062 70.851562 159.539062 C 72.421875 159.539062 73.699219 160.8125 73.699219 162.382812 C 73.699219 163.957031 72.421875 165.230469 70.851562 165.230469 C 69.277344 165.230469 68.003906 163.957031 68.003906 162.382812 Z M 66.972656 162.382812 C 66.972656 164.527344 68.710938 166.261719 70.851562 166.261719 C 72.585938 166.261719 74.050781 165.125 74.546875 163.558594 L 105.292969 163.558594 L 105.292969 161.214844 L 74.546875 161.214844 C 74.050781 159.644531 72.585938 158.507812 70.851562 158.507812 C 68.710938 158.507812 66.972656 160.242188 66.972656 162.382812 " fill-opacity="1" fill-rule="nonzero"/><path fill="#52afe6" d="M 58.964844 162.855469 C 57.949219 162.855469 57.125 162.03125 57.125 161.015625 C 57.125 160 57.949219 159.171875 58.964844 159.171875 C 59.980469 159.171875 60.804688 160 60.804688 161.015625 C 60.804688 162.03125 59.980469 162.855469 58.964844 162.855469 Z M 34.257812 162.855469 C 33.238281 162.855469 32.414062 162.03125 32.414062 161.015625 C 32.414062 160 33.238281 159.171875 34.257812 159.171875 C 35.269531 159.171875 36.097656 160 36.097656 161.015625 C 36.097656 162.03125 35.269531 162.855469 34.257812 162.855469 Z M 58.964844 158.507812 C 57.84375 158.507812 56.898438 159.242188 56.574219 160.257812 L 36.644531 160.257812 C 36.324219 159.242188 35.375 158.507812 34.257812 158.507812 C 32.871094 158.507812 31.75 159.632812 31.75 161.015625 C 31.75 162.398438 32.871094 163.523438 34.257812 163.523438 C 35.375 163.523438 36.324219 162.785156 36.648438 161.773438 L 56.574219 161.773438 C 56.898438 162.785156 57.84375 163.523438 58.964844 163.523438 C 60.351562 163.523438 61.472656 162.398438 61.472656 161.015625 C 61.472656 159.632812 60.351562 158.507812 58.964844 158.507812 " fill-opacity="1" fill-rule="nonzero"/><path fill="#52afe6" d="M 48.625 82.492188 C 47.605469 82.492188 46.78125 81.667969 46.78125 80.652344 C 46.78125 79.636719 47.605469 78.8125 48.625 78.8125 C 49.640625 78.8125 50.464844 79.636719 50.464844 80.652344 C 50.464844 81.667969 49.640625 82.492188 48.625 82.492188 Z M 23.917969 82.492188 C 22.898438 82.492188 22.074219 81.667969 22.074219 80.652344 C 22.074219 79.636719 22.898438 78.8125 23.917969 78.8125 C 24.929688 78.8125 25.753906 79.636719 25.753906 80.652344 C 25.753906 81.667969 24.929688 82.492188 23.917969 82.492188 Z M 48.625 78.144531 C 47.503906 78.144531 46.554688 78.882812 46.234375 79.894531 L 26.304688 79.894531 C 25.984375 78.882812 25.035156 78.144531 23.917969 78.144531 C 22.53125 78.144531 21.410156 79.269531 21.410156 80.652344 C 21.410156 82.039062 22.53125 83.160156 23.917969 83.160156 C 25.035156 83.160156 25.984375 82.425781 26.304688 81.410156 L 46.234375 81.410156 C 46.554688 82.425781 47.503906 83.160156 48.625 83.160156 C 50.011719 83.160156 51.128906 82.039062 51.128906 80.652344 C 51.128906 79.269531 50.011719 78.144531 48.625 78.144531 " fill-opacity="1" fill-rule="nonzero"/><path fill="#52afe6" d="M 39.945312 72.714844 C 38.925781 72.714844 38.105469 71.890625 38.105469 70.875 C 38.105469 69.859375 38.925781 69.035156 39.945312 69.035156 C 40.960938 69.035156 41.785156 69.859375 41.785156 70.875 C 41.785156 71.890625 40.960938 72.714844 39.945312 72.714844 Z M 15.234375 72.714844 C 14.21875 72.714844 13.394531 71.890625 13.394531 70.875 C 13.394531 69.859375 14.21875 69.035156 15.234375 69.035156 C 16.253906 69.035156 17.074219 69.859375 17.074219 70.875 C 17.074219 71.890625 16.253906 72.714844 15.234375 72.714844 Z M 39.945312 68.371094 C 38.824219 68.371094 37.875 69.101562 37.554688 70.117188 L 17.625 70.117188 C 17.300781 69.101562 16.355469 68.371094 15.234375 68.371094 C 13.851562 68.371094 12.726562 69.492188 12.726562 70.875 C 12.726562 72.261719 13.851562 73.382812 15.234375 73.382812 C 16.355469 73.382812 17.300781 72.644531 17.625 71.632812 L 37.554688 71.632812 C 37.875 72.644531 38.824219 73.382812 39.945312 73.382812 C 41.328125 73.382812 42.453125 72.261719 42.453125 70.875 C 42.453125 69.492188 41.328125 68.371094 39.945312 68.371094 " fill-opacity="1" fill-rule="nonzero"/><path fill="#52afe6" d="M 75.070312 16.972656 C 74.351562 17.691406 73.183594 17.691406 72.464844 16.972656 C 71.746094 16.253906 71.746094 15.089844 72.464844 14.371094 C 73.183594 13.652344 74.351562 13.652344 75.070312 14.371094 C 75.789062 15.089844 75.789062 16.253906 75.070312 16.972656 Z M 57.597656 34.441406 C 56.878906 35.160156 55.710938 35.160156 54.992188 34.441406 C 54.273438 33.722656 54.273438 32.558594 54.992188 31.839844 C 55.710938 31.121094 56.878906 31.117188 57.597656 31.839844 C 58.316406 32.558594 58.316406 33.722656 57.597656 34.441406 Z M 71.996094 13.898438 C 71.203125 14.691406 71.050781 15.882812 71.539062 16.824219 L 57.449219 30.914062 C 56.503906 30.425781 55.3125 30.574219 54.523438 31.367188 C 53.542969 32.347656 53.542969 33.933594 54.523438 34.914062 C 55.5 35.890625 57.089844 35.890625 58.066406 34.914062 C 58.859375 34.121094 59.011719 32.933594 58.519531 31.988281 L 58.558594 31.945312 L 58.558594 31.949219 L 72.613281 17.898438 C 73.554688 18.386719 74.75 18.234375 75.539062 17.445312 C 76.519531 16.464844 76.519531 14.878906 75.539062 13.898438 C 74.558594 12.917969 72.972656 12.917969 71.996094 13.898438 " fill-opacity="1" fill-rule="nonzero"/><g clip-path="url(#id2)"><path fill="#52afe6" d="M 57.765625 13.726562 C 57.046875 14.449219 55.882812 14.449219 55.164062 13.726562 C 54.441406 13.007812 54.441406 11.84375 55.164062 11.125 C 55.882812 10.40625 57.046875 10.40625 57.765625 11.125 C 58.488281 11.84375 58.488281 13.007812 57.765625 13.726562 Z M 40.296875 31.195312 C 39.574219 31.917969 38.410156 31.914062 37.691406 31.195312 C 36.972656 30.480469 36.972656 29.3125 37.691406 28.59375 C 38.410156 27.875 39.574219 27.875 40.296875 28.59375 C 41.015625 29.3125 41.015625 30.480469 40.296875 31.195312 Z M 54.691406 10.65625 C 53.898438 11.449219 53.75 12.636719 54.238281 13.582031 L 40.144531 27.671875 C 39.203125 27.179688 38.011719 27.332031 37.21875 28.121094 C 36.242188 29.101562 36.242188 30.691406 37.21875 31.667969 C 38.199219 32.648438 39.785156 32.648438 40.765625 31.667969 C 41.558594 30.875 41.707031 29.6875 41.21875 28.742188 L 41.257812 28.703125 L 55.3125 14.652344 C 56.257812 15.144531 57.445312 14.992188 58.238281 14.199219 C 59.21875 13.21875 59.21875 11.632812 58.238281 10.65625 C 57.261719 9.675781 55.671875 9.675781 54.691406 10.65625 " fill-opacity="1" fill-rule="nonzero"/></g><path fill="#52afe6" d="M 27.546875 59.441406 C 26.53125 59.441406 25.707031 58.617188 25.707031 57.601562 C 25.707031 56.582031 26.53125 55.761719 27.546875 55.761719 C 28.5625 55.761719 29.390625 56.582031 29.390625 57.601562 C 29.390625 58.617188 28.5625 59.441406 27.546875 59.441406 Z M 2.839844 59.441406 C 1.824219 59.441406 0.996094 58.617188 0.996094 57.601562 C 0.996094 56.582031 1.824219 55.761719 2.839844 55.761719 C 3.855469 55.761719 4.679688 56.582031 4.679688 57.601562 C 4.679688 58.617188 3.855469 59.441406 2.839844 59.441406 Z M 27.546875 55.09375 C 26.429688 55.09375 25.480469 55.828125 25.15625 56.839844 L 5.226562 56.839844 C 4.90625 55.828125 3.960938 55.09375 2.839844 55.09375 C 1.453125 55.09375 0.332031 56.214844 0.332031 57.601562 C 0.332031 58.984375 1.453125 60.105469 2.839844 60.105469 C 3.960938 60.105469 4.90625 59.371094 5.226562 58.359375 L 25.15625 58.359375 C 25.480469 59.371094 26.429688 60.105469 27.546875 60.105469 C 28.929688 60.105469 30.054688 58.984375 30.054688 57.601562 C 30.054688 56.214844 28.929688 55.09375 27.546875 55.09375 " fill-opacity="1" fill-rule="nonzero"/><path fill="#52afe6" d="M 67.730469 181.675781 C 67.183594 181.132812 67.183594 180.25 67.730469 179.707031 C 68.273438 179.164062 69.152344 179.164062 69.695312 179.707031 C 70.242188 180.25 70.242188 181.132812 69.695312 181.675781 C 69.152344 182.21875 68.273438 182.21875 67.730469 181.675781 Z M 54.523438 168.46875 C 53.976562 167.925781 53.976562 167.046875 54.523438 166.503906 C 55.066406 165.957031 55.945312 165.957031 56.488281 166.503906 C 57.03125 167.046875 57.03125 167.925781 56.488281 168.46875 C 55.945312 169.011719 55.066406 169.011719 54.523438 168.46875 Z M 70.054688 179.351562 C 69.453125 178.753906 68.554688 178.636719 67.84375 179.007812 L 67.8125 178.980469 L 57.1875 168.355469 C 57.558594 167.644531 57.445312 166.746094 56.847656 166.144531 C 56.105469 165.40625 54.90625 165.40625 54.164062 166.144531 C 53.425781 166.886719 53.425781 168.085938 54.164062 168.824219 C 54.765625 169.425781 55.664062 169.539062 56.378906 169.167969 L 56.40625 169.195312 L 67.03125 179.816406 C 66.660156 180.53125 66.773438 181.429688 67.375 182.03125 C 68.113281 182.769531 69.3125 182.769531 70.054688 182.03125 C 70.792969 181.289062 70.792969 180.089844 70.054688 179.351562 " fill-opacity="1" fill-rule="nonzero"/><path fill="#52afe6" d="M 42.789062 140.9375 C 41.785156 140.9375 40.972656 140.125 40.972656 139.117188 C 40.972656 138.113281 41.785156 137.300781 42.789062 137.300781 C 43.796875 137.300781 44.609375 138.117188 44.609375 139.117188 C 44.609375 140.125 43.796875 140.9375 42.789062 140.9375 Z M 18.378906 140.9375 C 17.375 140.9375 16.558594 140.121094 16.558594 139.117188 C 16.558594 138.113281 17.375 137.300781 18.378906 137.300781 C 19.382812 137.300781 20.199219 138.113281 20.199219 139.117188 C 20.199219 140.125 19.382812 140.9375 18.378906 140.9375 Z M 42.789062 136.644531 C 41.683594 136.644531 40.746094 137.367188 40.429688 138.367188 L 20.738281 138.367188 C 20.421875 137.367188 19.484375 136.644531 18.378906 136.640625 C 17.007812 136.644531 15.902344 137.75 15.902344 139.117188 C 15.902344 140.484375 17.011719 141.59375 18.378906 141.59375 C 19.484375 141.59375 20.421875 140.867188 20.738281 139.867188 L 40.429688 139.867188 C 40.746094 140.867188 41.683594 141.59375 42.789062 141.59375 C 44.160156 141.59375 45.269531 140.488281 45.269531 139.117188 C 45.269531 137.75 44.160156 136.644531 42.789062 136.644531 " fill-opacity="1" fill-rule="nonzero"/><path fill="#52afe6" d="M 190.570312 67.632812 C 188.996094 67.632812 187.722656 66.355469 187.722656 64.785156 C 187.722656 63.210938 188.996094 61.9375 190.570312 61.9375 C 192.144531 61.9375 193.417969 63.210938 193.417969 64.785156 C 193.417969 66.355469 192.144531 67.632812 190.570312 67.632812 Z M 190.570312 60.90625 C 188.839844 60.90625 187.371094 62.042969 186.875 63.609375 L 156.128906 63.609375 L 156.128906 65.953125 L 186.875 65.953125 C 187.371094 67.523438 188.839844 68.660156 190.570312 68.660156 C 192.710938 68.660156 194.449219 66.925781 194.449219 64.785156 C 194.449219 62.640625 192.710938 60.90625 190.570312 60.90625 " fill-opacity="1" fill-rule="nonzero"/><path fill="#52afe6" d="M 183.480469 50.953125 C 182.183594 50.953125 181.132812 49.898438 181.132812 48.605469 C 181.132812 47.308594 182.183594 46.257812 183.480469 46.257812 C 184.777344 46.257812 185.828125 47.308594 185.828125 48.605469 C 185.828125 49.898438 184.777344 50.953125 183.480469 50.953125 Z M 183.480469 45.40625 C 182.050781 45.40625 180.84375 46.34375 180.433594 47.636719 L 155.085938 47.636719 L 155.085938 49.570312 L 180.433594 49.570312 C 180.84375 50.863281 182.050781 51.800781 183.480469 51.800781 C 185.246094 51.800781 186.675781 50.367188 186.675781 48.605469 C 186.675781 46.839844 185.246094 45.40625 183.480469 45.40625 " fill-opacity="1" fill-rule="nonzero"/><path fill="#52afe6" d="M 136.433594 188.03125 C 136.433594 186.859375 137.386719 185.910156 138.558594 185.910156 C 139.726562 185.910156 140.675781 186.859375 140.675781 188.03125 C 140.675781 189.203125 139.726562 190.152344 138.558594 190.152344 C 137.386719 190.152344 136.433594 189.203125 136.433594 188.03125 Z M 141.441406 188.03125 C 141.441406 186.742188 140.597656 185.648438 139.429688 185.28125 L 139.429688 162.382812 L 137.679688 162.382812 L 137.679688 185.28125 C 136.515625 185.648438 135.667969 186.742188 135.667969 188.03125 C 135.667969 189.625 136.960938 190.917969 138.558594 190.917969 C 140.148438 190.917969 141.441406 189.625 141.441406 188.03125 " fill-opacity="1" fill-rule="nonzero"/><path fill="#52afe6" d="M 190.570312 101.054688 C 188.996094 101.054688 187.722656 99.777344 187.722656 98.207031 C 187.722656 96.636719 188.996094 95.359375 190.570312 95.359375 C 192.144531 95.359375 193.417969 96.636719 193.417969 98.207031 C 193.417969 99.777344 192.144531 101.054688 190.570312 101.054688 Z M 190.570312 94.332031 C 188.839844 94.332031 187.371094 95.464844 186.875 97.035156 L 156.128906 97.035156 L 156.128906 99.378906 L 186.875 99.378906 C 187.371094 100.949219 188.839844 102.082031 190.570312 102.082031 C 192.710938 102.082031 194.449219 100.347656 194.449219 98.207031 C 194.449219 96.066406 192.710938 94.332031 190.570312 94.332031 " fill-opacity="1" fill-rule="nonzero"/><path fill="#52afe6" d="M 176.183594 86.460938 C 175.199219 86.460938 174.402344 85.664062 174.402344 84.679688 C 174.402344 83.695312 175.199219 82.894531 176.183594 82.894531 C 177.167969 82.894531 177.96875 83.695312 177.96875 84.679688 C 177.96875 85.664062 177.167969 86.460938 176.183594 86.460938 Z M 176.183594 82.085938 C 174.753906 82.085938 173.59375 83.246094 173.59375 84.679688 C 173.59375 85.792969 174.300781 86.734375 175.289062 87.101562 L 175.289062 97.359375 L 177.078125 97.359375 L 177.078125 87.101562 C 178.066406 86.734375 178.773438 85.792969 178.773438 84.679688 C 178.773438 83.246094 177.613281 82.085938 176.183594 82.085938 " fill-opacity="1" fill-rule="nonzero"/><path fill="#52afe6" d="M 183.441406 41.585938 C 181.871094 41.585938 180.59375 40.308594 180.59375 38.738281 C 180.59375 37.167969 181.871094 35.890625 183.441406 35.890625 C 185.015625 35.890625 186.289062 37.167969 186.289062 38.738281 C 186.289062 40.308594 185.015625 41.585938 183.441406 41.585938 Z M 183.441406 34.863281 C 181.707031 34.863281 180.242188 35.996094 179.742188 37.566406 L 149.003906 37.566406 L 149.003906 39.910156 L 179.742188 39.910156 C 180.242188 41.480469 181.707031 42.617188 183.441406 42.617188 C 185.582031 42.617188 187.320312 40.878906 187.320312 38.738281 C 187.320312 36.597656 185.582031 34.863281 183.441406 34.863281 " fill-opacity="1" fill-rule="nonzero"/><path fill="#52afe6" d="M 169.054688 26.992188 C 168.070312 26.992188 167.273438 26.195312 167.273438 25.210938 C 167.273438 24.226562 168.070312 23.429688 169.054688 23.429688 C 170.039062 23.429688 170.839844 24.226562 170.839844 25.210938 C 170.839844 26.195312 170.039062 26.992188 169.054688 26.992188 Z M 169.054688 22.621094 C 167.625 22.621094 166.464844 23.777344 166.464844 25.210938 C 166.464844 26.324219 167.171875 27.269531 168.160156 27.632812 L 168.160156 37.890625 L 169.949219 37.890625 L 169.949219 27.632812 C 170.9375 27.269531 171.644531 26.324219 171.644531 25.210938 C 171.644531 23.777344 170.484375 22.621094 169.054688 22.621094 " fill-opacity="1" fill-rule="nonzero"/><path fill="#52afe6" d="M 176.183594 114.273438 C 175.476562 114.273438 174.902344 113.703125 174.902344 112.992188 C 174.902344 112.285156 175.476562 111.710938 176.183594 111.710938 C 176.890625 111.710938 177.464844 112.285156 177.464844 112.992188 C 177.464844 113.703125 176.890625 114.273438 176.183594 114.273438 Z M 176.183594 111.132812 C 175.15625 111.132812 174.320312 111.964844 174.320312 112.992188 C 174.320312 113.792969 174.832031 114.472656 175.539062 114.734375 L 175.539062 122.109375 L 176.824219 122.109375 L 176.824219 114.734375 C 177.539062 114.472656 178.046875 113.792969 178.046875 112.992188 C 178.046875 111.964844 177.210938 111.132812 176.183594 111.132812 " fill-opacity="1" fill-rule="nonzero"/><path fill="#52afe6" d="M 169.019531 129.589844 C 169.726562 129.589844 170.300781 130.164062 170.300781 130.871094 C 170.300781 131.578125 169.726562 132.152344 169.019531 132.152344 C 168.3125 132.152344 167.734375 131.578125 167.734375 130.871094 C 167.734375 130.164062 168.3125 129.589844 169.019531 129.589844 Z M 169.019531 132.730469 C 170.046875 132.730469 170.878906 131.898438 170.878906 130.871094 C 170.878906 130.070312 170.371094 129.394531 169.660156 129.128906 L 169.660156 121.753906 L 168.375 121.753906 L 168.375 129.128906 C 167.664062 129.394531 167.15625 130.070312 167.15625 130.871094 C 167.15625 131.898438 167.988281 132.730469 169.019531 132.730469 " fill-opacity="1" fill-rule="nonzero"/><path fill="#52afe6" d="M 177.679688 78.390625 C 176.699219 78.390625 175.898438 77.59375 175.898438 76.609375 C 175.898438 75.625 176.699219 74.828125 177.679688 74.828125 C 178.667969 74.828125 179.464844 75.625 179.464844 76.609375 C 179.464844 77.59375 178.667969 78.390625 177.679688 78.390625 Z M 177.679688 74.183594 C 176.597656 74.183594 175.679688 74.894531 175.367188 75.875 L 156.128906 75.875 L 156.128906 77.34375 L 175.367188 77.34375 C 175.679688 78.324219 176.597656 79.035156 177.679688 79.035156 C 179.023438 79.035156 180.109375 77.949219 180.109375 76.609375 C 180.109375 75.269531 179.023438 74.183594 177.679688 74.183594 " fill-opacity="1" fill-rule="nonzero"/><path fill="#52afe6" d="M 193.046875 48.109375 C 192.066406 48.109375 191.269531 47.3125 191.269531 46.332031 C 191.269531 45.351562 192.066406 44.554688 193.046875 44.554688 C 194.03125 44.554688 194.828125 45.351562 194.828125 46.332031 C 194.828125 47.3125 194.03125 48.109375 193.046875 48.109375 Z M 193.046875 43.503906 C 191.488281 43.503906 190.222656 44.769531 190.222656 46.332031 C 190.222656 47.367188 190.777344 48.265625 191.601562 48.757812 L 185.617188 56.144531 L 156.492188 56.144531 L 156.492188 57.601562 L 185.617188 57.601562 L 193.226562 49.152344 C 194.707031 49.058594 195.875 47.835938 195.875 46.332031 C 195.875 44.769531 194.609375 43.503906 193.046875 43.503906 " fill-opacity="1" fill-rule="nonzero"/><path fill="#52afe6" d="M 164.121094 146.703125 C 163.140625 146.703125 162.34375 145.90625 162.34375 144.925781 C 162.34375 143.941406 163.140625 143.148438 164.121094 143.148438 C 165.105469 143.148438 165.898438 143.941406 165.898438 144.925781 C 165.898438 145.90625 165.105469 146.703125 164.121094 146.703125 Z M 164.121094 142.097656 C 162.5625 142.097656 161.292969 143.363281 161.292969 144.925781 C 161.292969 145.957031 161.847656 146.859375 162.675781 147.351562 L 156.6875 154.738281 L 127.566406 154.738281 L 127.566406 156.191406 L 156.6875 156.191406 L 164.300781 147.746094 C 165.777344 147.652344 166.949219 146.425781 166.949219 144.925781 C 166.949219 143.363281 165.683594 142.097656 164.121094 142.097656 " fill-opacity="1" fill-rule="nonzero"/><g clip-path="url(#id3)"><path fill="#52afe6" d="M 126.226562 197.21875 C 126.226562 196.238281 127.019531 195.441406 128.003906 195.441406 C 128.984375 195.441406 129.78125 196.238281 129.78125 197.21875 C 129.78125 198.199219 128.984375 198.996094 128.003906 198.996094 C 127.019531 198.996094 126.226562 198.199219 126.226562 197.21875 Z M 130.832031 197.21875 C 130.832031 195.660156 129.566406 194.394531 128.003906 194.394531 C 126.96875 194.394531 126.070312 194.949219 125.574219 195.773438 L 118.1875 189.789062 L 118.1875 160.671875 L 116.730469 160.671875 L 116.730469 189.789062 L 125.183594 197.398438 C 125.277344 198.875 126.503906 200.046875 128.003906 200.046875 C 129.566406 200.046875 130.832031 198.78125 130.832031 197.21875 " fill-opacity="1" fill-rule="nonzero"/></g><path fill="#52afe6" d="M 194.828125 116.617188 C 194.828125 117.601562 194.03125 118.394531 193.046875 118.394531 C 192.066406 118.394531 191.269531 117.601562 191.269531 116.617188 C 191.269531 115.636719 192.066406 114.839844 193.046875 114.839844 C 194.03125 114.839844 194.828125 115.636719 194.828125 116.617188 Z M 195.875 116.617188 C 195.875 115.117188 194.707031 113.890625 193.226562 113.800781 L 185.617188 105.351562 L 156.492188 105.351562 L 156.492188 106.804688 L 185.617188 106.804688 L 191.601562 114.191406 C 190.777344 114.683594 190.222656 115.585938 190.222656 116.617188 C 190.222656 118.179688 191.488281 119.445312 193.046875 119.445312 C 194.609375 119.445312 195.875 118.179688 195.875 116.617188 " fill-opacity="1" fill-rule="nonzero"/><path fill="#52afe6" d="M 190.222656 132.53125 C 190.222656 133.511719 189.425781 134.308594 188.441406 134.308594 C 187.460938 134.308594 186.664062 133.511719 186.664062 132.53125 C 186.664062 131.550781 187.460938 130.753906 188.441406 130.753906 C 189.425781 130.753906 190.222656 131.550781 190.222656 132.53125 Z M 191.269531 132.53125 C 191.269531 131.027344 190.097656 129.804688 188.621094 129.710938 L 181.011719 121.261719 L 151.886719 121.261719 L 151.886719 122.71875 L 181.011719 122.71875 L 186.996094 130.105469 C 186.171875 130.597656 185.617188 131.496094 185.617188 132.53125 C 185.617188 134.09375 186.882812 135.359375 188.441406 135.359375 C 190.003906 135.359375 191.269531 134.09375 191.269531 132.53125 " fill-opacity="1" fill-rule="nonzero"/><path fill="#52afe6" d="M 163.917969 131.285156 C 163.207031 131.285156 162.632812 130.710938 162.632812 130 C 162.632812 129.292969 163.207031 128.71875 163.917969 128.71875 C 164.625 128.71875 165.199219 129.292969 165.199219 130 C 165.199219 130.710938 164.625 131.285156 163.917969 131.285156 Z M 163.917969 128.136719 C 162.886719 128.136719 162.054688 128.972656 162.054688 130 C 162.054688 130.804688 162.5625 131.480469 163.273438 131.746094 L 163.273438 139.117188 L 164.558594 139.117188 L 164.558594 131.746094 C 165.269531 131.480469 165.777344 130.804688 165.777344 130 C 165.777344 128.972656 164.945312 128.136719 163.917969 128.136719 " fill-opacity="1" fill-rule="nonzero"/><path fill="#52afe6" d="M 156.753906 146.59375 C 157.460938 146.59375 158.035156 147.171875 158.035156 147.878906 C 158.035156 148.585938 157.460938 149.160156 156.753906 149.160156 C 156.042969 149.160156 155.46875 148.585938 155.46875 147.878906 C 155.46875 147.171875 156.042969 146.59375 156.753906 146.59375 Z M 156.753906 149.742188 C 157.78125 149.742188 158.613281 148.90625 158.613281 147.878906 C 158.613281 147.074219 158.101562 146.398438 157.394531 146.136719 L 157.394531 138.761719 L 156.109375 138.761719 L 156.109375 146.136719 C 155.398438 146.398438 154.890625 147.074219 154.890625 147.878906 C 154.890625 148.90625 155.722656 149.742188 156.753906 149.742188 " fill-opacity="1" fill-rule="nonzero"/><path fill="#52afe6" d="M 129.671875 177.691406 C 129.671875 176.566406 130.582031 175.65625 131.707031 175.65625 C 132.832031 175.65625 133.746094 176.566406 133.746094 177.691406 C 133.746094 178.816406 132.832031 179.726562 131.707031 179.726562 C 130.582031 179.726562 129.671875 178.816406 129.671875 177.691406 Z M 134.667969 177.691406 C 134.667969 176.058594 133.34375 174.734375 131.707031 174.734375 C 130.433594 174.734375 129.355469 175.542969 128.9375 176.667969 L 117.21875 176.667969 L 117.21875 178.714844 L 128.9375 178.714844 C 129.355469 179.84375 130.433594 180.652344 131.707031 180.652344 C 133.34375 180.652344 134.667969 179.328125 134.667969 177.691406 " fill-opacity="1" fill-rule="nonzero"/><path fill="#52afe6" d="M 177.953125 149.539062 C 177.953125 150.519531 177.160156 151.316406 176.175781 151.316406 C 175.195312 151.316406 174.398438 150.519531 174.398438 149.539062 C 174.398438 148.558594 175.195312 147.761719 176.175781 147.761719 C 177.160156 147.761719 177.953125 148.558594 177.953125 149.539062 Z M 179.003906 149.539062 C 179.003906 148.035156 177.832031 146.8125 176.351562 146.722656 L 168.742188 138.269531 L 139.617188 138.269531 L 139.617188 139.722656 L 168.742188 139.722656 L 174.730469 147.113281 C 173.902344 147.605469 173.347656 148.503906 173.347656 149.539062 C 173.347656 151.097656 174.617188 152.363281 176.175781 152.363281 C 177.738281 152.363281 179.003906 151.097656 179.003906 149.539062 " fill-opacity="1" fill-rule="nonzero"/><path fill="#52afe6" d="M 148.007812 165.230469 C 146.4375 165.230469 145.160156 163.957031 145.160156 162.382812 C 145.160156 160.8125 146.4375 159.539062 148.007812 159.539062 C 149.582031 159.539062 150.855469 160.8125 150.855469 162.382812 C 150.855469 163.957031 149.582031 165.230469 148.007812 165.230469 Z M 148.007812 158.507812 C 146.273438 158.507812 144.808594 159.644531 144.3125 161.214844 L 113.570312 161.214844 L 113.570312 163.558594 L 144.3125 163.558594 C 144.808594 165.125 146.273438 166.261719 148.007812 166.261719 C 150.152344 166.261719 151.886719 164.527344 151.886719 162.382812 C 151.886719 160.242188 150.152344 158.507812 148.007812 158.507812 " fill-opacity="1" fill-rule="nonzero"/><path fill="#52afe6" d="M 158.054688 161.015625 C 158.054688 160 158.878906 159.171875 159.894531 159.171875 C 160.910156 159.171875 161.738281 160 161.738281 161.015625 C 161.738281 162.03125 160.910156 162.855469 159.894531 162.855469 C 158.878906 162.855469 158.054688 162.03125 158.054688 161.015625 Z M 182.761719 161.015625 C 182.761719 160 183.585938 159.171875 184.605469 159.171875 C 185.621094 159.171875 186.445312 160 186.445312 161.015625 C 186.445312 162.03125 185.621094 162.855469 184.605469 162.855469 C 183.585938 162.855469 182.761719 162.03125 182.761719 161.015625 Z M 157.386719 161.015625 C 157.386719 162.398438 158.507812 163.523438 159.894531 163.523438 C 161.015625 163.523438 161.964844 162.785156 162.285156 161.773438 L 182.214844 161.773438 C 182.535156 162.785156 183.484375 163.523438 184.605469 163.523438 C 185.988281 163.523438 187.113281 162.398438 187.113281 161.015625 C 187.113281 159.632812 185.988281 158.507812 184.605469 158.507812 C 183.484375 158.507812 182.535156 159.242188 182.214844 160.257812 L 162.285156 160.257812 C 161.964844 159.242188 161.015625 158.507812 159.894531 158.507812 C 158.507812 158.507812 157.386719 159.632812 157.386719 161.015625 " fill-opacity="1" fill-rule="nonzero"/><path fill="#52afe6" d="M 168.394531 80.652344 C 168.394531 79.636719 169.21875 78.8125 170.238281 78.8125 C 171.253906 78.8125 172.078125 79.636719 172.078125 80.652344 C 172.078125 81.667969 171.253906 82.492188 170.238281 82.492188 C 169.21875 82.492188 168.394531 81.667969 168.394531 80.652344 Z M 193.105469 80.652344 C 193.105469 79.636719 193.929688 78.8125 194.945312 78.8125 C 195.960938 78.8125 196.785156 79.636719 196.785156 80.652344 C 196.785156 81.667969 195.960938 82.492188 194.945312 82.492188 C 193.929688 82.492188 193.105469 81.667969 193.105469 80.652344 Z M 167.730469 80.652344 C 167.730469 82.039062 168.851562 83.160156 170.238281 83.160156 C 171.355469 83.160156 172.304688 82.425781 172.625 81.410156 L 192.554688 81.410156 C 192.878906 82.425781 193.824219 83.160156 194.945312 83.160156 C 196.328125 83.160156 197.453125 82.039062 197.453125 80.652344 C 197.453125 79.269531 196.328125 78.144531 194.945312 78.144531 C 193.824219 78.144531 192.878906 78.882812 192.554688 79.894531 L 172.625 79.894531 C 172.304688 78.882812 171.355469 78.144531 170.238281 78.144531 C 168.851562 78.144531 167.730469 79.269531 167.730469 80.652344 " fill-opacity="1" fill-rule="nonzero"/><path fill="#52afe6" d="M 177.074219 70.875 C 177.074219 69.859375 177.902344 69.035156 178.914062 69.035156 C 179.933594 69.035156 180.757812 69.859375 180.757812 70.875 C 180.757812 71.890625 179.933594 72.714844 178.914062 72.714844 C 177.902344 72.714844 177.074219 71.890625 177.074219 70.875 Z M 201.785156 70.875 C 201.785156 69.859375 202.609375 69.035156 203.625 69.035156 C 204.644531 69.035156 205.46875 69.859375 205.46875 70.875 C 205.46875 71.890625 204.644531 72.714844 203.625 72.714844 C 202.609375 72.714844 201.785156 71.890625 201.785156 70.875 Z M 176.410156 70.875 C 176.410156 72.261719 177.53125 73.382812 178.914062 73.382812 C 180.035156 73.382812 180.984375 72.644531 181.304688 71.632812 L 201.234375 71.632812 C 201.558594 72.644531 202.507812 73.382812 203.625 73.382812 C 205.007812 73.382812 206.132812 72.261719 206.132812 70.875 C 206.132812 69.492188 205.007812 68.371094 203.625 68.371094 C 202.507812 68.371094 201.558594 69.101562 201.234375 70.117188 L 181.304688 70.117188 C 180.984375 69.101562 180.035156 68.371094 178.914062 68.371094 C 177.53125 68.371094 176.410156 69.492188 176.410156 70.875 " fill-opacity="1" fill-rule="nonzero"/><path fill="#52afe6" d="M 143.789062 14.371094 C 144.507812 13.652344 145.675781 13.652344 146.394531 14.371094 C 147.113281 15.089844 147.113281 16.253906 146.394531 16.972656 C 145.675781 17.691406 144.511719 17.691406 143.789062 16.972656 C 143.074219 16.253906 143.074219 15.089844 143.789062 14.371094 Z M 161.261719 31.839844 C 161.980469 31.117188 163.148438 31.121094 163.867188 31.839844 C 164.585938 32.558594 164.585938 33.722656 163.867188 34.441406 C 163.148438 35.160156 161.980469 35.160156 161.261719 34.441406 C 160.546875 33.722656 160.546875 32.558594 161.261719 31.839844 Z M 143.320312 13.898438 C 142.339844 14.878906 142.34375 16.464844 143.320312 17.445312 C 144.113281 18.234375 145.300781 18.386719 146.25 17.898438 L 160.300781 31.949219 L 160.300781 31.945312 L 160.339844 31.988281 C 159.851562 32.933594 160 34.121094 160.792969 34.914062 C 161.769531 35.890625 163.359375 35.890625 164.339844 34.914062 C 165.316406 33.933594 165.316406 32.347656 164.339844 31.367188 C 163.546875 30.574219 162.355469 30.425781 161.410156 30.914062 L 147.320312 16.824219 C 147.808594 15.882812 147.65625 14.691406 146.867188 13.898438 C 145.886719 12.917969 144.300781 12.917969 143.320312 13.898438 " fill-opacity="1" fill-rule="nonzero"/><g clip-path="url(#id4)"><path fill="#52afe6" d="M 161.09375 11.125 C 161.8125 10.40625 162.976562 10.40625 163.695312 11.125 C 164.417969 11.84375 164.417969 13.007812 163.695312 13.726562 C 162.976562 14.449219 161.8125 14.449219 161.09375 13.726562 C 160.375 13.007812 160.375 11.84375 161.09375 11.125 Z M 178.566406 28.59375 C 179.285156 27.875 180.449219 27.875 181.167969 28.59375 C 181.886719 29.3125 181.886719 30.480469 181.167969 31.195312 C 180.449219 31.914062 179.285156 31.917969 178.566406 31.195312 C 177.847656 30.480469 177.847656 29.3125 178.566406 28.59375 Z M 160.621094 10.65625 C 159.644531 11.632812 159.644531 13.21875 160.621094 14.199219 C 161.414062 14.992188 162.601562 15.144531 163.546875 14.652344 L 177.640625 28.742188 C 177.152344 29.6875 177.300781 30.875 178.09375 31.667969 C 179.074219 32.648438 180.660156 32.648438 181.640625 31.667969 C 182.617188 30.691406 182.617188 29.101562 181.640625 28.121094 C 180.847656 27.332031 179.65625 27.179688 178.714844 27.671875 L 164.621094 13.582031 C 165.109375 12.636719 164.960938 11.449219 164.167969 10.65625 C 163.1875 9.675781 161.601562 9.675781 160.621094 10.65625 " fill-opacity="1" fill-rule="nonzero"/></g><g clip-path="url(#id5)"><path fill="#52afe6" d="M 189.472656 57.601562 C 189.472656 56.582031 190.296875 55.761719 191.3125 55.761719 C 192.332031 55.761719 193.152344 56.582031 193.152344 57.601562 C 193.152344 58.617188 192.332031 59.441406 191.3125 59.441406 C 190.296875 59.441406 189.472656 58.617188 189.472656 57.601562 Z M 214.179688 57.601562 C 214.179688 56.582031 215.003906 55.761719 216.023438 55.761719 C 217.039062 55.761719 217.863281 56.582031 217.863281 57.601562 C 217.863281 58.617188 217.039062 59.441406 216.023438 59.441406 C 215.003906 59.441406 214.179688 58.617188 214.179688 57.601562 Z M 188.804688 57.601562 C 188.804688 58.984375 189.929688 60.105469 191.3125 60.105469 C 192.433594 60.105469 193.382812 59.371094 193.703125 58.359375 L 213.632812 58.359375 C 213.953125 59.371094 214.898438 60.105469 216.023438 60.105469 C 217.40625 60.105469 218.53125 58.984375 218.53125 57.601562 C 218.53125 56.214844 217.40625 55.09375 216.023438 55.09375 C 214.902344 55.09375 213.953125 55.828125 213.632812 56.839844 L 193.703125 56.839844 C 193.382812 55.828125 192.433594 55.09375 191.3125 55.09375 C 189.925781 55.09375 188.804688 56.214844 188.804688 57.601562 " fill-opacity="1" fill-rule="nonzero"/></g><path fill="#52afe6" d="M 149.164062 181.675781 C 148.621094 181.132812 148.621094 180.25 149.164062 179.707031 C 149.707031 179.164062 150.589844 179.164062 151.132812 179.707031 C 151.675781 180.25 151.675781 181.132812 151.132812 181.675781 C 150.589844 182.21875 149.707031 182.21875 149.164062 181.675781 Z M 162.371094 168.46875 C 161.828125 167.925781 161.828125 167.046875 162.371094 166.503906 C 162.914062 165.957031 163.796875 165.957031 164.339844 166.503906 C 164.882812 167.046875 164.882812 167.925781 164.339844 168.46875 C 163.796875 169.011719 162.914062 169.011719 162.371094 168.46875 Z M 148.808594 182.03125 C 149.546875 182.769531 150.75 182.769531 151.488281 182.03125 C 152.085938 181.429688 152.199219 180.53125 151.832031 179.816406 L 162.480469 169.167969 C 163.195312 169.539062 164.097656 169.425781 164.695312 168.824219 C 165.433594 168.085938 165.433594 166.886719 164.695312 166.144531 C 163.953125 165.40625 162.753906 165.40625 162.015625 166.144531 C 161.417969 166.746094 161.300781 167.644531 161.671875 168.355469 L 151.050781 178.980469 L 151.019531 179.007812 C 150.304688 178.636719 149.40625 178.753906 148.808594 179.351562 C 148.070312 180.089844 148.070312 181.289062 148.808594 182.03125 " fill-opacity="1" fill-rule="nonzero"/><path fill="#52afe6" d="M 174.25 139.117188 C 174.25 138.117188 175.0625 137.300781 176.070312 137.300781 C 177.074219 137.300781 177.886719 138.113281 177.886719 139.117188 C 177.886719 140.125 177.074219 140.9375 176.070312 140.9375 C 175.0625 140.9375 174.25 140.125 174.25 139.117188 Z M 198.660156 139.117188 C 198.660156 138.113281 199.480469 137.300781 200.480469 137.300781 C 201.484375 137.300781 202.300781 138.113281 202.300781 139.117188 C 202.300781 140.121094 201.484375 140.9375 200.480469 140.9375 C 199.480469 140.9375 198.660156 140.125 198.660156 139.117188 Z M 173.59375 139.117188 C 173.59375 140.488281 174.699219 141.59375 176.070312 141.59375 C 177.175781 141.59375 178.113281 140.867188 178.429688 139.867188 L 198.121094 139.867188 C 198.441406 140.867188 199.375 141.59375 200.480469 141.59375 C 201.847656 141.59375 202.960938 140.484375 202.960938 139.117188 C 202.960938 137.75 201.847656 136.644531 200.480469 136.640625 C 199.375 136.644531 198.4375 137.367188 198.121094 138.367188 L 178.429688 138.367188 C 178.113281 137.367188 177.175781 136.644531 176.070312 136.644531 C 174.699219 136.644531 173.59375 137.75 173.59375 139.117188 " fill-opacity="1" fill-rule="nonzero"/><path fill="#409bce" d="M 154.632812 106.558594 C 151.835938 140.222656 109.429688 161.746094 109.429688 161.746094 C 109.429688 161.746094 67.023438 140.222656 64.230469 106.558594 C 61.4375 72.894531 67.023438 43.234375 67.023438 43.234375 L 109.429688 23.667969 L 151.835938 43.234375 C 151.835938 43.234375 157.425781 72.894531 154.632812 106.558594 Z M 156.464844 37.835938 L 109.429688 16.132812 L 62.398438 37.835938 C 62.398438 37.835938 56.199219 70.734375 59.296875 108.070312 C 62.398438 145.40625 109.429688 169.28125 109.429688 169.28125 C 109.429688 169.28125 156.464844 145.40625 159.5625 108.070312 C 162.664062 70.734375 156.464844 37.835938 156.464844 37.835938 " fill-opacity="1" fill-rule="nonzero"/><path fill="#52afe6" d="M 128.457031 86.015625 C 128.457031 75.507812 119.9375 66.992188 109.429688 66.992188 C 98.921875 66.992188 90.402344 75.507812 90.402344 86.015625 C 90.402344 93.691406 94.960938 100.289062 101.507812 103.296875 L 101.507812 118.417969 L 117.355469 118.417969 L 117.355469 103.296875 C 123.902344 100.289062 128.457031 93.691406 128.457031 86.015625 " fill-opacity="1" fill-rule="nonzero"/><path fill="#409bce" d="M 124.921875 89.359375 C 124.921875 81.328125 118.414062 74.820312 110.382812 74.820312 C 102.351562 74.820312 95.839844 81.328125 95.839844 89.359375 C 95.839844 95.226562 99.320312 100.269531 104.328125 102.566406 L 104.328125 114.121094 L 116.4375 114.121094 L 116.4375 102.566406 C 121.441406 100.269531 124.921875 95.226562 124.921875 89.359375 " fill-opacity="1" fill-rule="nonzero"/></svg>