<svg xmlns="http://www.w3.org/2000/svg" xmlns:xlink="http://www.w3.org/1999/xlink" width="500" zoomAndPan="magnify" viewBox="0 0 375 374.999991" height="500" preserveAspectRatio="xMidYMid meet" version="1.0"><defs><clipPath id="id1"><path d="M 150 283 L 175 283 L 175 350.625 L 150 350.625 Z M 150 283 " clip-rule="nonzero"/></clipPath><clipPath id="id2"><path d="M 62 24.375 L 102 24.375 L 102 64 L 62 64 Z M 62 24.375 " clip-rule="nonzero"/></clipPath><clipPath id="id3"><path d="M 200 283 L 225 283 L 225 350.625 L 200 350.625 Z M 200 283 " clip-rule="nonzero"/></clipPath><clipPath id="id4"><path d="M 273 24.375 L 313 24.375 L 313 64 L 273 64 Z M 273 24.375 " clip-rule="nonzero"/></clipPath></defs><path fill="#52afe6" d="M 43.597656 118.804688 C 43.597656 116.109375 45.78125 113.925781 48.476562 113.925781 C 51.167969 113.925781 53.355469 116.109375 53.355469 118.804688 C 53.355469 121.5 51.167969 123.683594 48.476562 123.683594 C 45.78125 123.683594 43.597656 121.5 43.597656 118.804688 Z M 41.832031 118.804688 C 41.832031 122.472656 44.804688 125.449219 48.476562 125.449219 C 51.445312 125.449219 53.957031 123.5 54.8125 120.8125 L 107.484375 120.8125 L 107.484375 116.792969 L 54.8125 116.792969 C 53.957031 114.109375 51.445312 112.160156 48.476562 112.160156 C 44.804688 112.160156 41.832031 115.136719 41.832031 118.804688 " fill-opacity="1" fill-rule="nonzero"/><path fill="#52afe6" d="M 56.601562 91.078125 C 56.601562 88.855469 58.402344 87.054688 60.625 87.054688 C 62.84375 87.054688 64.648438 88.855469 64.648438 91.078125 C 64.648438 93.296875 62.84375 95.101562 60.625 95.101562 C 58.402344 95.101562 56.601562 93.296875 56.601562 91.078125 Z M 55.144531 91.078125 C 55.144531 94.101562 57.597656 96.554688 60.625 96.554688 C 63.070312 96.554688 65.144531 94.953125 65.847656 92.734375 L 109.277344 92.734375 L 109.277344 89.421875 L 65.847656 89.421875 C 65.144531 87.207031 63.070312 85.597656 60.625 85.597656 C 57.597656 85.597656 55.144531 88.050781 55.144531 91.078125 " fill-opacity="1" fill-rule="nonzero"/><path fill="#52afe6" d="M 137.59375 333.648438 C 135.585938 333.648438 133.964844 332.023438 133.964844 330.015625 C 133.964844 328.007812 135.585938 326.378906 137.59375 326.378906 C 139.605469 326.378906 141.230469 328.007812 141.230469 330.015625 C 141.230469 332.023438 139.605469 333.648438 137.59375 333.648438 Z M 137.59375 334.964844 C 140.332031 334.964844 142.546875 332.75 142.546875 330.015625 C 142.546875 327.804688 141.09375 325.933594 139.09375 325.300781 L 139.09375 286.0625 L 136.101562 286.0625 L 136.101562 325.300781 C 134.097656 325.933594 132.648438 327.804688 132.648438 330.015625 C 132.648438 332.75 134.863281 334.964844 137.59375 334.964844 " fill-opacity="1" fill-rule="nonzero"/><path fill="#52afe6" d="M 43.597656 176.085938 C 43.597656 173.390625 45.78125 171.203125 48.476562 171.203125 C 51.167969 171.203125 53.355469 173.390625 53.355469 176.085938 C 53.355469 178.777344 51.167969 180.960938 48.476562 180.960938 C 45.78125 180.960938 43.597656 178.777344 43.597656 176.085938 Z M 41.832031 176.085938 C 41.832031 179.753906 44.804688 182.726562 48.476562 182.726562 C 51.445312 182.726562 53.957031 180.78125 54.8125 178.09375 L 107.484375 178.09375 L 107.484375 174.074219 L 54.8125 174.074219 C 53.957031 171.386719 51.445312 169.441406 48.476562 169.441406 C 44.804688 169.441406 41.832031 172.414062 41.832031 176.085938 " fill-opacity="1" fill-rule="nonzero"/><path fill="#52afe6" d="M 70.070312 152.898438 C 70.070312 151.210938 71.4375 149.84375 73.125 149.84375 C 74.8125 149.84375 76.179688 151.210938 76.179688 152.898438 C 76.179688 154.589844 74.8125 155.953125 73.125 155.953125 C 71.4375 155.953125 70.070312 154.589844 70.070312 152.898438 Z M 68.6875 152.898438 C 68.6875 154.8125 69.902344 156.421875 71.59375 157.050781 L 71.59375 174.632812 L 74.65625 174.632812 L 74.65625 157.050781 C 76.351562 156.421875 77.566406 154.8125 77.566406 152.898438 C 77.566406 150.445312 75.578125 148.457031 73.125 148.457031 C 70.675781 148.457031 68.6875 150.445312 68.6875 152.898438 " fill-opacity="1" fill-rule="nonzero"/><path fill="#52afe6" d="M 55.8125 74.175781 C 55.8125 71.476562 57.996094 69.292969 60.691406 69.292969 C 63.386719 69.292969 65.570312 71.476562 65.570312 74.175781 C 65.570312 76.867188 63.386719 79.054688 60.691406 79.054688 C 57.996094 79.054688 55.8125 76.867188 55.8125 74.175781 Z M 54.046875 74.175781 C 54.046875 77.84375 57.023438 80.820312 60.691406 80.820312 C 63.660156 80.820312 66.171875 78.871094 67.023438 76.179688 L 119.699219 76.179688 L 119.699219 72.164062 L 67.023438 72.164062 C 66.171875 69.476562 63.660156 67.527344 60.691406 67.527344 C 57.023438 67.527344 54.046875 70.5 54.046875 74.175781 " fill-opacity="1" fill-rule="nonzero"/><path fill="#52afe6" d="M 82.289062 50.988281 C 82.289062 49.300781 83.652344 47.9375 85.339844 47.9375 C 87.027344 47.9375 88.398438 49.300781 88.398438 50.988281 C 88.398438 52.675781 87.027344 54.046875 85.339844 54.046875 C 83.652344 54.046875 82.289062 52.675781 82.289062 50.988281 Z M 80.898438 50.988281 C 80.898438 52.902344 82.113281 54.515625 83.804688 55.136719 L 83.804688 72.71875 L 86.871094 72.71875 L 86.871094 55.136719 C 88.566406 54.515625 89.777344 52.902344 89.777344 50.988281 C 89.777344 48.535156 87.789062 46.550781 85.339844 46.550781 C 82.886719 46.550781 80.898438 48.535156 80.898438 50.988281 " fill-opacity="1" fill-rule="nonzero"/><path fill="#52afe6" d="M 70.925781 201.421875 C 70.925781 200.210938 71.910156 199.226562 73.125 199.226562 C 74.339844 199.226562 75.324219 200.210938 75.324219 201.421875 C 75.324219 202.636719 74.339844 203.617188 73.125 203.617188 C 71.910156 203.617188 70.925781 202.636719 70.925781 201.421875 Z M 69.933594 201.421875 C 69.933594 202.796875 70.808594 203.957031 72.023438 204.40625 L 72.023438 217.046875 L 74.226562 217.046875 L 74.226562 204.40625 C 75.445312 203.957031 76.316406 202.796875 76.316406 201.421875 C 76.316406 199.660156 74.886719 198.230469 73.125 198.230469 C 71.363281 198.230469 69.933594 199.660156 69.933594 201.421875 " fill-opacity="1" fill-rule="nonzero"/><path fill="#52afe6" d="M 87.597656 232.058594 C 87.597656 233.273438 86.613281 234.257812 85.402344 234.257812 C 84.1875 234.257812 83.203125 233.273438 83.203125 232.058594 C 83.203125 230.84375 84.1875 229.859375 85.402344 229.859375 C 86.613281 229.859375 87.597656 230.84375 87.597656 232.058594 Z M 88.59375 232.058594 C 88.59375 230.683594 87.722656 229.527344 86.507812 229.074219 L 86.507812 216.4375 L 84.296875 216.4375 L 84.296875 229.074219 C 83.082031 229.527344 82.210938 230.683594 82.210938 232.058594 C 82.210938 233.820312 83.640625 235.25 85.402344 235.25 C 87.164062 235.25 88.59375 233.820312 88.59375 232.058594 " fill-opacity="1" fill-rule="nonzero"/><path fill="#52afe6" d="M 67.503906 139.070312 C 67.503906 137.382812 68.875 136.019531 70.558594 136.019531 C 72.246094 136.019531 73.613281 137.382812 73.613281 139.070312 C 73.613281 140.757812 72.246094 142.125 70.558594 142.125 C 68.875 142.125 67.503906 140.757812 67.503906 139.070312 Z M 66.402344 139.070312 C 66.402344 141.367188 68.261719 143.226562 70.558594 143.226562 C 72.417969 143.226562 73.988281 142.007812 74.523438 140.328125 L 107.484375 140.328125 L 107.484375 137.8125 L 74.523438 137.8125 C 73.988281 136.132812 72.417969 134.914062 70.558594 134.914062 C 68.261719 134.914062 66.402344 136.777344 66.402344 139.070312 " fill-opacity="1" fill-rule="nonzero"/><path fill="#52afe6" d="M 41.183594 87.1875 C 41.183594 85.503906 42.546875 84.140625 44.226562 84.140625 C 45.914062 84.140625 47.273438 85.503906 47.273438 87.1875 C 47.273438 88.867188 45.914062 90.234375 44.226562 90.234375 C 42.546875 90.234375 41.183594 88.867188 41.183594 87.1875 Z M 39.382812 87.1875 C 39.382812 89.761719 41.390625 91.859375 43.929688 92.015625 L 56.964844 106.496094 L 106.863281 106.496094 L 106.863281 104.003906 L 56.964844 104.003906 L 46.707031 91.34375 C 48.125 90.5 49.074219 88.957031 49.074219 87.1875 C 49.074219 84.511719 46.90625 82.34375 44.226562 82.34375 C 41.550781 82.34375 39.382812 84.511719 39.382812 87.1875 " fill-opacity="1" fill-rule="nonzero"/><path fill="#52afe6" d="M 90.742188 256.144531 C 90.742188 254.460938 92.109375 253.097656 93.789062 253.097656 C 95.472656 253.097656 96.839844 254.460938 96.839844 256.144531 C 96.839844 257.824219 95.472656 259.191406 93.789062 259.191406 C 92.109375 259.191406 90.742188 257.824219 90.742188 256.144531 Z M 88.949219 256.144531 C 88.949219 258.71875 90.953125 260.816406 93.488281 260.976562 L 106.527344 275.453125 L 156.429688 275.453125 L 156.429688 272.960938 L 106.527344 272.960938 L 96.269531 260.300781 C 97.683594 259.457031 98.636719 257.914062 98.636719 256.144531 C 98.636719 253.46875 96.46875 251.300781 93.789062 251.300781 C 91.117188 251.300781 88.949219 253.46875 88.949219 256.144531 " fill-opacity="1" fill-rule="nonzero"/><g clip-path="url(#id1)"><path fill="#52afe6" d="M 155.675781 348.808594 C 153.996094 348.808594 152.632812 347.441406 152.632812 345.761719 C 152.632812 344.078125 153.996094 342.714844 155.675781 342.714844 C 157.359375 342.714844 158.726562 344.078125 158.726562 345.761719 C 158.726562 347.441406 157.359375 348.808594 155.675781 348.808594 Z M 155.675781 350.605469 C 158.253906 350.605469 160.351562 348.601562 160.507812 346.066406 L 174.988281 333.027344 L 174.988281 283.125 L 172.496094 283.125 L 172.496094 333.027344 L 159.835938 343.285156 C 158.992188 341.871094 157.449219 340.917969 155.675781 340.917969 C 153.003906 340.917969 150.835938 343.085938 150.835938 345.761719 C 150.835938 348.4375 153.003906 350.605469 155.675781 350.605469 " fill-opacity="1" fill-rule="nonzero"/></g><path fill="#52afe6" d="M 44.226562 204.589844 C 45.914062 204.589844 47.273438 205.953125 47.273438 207.632812 C 47.273438 209.316406 45.914062 210.679688 44.226562 210.679688 C 42.546875 210.679688 41.183594 209.316406 41.183594 207.632812 C 41.183594 205.953125 42.546875 204.589844 44.226562 204.589844 Z M 44.226562 212.480469 C 46.90625 212.480469 49.074219 210.308594 49.074219 207.632812 C 49.074219 205.863281 48.125 204.320312 46.707031 203.476562 L 56.964844 190.816406 L 106.863281 190.816406 L 106.863281 188.324219 L 56.964844 188.324219 L 43.929688 202.804688 C 41.390625 202.960938 39.382812 205.0625 39.382812 207.632812 C 39.382812 210.308594 41.550781 212.480469 44.226562 212.480469 " fill-opacity="1" fill-rule="nonzero"/><path fill="#52afe6" d="M 52.117188 231.855469 C 53.800781 231.855469 55.164062 233.222656 55.164062 234.902344 C 55.164062 236.585938 53.800781 237.949219 52.117188 237.949219 C 50.433594 237.949219 49.074219 236.585938 49.074219 234.902344 C 49.074219 233.222656 50.433594 231.855469 52.117188 231.855469 Z M 52.117188 239.746094 C 54.796875 239.746094 56.964844 237.578125 56.964844 234.902344 C 56.964844 233.132812 56.011719 231.589844 54.59375 230.746094 L 64.855469 218.085938 L 114.753906 218.085938 L 114.753906 215.59375 L 64.855469 215.59375 L 51.816406 230.074219 C 49.28125 230.230469 47.273438 232.328125 47.273438 234.902344 C 47.273438 237.578125 49.441406 239.746094 52.117188 239.746094 " fill-opacity="1" fill-rule="nonzero"/><path fill="#52afe6" d="M 91.949219 230.570312 C 91.949219 229.355469 92.933594 228.371094 94.144531 228.371094 C 95.359375 228.371094 96.34375 229.355469 96.34375 230.570312 C 96.34375 231.785156 95.359375 232.769531 94.144531 232.769531 C 92.933594 232.769531 91.949219 231.785156 91.949219 230.570312 Z M 90.953125 230.570312 C 90.953125 231.945312 91.824219 233.101562 93.039062 233.554688 L 93.039062 246.191406 L 95.246094 246.191406 L 95.246094 233.554688 C 96.460938 233.101562 97.335938 231.945312 97.335938 230.570312 C 97.335938 228.808594 95.910156 227.375 94.144531 227.375 C 92.382812 227.375 90.953125 228.808594 90.953125 230.570312 " fill-opacity="1" fill-rule="nonzero"/><path fill="#52afe6" d="M 108.617188 261.207031 C 108.617188 262.417969 107.632812 263.402344 106.421875 263.402344 C 105.207031 263.402344 104.226562 262.417969 104.226562 261.207031 C 104.226562 259.992188 105.207031 259.007812 106.421875 259.007812 C 107.632812 259.007812 108.617188 259.992188 108.617188 261.207031 Z M 109.609375 261.207031 C 109.609375 259.828125 108.742188 258.667969 107.523438 258.21875 L 107.523438 245.582031 L 105.316406 245.582031 L 105.316406 258.21875 C 104.101562 258.667969 103.230469 259.828125 103.230469 261.207031 C 103.230469 262.96875 104.65625 264.398438 106.421875 264.398438 C 108.183594 264.398438 109.609375 262.96875 109.609375 261.207031 " fill-opacity="1" fill-rule="nonzero"/><path fill="#52afe6" d="M 149.332031 315.785156 C 147.398438 315.785156 145.839844 314.222656 145.839844 312.292969 C 145.839844 310.367188 147.398438 308.804688 149.332031 308.804688 C 151.257812 308.804688 152.824219 310.367188 152.824219 312.292969 C 152.824219 314.222656 151.257812 315.785156 149.332031 315.785156 Z M 149.332031 317.367188 C 151.511719 317.367188 153.355469 315.980469 154.070312 314.046875 L 174.15625 314.046875 L 174.15625 310.542969 L 154.070312 310.542969 C 153.355469 308.609375 151.511719 307.226562 149.332031 307.226562 C 146.527344 307.226562 144.257812 309.496094 144.257812 312.292969 C 144.257812 315.097656 146.527344 317.367188 149.332031 317.367188 " fill-opacity="1" fill-rule="nonzero"/><path fill="#52afe6" d="M 73.140625 261.003906 C 74.820312 261.003906 76.183594 262.367188 76.183594 264.046875 C 76.183594 265.730469 74.820312 267.09375 73.140625 267.09375 C 71.453125 267.09375 70.09375 265.730469 70.09375 264.046875 C 70.09375 262.367188 71.453125 261.003906 73.140625 261.003906 Z M 73.140625 268.894531 C 75.816406 268.894531 77.984375 266.722656 77.984375 264.046875 C 77.984375 262.277344 77.03125 260.738281 75.617188 259.890625 L 85.871094 247.230469 L 135.773438 247.230469 L 135.773438 244.738281 L 85.871094 244.738281 L 72.835938 259.222656 C 70.300781 259.375 68.292969 261.476562 68.292969 264.046875 C 68.292969 266.722656 70.460938 268.894531 73.140625 268.894531 " fill-opacity="1" fill-rule="nonzero"/><path fill="#52afe6" d="M 116.519531 286.0625 C 116.519531 283.371094 118.703125 281.1875 121.402344 281.1875 C 124.09375 281.1875 126.28125 283.371094 126.28125 286.0625 C 126.28125 288.757812 124.09375 290.945312 121.402344 290.945312 C 118.703125 290.945312 116.519531 288.757812 116.519531 286.0625 Z M 114.753906 286.0625 C 114.753906 289.734375 117.730469 292.707031 121.402344 292.707031 C 124.371094 292.707031 126.878906 290.761719 127.734375 288.074219 L 180.410156 288.074219 L 180.410156 284.054688 L 127.734375 284.054688 C 126.878906 281.367188 124.371094 279.421875 121.402344 279.421875 C 117.730469 279.421875 114.753906 282.394531 114.753906 286.0625 " fill-opacity="1" fill-rule="nonzero"/><path fill="#52afe6" d="M 101.035156 286.871094 C 99.292969 286.871094 97.882812 285.460938 97.882812 283.71875 C 97.882812 281.976562 99.292969 280.5625 101.035156 280.5625 C 102.777344 280.5625 104.1875 281.976562 104.1875 283.71875 C 104.1875 285.460938 102.777344 286.871094 101.035156 286.871094 Z M 58.699219 286.871094 C 56.957031 286.871094 55.542969 285.460938 55.542969 283.71875 C 55.542969 281.976562 56.957031 280.5625 58.699219 280.5625 C 60.4375 280.5625 61.851562 281.976562 61.851562 283.71875 C 61.851562 285.460938 60.4375 286.871094 58.699219 286.871094 Z M 101.035156 279.421875 C 99.117188 279.421875 97.492188 280.679688 96.9375 282.417969 L 62.789062 282.417969 C 62.242188 280.679688 60.617188 279.421875 58.699219 279.421875 C 56.324219 279.421875 54.402344 281.34375 54.402344 283.71875 C 54.402344 286.089844 56.324219 288.011719 58.699219 288.011719 C 60.617188 288.011719 62.242188 286.753906 62.792969 285.015625 L 96.9375 285.015625 C 97.492188 286.753906 99.117188 288.011719 101.035156 288.011719 C 103.40625 288.011719 105.328125 286.089844 105.328125 283.71875 C 105.328125 281.34375 103.40625 279.421875 101.035156 279.421875 " fill-opacity="1" fill-rule="nonzero"/><path fill="#52afe6" d="M 83.3125 149.15625 C 81.570312 149.15625 80.160156 147.742188 80.160156 146 C 80.160156 144.257812 81.570312 142.847656 83.3125 142.847656 C 85.054688 142.847656 86.472656 144.257812 86.472656 146 C 86.472656 147.742188 85.054688 149.15625 83.3125 149.15625 Z M 40.980469 149.15625 C 39.238281 149.15625 37.824219 147.742188 37.824219 146 C 37.824219 144.257812 39.238281 142.847656 40.980469 142.847656 C 42.71875 142.847656 44.132812 144.257812 44.132812 146 C 44.132812 147.742188 42.71875 149.15625 40.980469 149.15625 Z M 83.3125 141.707031 C 81.394531 141.707031 79.773438 142.96875 79.21875 144.703125 L 45.074219 144.703125 C 44.523438 142.96875 42.902344 141.707031 40.980469 141.707031 C 38.605469 141.707031 36.6875 143.628906 36.6875 146 C 36.6875 148.375 38.605469 150.296875 40.980469 150.296875 C 42.902344 150.296875 44.523438 149.039062 45.074219 147.300781 L 79.21875 147.300781 C 79.773438 149.039062 81.394531 150.296875 83.3125 150.296875 C 85.691406 150.296875 87.609375 148.375 87.609375 146 C 87.609375 143.628906 85.691406 141.707031 83.3125 141.707031 " fill-opacity="1" fill-rule="nonzero"/><path fill="#52afe6" d="M 68.445312 132.398438 C 66.703125 132.398438 65.289062 130.988281 65.289062 129.246094 C 65.289062 127.503906 66.703125 126.089844 68.445312 126.089844 C 70.183594 126.089844 71.597656 127.503906 71.597656 129.246094 C 71.597656 130.988281 70.183594 132.398438 68.445312 132.398438 Z M 26.105469 132.398438 C 24.367188 132.398438 22.953125 130.988281 22.953125 129.246094 C 22.953125 127.503906 24.367188 126.089844 26.105469 126.089844 C 27.851562 126.089844 29.261719 127.503906 29.261719 129.246094 C 29.261719 130.988281 27.851562 132.398438 26.105469 132.398438 Z M 68.445312 124.949219 C 66.523438 124.949219 64.898438 126.207031 64.347656 127.945312 L 30.199219 127.945312 C 29.648438 126.207031 28.027344 124.949219 26.105469 124.949219 C 23.734375 124.949219 21.808594 126.875 21.808594 129.246094 C 21.808594 131.617188 23.734375 133.542969 26.105469 133.542969 C 28.027344 133.542969 29.648438 132.28125 30.199219 130.546875 L 64.347656 130.546875 C 64.898438 132.28125 66.523438 133.542969 68.445312 133.542969 C 70.816406 133.542969 72.738281 131.617188 72.738281 129.246094 C 72.738281 126.875 70.816406 124.949219 68.445312 124.949219 " fill-opacity="1" fill-rule="nonzero"/><path fill="#52afe6" d="M 128.625 36.871094 C 127.394531 38.105469 125.394531 38.105469 124.164062 36.871094 C 122.933594 35.640625 122.933594 33.644531 124.164062 32.410156 C 125.394531 31.179688 127.394531 31.179688 128.625 32.410156 C 129.855469 33.644531 129.855469 35.640625 128.625 36.871094 Z M 98.6875 66.808594 C 97.457031 68.039062 95.457031 68.039062 94.226562 66.808594 C 92.996094 65.578125 92.996094 63.578125 94.226562 62.347656 C 95.457031 61.117188 97.457031 61.113281 98.6875 62.347656 C 99.921875 63.578125 99.921875 65.578125 98.6875 66.808594 Z M 123.359375 31.609375 C 122 32.964844 121.742188 35.003906 122.582031 36.617188 L 98.433594 60.765625 C 96.816406 59.925781 94.777344 60.183594 93.421875 61.542969 C 91.742188 63.21875 91.742188 65.941406 93.421875 67.617188 C 95.097656 69.292969 97.820312 69.292969 99.496094 67.617188 C 100.855469 66.261719 101.113281 64.222656 100.273438 62.601562 L 100.339844 62.535156 L 100.339844 62.539062 L 124.417969 38.457031 C 126.035156 39.296875 128.078125 39.039062 129.433594 37.679688 C 131.109375 36.003906 131.109375 33.285156 129.433594 31.609375 C 127.753906 29.925781 125.035156 29.925781 123.359375 31.609375 " fill-opacity="1" fill-rule="nonzero"/><g clip-path="url(#id2)"><path fill="#52afe6" d="M 98.980469 31.3125 C 97.75 32.546875 95.75 32.546875 94.519531 31.3125 C 93.285156 30.082031 93.285156 28.085938 94.519531 26.855469 C 95.75 25.621094 97.75 25.621094 98.980469 26.855469 C 100.214844 28.085938 100.214844 30.082031 98.980469 31.3125 Z M 69.046875 61.25 C 67.8125 62.484375 65.8125 62.480469 64.582031 61.25 C 63.351562 60.019531 63.351562 58.023438 64.582031 56.789062 C 65.8125 55.558594 67.8125 55.558594 69.046875 56.789062 C 70.277344 58.023438 70.277344 60.019531 69.046875 61.25 Z M 93.710938 26.046875 C 92.355469 27.40625 92.097656 29.441406 92.9375 31.0625 L 68.789062 55.207031 C 67.171875 54.367188 65.132812 54.628906 63.773438 55.980469 C 62.097656 57.660156 62.097656 60.378906 63.773438 62.058594 C 65.457031 63.734375 68.175781 63.734375 69.851562 62.058594 C 71.207031 60.699219 71.464844 58.660156 70.628906 57.042969 L 70.695312 56.976562 L 94.773438 32.894531 C 96.394531 33.738281 98.429688 33.476562 99.789062 32.121094 C 101.464844 30.441406 101.464844 27.722656 99.789062 26.046875 C 98.113281 24.371094 95.390625 24.371094 93.710938 26.046875 " fill-opacity="1" fill-rule="nonzero"/></g><path fill="#52afe6" d="M 47.203125 109.648438 C 45.460938 109.648438 44.050781 108.238281 44.050781 106.496094 C 44.050781 104.753906 45.460938 103.34375 47.203125 103.34375 C 48.941406 103.34375 50.359375 104.753906 50.359375 106.496094 C 50.359375 108.238281 48.941406 109.648438 47.203125 109.648438 Z M 4.867188 109.648438 C 3.125 109.648438 1.710938 108.238281 1.710938 106.496094 C 1.710938 104.753906 3.125 103.34375 4.867188 103.34375 C 6.605469 103.34375 8.023438 104.753906 8.023438 106.496094 C 8.023438 108.238281 6.605469 109.648438 4.867188 109.648438 Z M 47.203125 102.199219 C 45.285156 102.199219 43.660156 103.460938 43.109375 105.195312 L 8.960938 105.195312 C 8.410156 103.460938 6.789062 102.199219 4.867188 102.199219 C 2.492188 102.199219 0.574219 104.125 0.574219 106.496094 C 0.574219 108.867188 2.492188 110.792969 4.867188 110.792969 C 6.789062 110.792969 8.410156 109.535156 8.960938 107.796875 L 43.109375 107.796875 C 43.660156 109.535156 45.285156 110.792969 47.203125 110.792969 C 49.574219 110.792969 51.5 108.867188 51.5 106.496094 C 51.5 104.125 49.574219 102.199219 47.203125 102.199219 " fill-opacity="1" fill-rule="nonzero"/><path fill="#52afe6" d="M 116.050781 319.121094 C 115.117188 318.1875 115.117188 316.679688 116.050781 315.746094 C 116.980469 314.816406 118.488281 314.816406 119.421875 315.746094 C 120.355469 316.679688 120.355469 318.1875 119.421875 319.121094 C 118.488281 320.050781 116.980469 320.050781 116.050781 319.121094 Z M 93.421875 296.488281 C 92.488281 295.558594 92.488281 294.050781 93.421875 293.121094 C 94.351562 292.1875 95.863281 292.1875 96.792969 293.121094 C 97.722656 294.050781 97.722656 295.558594 96.792969 296.488281 C 95.863281 297.421875 94.351562 297.421875 93.421875 296.488281 Z M 120.03125 315.140625 C 119.003906 314.113281 117.464844 313.917969 116.242188 314.550781 L 97.988281 296.296875 C 98.625 295.078125 98.425781 293.535156 97.402344 292.507812 C 96.136719 291.238281 94.078125 291.238281 92.808594 292.507812 C 91.542969 293.777344 91.542969 295.832031 92.808594 297.101562 C 93.835938 298.128906 95.378906 298.324219 96.601562 297.6875 L 114.855469 315.941406 C 114.21875 317.164062 114.414062 318.703125 115.441406 319.730469 C 116.703125 320.996094 118.761719 320.996094 120.03125 319.730469 C 121.300781 318.460938 121.300781 316.40625 120.03125 315.140625 " fill-opacity="1" fill-rule="nonzero"/><path fill="#52afe6" d="M 73.320312 249.308594 C 71.597656 249.308594 70.203125 247.914062 70.203125 246.191406 C 70.203125 244.46875 71.601562 243.078125 73.320312 243.078125 C 75.042969 243.078125 76.433594 244.472656 76.4375 246.191406 C 76.4375 247.914062 75.042969 249.308594 73.320312 249.308594 Z M 31.492188 249.308594 C 29.773438 249.308594 28.375 247.910156 28.375 246.191406 C 28.375 244.46875 29.773438 243.078125 31.496094 243.078125 C 33.214844 243.078125 34.609375 244.46875 34.609375 246.191406 C 34.609375 247.914062 33.214844 249.308594 31.492188 249.308594 Z M 73.320312 241.953125 C 71.421875 241.953125 69.820312 243.195312 69.273438 244.910156 L 35.535156 244.910156 C 34.996094 243.195312 33.386719 241.953125 31.496094 241.949219 C 29.144531 241.953125 27.25 243.847656 27.25 246.191406 C 27.25 248.535156 29.148438 250.433594 31.492188 250.433594 C 33.386719 250.433594 34.996094 249.191406 35.535156 247.476562 L 69.273438 247.476562 C 69.816406 249.191406 71.421875 250.433594 73.320312 250.433594 C 75.664062 250.433594 77.566406 248.539062 77.566406 246.191406 C 77.566406 243.851562 75.664062 241.953125 73.320312 241.953125 " fill-opacity="1" fill-rule="nonzero"/><path fill="#52afe6" d="M 326.527344 123.683594 C 323.828125 123.683594 321.644531 121.5 321.644531 118.804688 C 321.644531 116.109375 323.828125 113.925781 326.527344 113.925781 C 329.222656 113.925781 331.40625 116.109375 331.40625 118.804688 C 331.40625 121.5 329.222656 123.683594 326.527344 123.683594 Z M 326.527344 112.160156 C 323.558594 112.160156 321.046875 114.109375 320.191406 116.792969 L 267.515625 116.792969 L 267.515625 120.8125 L 320.191406 120.8125 C 321.046875 123.5 323.558594 125.449219 326.527344 125.449219 C 330.195312 125.449219 333.171875 122.472656 333.171875 118.804688 C 333.171875 115.136719 330.195312 112.160156 326.527344 112.160156 " fill-opacity="1" fill-rule="nonzero"/><path fill="#52afe6" d="M 314.378906 95.101562 C 312.15625 95.101562 310.355469 93.296875 310.355469 91.078125 C 310.355469 88.855469 312.15625 87.054688 314.378906 87.054688 C 316.601562 87.054688 318.398438 88.855469 318.398438 91.078125 C 318.398438 93.296875 316.601562 95.101562 314.378906 95.101562 Z M 314.378906 85.597656 C 311.929688 85.597656 309.859375 87.207031 309.15625 89.421875 L 265.722656 89.421875 L 265.722656 92.734375 L 309.15625 92.734375 C 309.859375 94.953125 311.929688 96.554688 314.378906 96.554688 C 317.402344 96.554688 319.855469 94.101562 319.855469 91.078125 C 319.855469 88.050781 317.402344 85.597656 314.378906 85.597656 " fill-opacity="1" fill-rule="nonzero"/><path fill="#52afe6" d="M 233.765625 330.015625 C 233.765625 328.007812 235.398438 326.378906 237.40625 326.378906 C 239.410156 326.378906 241.039062 328.007812 241.039062 330.015625 C 241.039062 332.023438 239.410156 333.648438 237.40625 333.648438 C 235.398438 333.648438 233.765625 332.023438 233.765625 330.015625 Z M 242.351562 330.015625 C 242.351562 327.804688 240.90625 325.933594 238.902344 325.300781 L 238.902344 286.0625 L 235.90625 286.0625 L 235.90625 325.300781 C 233.90625 325.933594 232.457031 327.804688 232.457031 330.015625 C 232.457031 332.75 234.671875 334.964844 237.40625 334.964844 C 240.136719 334.964844 242.351562 332.75 242.351562 330.015625 " fill-opacity="1" fill-rule="nonzero"/><path fill="#52afe6" d="M 326.527344 180.960938 C 323.828125 180.960938 321.644531 178.777344 321.644531 176.085938 C 321.644531 173.390625 323.828125 171.203125 326.527344 171.203125 C 329.222656 171.203125 331.40625 173.390625 331.40625 176.085938 C 331.40625 178.777344 329.222656 180.960938 326.527344 180.960938 Z M 326.527344 169.441406 C 323.558594 169.441406 321.046875 171.386719 320.191406 174.074219 L 267.515625 174.074219 L 267.515625 178.09375 L 320.191406 178.09375 C 321.046875 180.78125 323.558594 182.726562 326.527344 182.726562 C 330.195312 182.726562 333.171875 179.753906 333.171875 176.085938 C 333.171875 172.414062 330.195312 169.441406 326.527344 169.441406 " fill-opacity="1" fill-rule="nonzero"/><path fill="#52afe6" d="M 301.875 155.953125 C 300.1875 155.953125 298.824219 154.589844 298.824219 152.898438 C 298.824219 151.210938 300.1875 149.84375 301.875 149.84375 C 303.5625 149.84375 304.933594 151.210938 304.933594 152.898438 C 304.933594 154.589844 303.5625 155.953125 301.875 155.953125 Z M 301.875 148.457031 C 299.421875 148.457031 297.4375 150.445312 297.4375 152.898438 C 297.4375 154.8125 298.648438 156.421875 300.34375 157.050781 L 300.34375 174.632812 L 303.410156 174.632812 L 303.410156 157.050781 C 305.101562 156.421875 306.3125 154.8125 306.3125 152.898438 C 306.3125 150.445312 304.324219 148.457031 301.875 148.457031 " fill-opacity="1" fill-rule="nonzero"/><path fill="#52afe6" d="M 314.308594 79.054688 C 311.617188 79.054688 309.429688 76.867188 309.429688 74.175781 C 309.429688 71.476562 311.617188 69.292969 314.308594 69.292969 C 317.003906 69.292969 319.1875 71.476562 319.1875 74.175781 C 319.1875 76.867188 317.003906 79.054688 314.308594 79.054688 Z M 314.308594 67.527344 C 311.339844 67.527344 308.828125 69.476562 307.976562 72.164062 L 255.300781 72.164062 L 255.300781 76.179688 L 307.976562 76.179688 C 308.828125 78.871094 311.339844 80.820312 314.308594 80.820312 C 317.980469 80.820312 320.953125 77.84375 320.953125 74.175781 C 320.953125 70.5 317.980469 67.527344 314.308594 67.527344 " fill-opacity="1" fill-rule="nonzero"/><path fill="#52afe6" d="M 289.660156 54.046875 C 287.972656 54.046875 286.605469 52.675781 286.605469 50.988281 C 286.605469 49.300781 287.972656 47.9375 289.660156 47.9375 C 291.347656 47.9375 292.714844 49.300781 292.714844 50.988281 C 292.714844 52.675781 291.347656 54.046875 289.660156 54.046875 Z M 289.660156 46.550781 C 287.207031 46.550781 285.21875 48.535156 285.21875 50.988281 C 285.21875 52.902344 286.4375 54.515625 288.128906 55.136719 L 288.128906 72.71875 L 291.191406 72.71875 L 291.191406 55.136719 C 292.886719 54.515625 294.101562 52.902344 294.101562 50.988281 C 294.101562 48.535156 292.113281 46.550781 289.660156 46.550781 " fill-opacity="1" fill-rule="nonzero"/><path fill="#52afe6" d="M 301.875 203.617188 C 300.664062 203.617188 299.679688 202.636719 299.679688 201.421875 C 299.679688 200.210938 300.664062 199.226562 301.875 199.226562 C 303.085938 199.226562 304.070312 200.210938 304.070312 201.421875 C 304.070312 202.636719 303.085938 203.617188 301.875 203.617188 Z M 301.875 198.230469 C 300.113281 198.230469 298.683594 199.660156 298.683594 201.421875 C 298.683594 202.796875 299.558594 203.957031 300.773438 204.40625 L 300.773438 217.046875 L 302.976562 217.046875 L 302.976562 204.40625 C 304.195312 203.957031 305.066406 202.796875 305.066406 201.421875 C 305.066406 199.660156 303.636719 198.230469 301.875 198.230469 " fill-opacity="1" fill-rule="nonzero"/><path fill="#52afe6" d="M 289.601562 229.859375 C 290.8125 229.859375 291.792969 230.84375 291.792969 232.058594 C 291.792969 233.273438 290.8125 234.257812 289.601562 234.257812 C 288.386719 234.257812 287.402344 233.273438 287.402344 232.058594 C 287.402344 230.84375 288.386719 229.859375 289.601562 229.859375 Z M 289.601562 235.25 C 291.363281 235.25 292.789062 233.820312 292.789062 232.058594 C 292.789062 230.683594 291.914062 229.527344 290.699219 229.074219 L 290.699219 216.4375 L 288.496094 216.4375 L 288.496094 229.074219 C 287.277344 229.527344 286.40625 230.683594 286.40625 232.058594 C 286.40625 233.820312 287.835938 235.25 289.601562 235.25 " fill-opacity="1" fill-rule="nonzero"/><path fill="#52afe6" d="M 304.441406 142.125 C 302.757812 142.125 301.386719 140.757812 301.386719 139.070312 C 301.386719 137.382812 302.757812 136.019531 304.441406 136.019531 C 306.128906 136.019531 307.492188 137.382812 307.492188 139.070312 C 307.492188 140.757812 306.128906 142.125 304.441406 142.125 Z M 304.441406 134.914062 C 302.582031 134.914062 301.011719 136.132812 300.476562 137.8125 L 267.515625 137.8125 L 267.515625 140.328125 L 300.476562 140.328125 C 301.011719 142.007812 302.582031 143.226562 304.441406 143.226562 C 306.742188 143.226562 308.597656 141.367188 308.597656 139.070312 C 308.597656 136.777344 306.742188 134.914062 304.441406 134.914062 " fill-opacity="1" fill-rule="nonzero"/><path fill="#52afe6" d="M 330.769531 90.234375 C 329.089844 90.234375 327.726562 88.867188 327.726562 87.1875 C 327.726562 85.503906 329.089844 84.140625 330.769531 84.140625 C 332.457031 84.140625 333.816406 85.503906 333.816406 87.1875 C 333.816406 88.867188 332.457031 90.234375 330.769531 90.234375 Z M 330.769531 82.34375 C 328.09375 82.34375 325.925781 84.511719 325.925781 87.1875 C 325.925781 88.957031 326.878906 90.5 328.292969 91.34375 L 318.035156 104.003906 L 268.136719 104.003906 L 268.136719 106.496094 L 318.035156 106.496094 L 331.074219 92.015625 C 333.609375 91.859375 335.617188 89.761719 335.617188 87.1875 C 335.617188 84.511719 333.449219 82.34375 330.769531 82.34375 " fill-opacity="1" fill-rule="nonzero"/><path fill="#52afe6" d="M 281.210938 259.191406 C 279.527344 259.191406 278.164062 257.824219 278.164062 256.144531 C 278.164062 254.460938 279.527344 253.097656 281.210938 253.097656 C 282.890625 253.097656 284.253906 254.460938 284.253906 256.144531 C 284.253906 257.824219 282.890625 259.191406 281.210938 259.191406 Z M 281.210938 251.300781 C 278.535156 251.300781 276.363281 253.46875 276.363281 256.144531 C 276.363281 257.914062 277.3125 259.457031 278.730469 260.300781 L 268.472656 272.960938 L 218.574219 272.960938 L 218.574219 275.453125 L 268.472656 275.453125 L 281.511719 260.976562 C 284.046875 260.816406 286.054688 258.71875 286.054688 256.144531 C 286.054688 253.46875 283.886719 251.300781 281.210938 251.300781 " fill-opacity="1" fill-rule="nonzero"/><g clip-path="url(#id3)"><path fill="#52afe6" d="M 216.277344 345.761719 C 216.277344 344.078125 217.640625 342.714844 219.324219 342.714844 C 221.003906 342.714844 222.367188 344.078125 222.367188 345.761719 C 222.367188 347.441406 221.003906 348.808594 219.324219 348.808594 C 217.640625 348.808594 216.277344 347.441406 216.277344 345.761719 Z M 224.167969 345.761719 C 224.167969 343.085938 222 340.917969 219.324219 340.917969 C 217.550781 340.917969 216.007812 341.871094 215.164062 343.285156 L 202.503906 333.027344 L 202.503906 283.125 L 200.011719 283.125 L 200.011719 333.027344 L 214.492188 346.066406 C 214.652344 348.601562 216.75 350.605469 219.324219 350.605469 C 222 350.605469 224.167969 348.4375 224.167969 345.761719 " fill-opacity="1" fill-rule="nonzero"/></g><path fill="#52afe6" d="M 333.816406 207.632812 C 333.816406 209.316406 332.457031 210.679688 330.769531 210.679688 C 329.089844 210.679688 327.726562 209.316406 327.726562 207.632812 C 327.726562 205.953125 329.089844 204.589844 330.769531 204.589844 C 332.457031 204.589844 333.816406 205.953125 333.816406 207.632812 Z M 335.617188 207.632812 C 335.617188 205.0625 333.609375 202.960938 331.074219 202.804688 L 318.035156 188.324219 L 268.136719 188.324219 L 268.136719 190.816406 L 318.035156 190.816406 L 328.292969 203.476562 C 326.878906 204.320312 325.925781 205.863281 325.925781 207.632812 C 325.925781 210.308594 328.09375 212.480469 330.769531 212.480469 C 333.449219 212.480469 335.617188 210.308594 335.617188 207.632812 " fill-opacity="1" fill-rule="nonzero"/><path fill="#52afe6" d="M 325.925781 234.902344 C 325.925781 236.585938 324.566406 237.949219 322.878906 237.949219 C 321.199219 237.949219 319.835938 236.585938 319.835938 234.902344 C 319.835938 233.222656 321.199219 231.855469 322.878906 231.855469 C 324.566406 231.855469 325.925781 233.222656 325.925781 234.902344 Z M 327.726562 234.902344 C 327.726562 232.328125 325.71875 230.230469 323.183594 230.074219 L 310.148438 215.59375 L 260.242188 215.59375 L 260.242188 218.085938 L 310.148438 218.085938 L 320.402344 230.746094 C 318.988281 231.589844 318.035156 233.132812 318.035156 234.902344 C 318.035156 237.578125 320.203125 239.746094 322.878906 239.746094 C 325.554688 239.746094 327.726562 237.578125 327.726562 234.902344 " fill-opacity="1" fill-rule="nonzero"/><path fill="#52afe6" d="M 280.855469 232.769531 C 279.640625 232.769531 278.660156 231.785156 278.660156 230.570312 C 278.660156 229.355469 279.640625 228.371094 280.855469 228.371094 C 282.070312 228.371094 283.050781 229.355469 283.050781 230.570312 C 283.050781 231.785156 282.070312 232.769531 280.855469 232.769531 Z M 280.855469 227.375 C 279.09375 227.375 277.664062 228.808594 277.664062 230.570312 C 277.664062 231.945312 278.539062 233.101562 279.757812 233.554688 L 279.757812 246.191406 L 281.960938 246.191406 L 281.960938 233.554688 C 283.175781 233.101562 284.046875 231.945312 284.046875 230.570312 C 284.046875 228.808594 282.617188 227.375 280.855469 227.375 " fill-opacity="1" fill-rule="nonzero"/><path fill="#52afe6" d="M 268.582031 259.007812 C 269.792969 259.007812 270.777344 259.992188 270.777344 261.207031 C 270.777344 262.417969 269.792969 263.402344 268.582031 263.402344 C 267.367188 263.402344 266.386719 262.417969 266.386719 261.207031 C 266.386719 259.992188 267.367188 259.007812 268.582031 259.007812 Z M 268.582031 264.398438 C 270.34375 264.398438 271.769531 262.96875 271.769531 261.207031 C 271.769531 259.828125 270.894531 258.667969 269.679688 258.21875 L 269.679688 245.582031 L 267.476562 245.582031 L 267.476562 258.21875 C 266.261719 258.667969 265.390625 259.828125 265.390625 261.207031 C 265.390625 262.96875 266.816406 264.398438 268.582031 264.398438 " fill-opacity="1" fill-rule="nonzero"/><path fill="#52afe6" d="M 222.179688 312.292969 C 222.179688 310.367188 223.742188 308.804688 225.667969 308.804688 C 227.597656 308.804688 229.160156 310.367188 229.160156 312.292969 C 229.160156 314.222656 227.597656 315.785156 225.667969 315.785156 C 223.742188 315.785156 222.179688 314.222656 222.179688 312.292969 Z M 230.742188 312.292969 C 230.742188 309.496094 228.472656 307.226562 225.667969 307.226562 C 223.488281 307.226562 221.640625 308.609375 220.925781 310.542969 L 200.839844 310.542969 L 200.839844 314.046875 L 220.925781 314.046875 C 221.640625 315.980469 223.488281 317.367188 225.667969 317.367188 C 228.472656 317.367188 230.742188 315.097656 230.742188 312.292969 " fill-opacity="1" fill-rule="nonzero"/><path fill="#52afe6" d="M 304.90625 264.046875 C 304.90625 265.730469 303.542969 267.09375 301.863281 267.09375 C 300.179688 267.09375 298.820312 265.730469 298.820312 264.046875 C 298.820312 262.367188 300.179688 261.003906 301.863281 261.003906 C 303.542969 261.003906 304.90625 262.367188 304.90625 264.046875 Z M 306.707031 264.046875 C 306.707031 261.476562 304.699219 259.375 302.164062 259.222656 L 289.128906 244.738281 L 239.222656 244.738281 L 239.222656 247.230469 L 289.128906 247.230469 L 299.382812 259.890625 C 297.96875 260.738281 297.019531 262.277344 297.019531 264.046875 C 297.019531 266.722656 299.1875 268.894531 301.863281 268.894531 C 304.535156 268.894531 306.707031 266.722656 306.707031 264.046875 " fill-opacity="1" fill-rule="nonzero"/><path fill="#52afe6" d="M 253.597656 290.945312 C 250.90625 290.945312 248.71875 288.757812 248.71875 286.0625 C 248.71875 283.371094 250.90625 281.1875 253.597656 281.1875 C 256.292969 281.1875 258.480469 283.371094 258.480469 286.0625 C 258.480469 288.757812 256.292969 290.945312 253.597656 290.945312 Z M 253.597656 279.421875 C 250.628906 279.421875 248.117188 281.367188 247.265625 284.054688 L 194.59375 284.054688 L 194.59375 288.074219 L 247.265625 288.074219 C 248.117188 290.761719 250.628906 292.707031 253.597656 292.707031 C 257.269531 292.707031 260.242188 289.734375 260.242188 286.0625 C 260.242188 282.394531 257.269531 279.421875 253.597656 279.421875 " fill-opacity="1" fill-rule="nonzero"/><path fill="#52afe6" d="M 270.8125 283.71875 C 270.8125 281.976562 272.222656 280.5625 273.964844 280.5625 C 275.707031 280.5625 277.121094 281.976562 277.121094 283.71875 C 277.121094 285.460938 275.707031 286.871094 273.964844 286.871094 C 272.222656 286.871094 270.8125 285.460938 270.8125 283.71875 Z M 313.148438 283.71875 C 313.148438 281.976562 314.558594 280.5625 316.304688 280.5625 C 318.042969 280.5625 319.457031 281.976562 319.457031 283.71875 C 319.457031 285.460938 318.042969 286.871094 316.304688 286.871094 C 314.558594 286.871094 313.148438 285.460938 313.148438 283.71875 Z M 269.667969 283.71875 C 269.667969 286.089844 271.59375 288.011719 273.964844 288.011719 C 275.882812 288.011719 277.511719 286.753906 278.058594 285.015625 L 312.207031 285.015625 C 312.757812 286.753906 314.382812 288.011719 316.304688 288.011719 C 318.671875 288.011719 320.601562 286.089844 320.601562 283.71875 C 320.601562 281.34375 318.671875 279.421875 316.304688 279.421875 C 314.382812 279.421875 312.757812 280.679688 312.207031 282.417969 L 278.058594 282.417969 C 277.511719 280.679688 275.886719 279.421875 273.964844 279.421875 C 271.59375 279.421875 269.667969 281.34375 269.667969 283.71875 " fill-opacity="1" fill-rule="nonzero"/><path fill="#52afe6" d="M 288.53125 146 C 288.53125 144.257812 289.941406 142.847656 291.683594 142.847656 C 293.425781 142.847656 294.839844 144.257812 294.839844 146 C 294.839844 147.742188 293.425781 149.15625 291.683594 149.15625 C 289.941406 149.15625 288.53125 147.742188 288.53125 146 Z M 330.867188 146 C 330.867188 144.257812 332.277344 142.847656 334.019531 142.847656 C 335.761719 142.847656 337.175781 144.257812 337.175781 146 C 337.175781 147.742188 335.761719 149.15625 334.019531 149.15625 C 332.277344 149.15625 330.867188 147.742188 330.867188 146 Z M 287.390625 146 C 287.390625 148.375 289.3125 150.296875 291.683594 150.296875 C 293.605469 150.296875 295.226562 149.039062 295.78125 147.300781 L 329.925781 147.300781 C 330.480469 149.039062 332.101562 150.296875 334.019531 150.296875 C 336.394531 150.296875 338.316406 148.375 338.316406 146 C 338.316406 143.628906 336.394531 141.707031 334.019531 141.707031 C 332.101562 141.707031 330.480469 142.96875 329.925781 144.703125 L 295.78125 144.703125 C 295.226562 142.96875 293.605469 141.707031 291.683594 141.707031 C 289.3125 141.707031 287.390625 143.628906 287.390625 146 " fill-opacity="1" fill-rule="nonzero"/><path fill="#52afe6" d="M 303.402344 129.246094 C 303.402344 127.503906 304.816406 126.089844 306.554688 126.089844 C 308.300781 126.089844 309.710938 127.503906 309.710938 129.246094 C 309.710938 130.988281 308.300781 132.398438 306.554688 132.398438 C 304.816406 132.398438 303.402344 130.988281 303.402344 129.246094 Z M 345.742188 129.246094 C 345.742188 127.503906 347.152344 126.089844 348.890625 126.089844 C 350.636719 126.089844 352.046875 127.503906 352.046875 129.246094 C 352.046875 130.988281 350.636719 132.398438 348.890625 132.398438 C 347.152344 132.398438 345.742188 130.988281 345.742188 129.246094 Z M 302.265625 129.246094 C 302.265625 131.617188 304.1875 133.542969 306.554688 133.542969 C 308.476562 133.542969 310.101562 132.28125 310.652344 130.546875 L 344.800781 130.546875 C 345.351562 132.28125 346.976562 133.542969 348.890625 133.542969 C 351.265625 133.542969 353.1875 131.617188 353.1875 129.246094 C 353.1875 126.875 351.265625 124.949219 348.890625 124.949219 C 346.976562 124.949219 345.351562 126.207031 344.800781 127.945312 L 310.652344 127.945312 C 310.101562 126.207031 308.476562 124.949219 306.554688 124.949219 C 304.1875 124.949219 302.265625 126.875 302.265625 129.246094 " fill-opacity="1" fill-rule="nonzero"/><path fill="#52afe6" d="M 246.371094 32.410156 C 247.605469 31.179688 249.601562 31.179688 250.835938 32.410156 C 252.066406 33.644531 252.066406 35.640625 250.835938 36.871094 C 249.601562 38.105469 247.605469 38.105469 246.371094 36.871094 C 245.140625 35.640625 245.140625 33.644531 246.371094 32.410156 Z M 276.3125 62.347656 C 277.542969 61.113281 279.539062 61.117188 280.769531 62.347656 C 282.003906 63.578125 282.003906 65.578125 280.769531 66.808594 C 279.539062 68.039062 277.542969 68.039062 276.3125 66.808594 C 275.078125 65.578125 275.078125 63.578125 276.3125 62.347656 Z M 245.570312 31.609375 C 243.890625 33.285156 243.894531 36.003906 245.570312 37.679688 C 246.921875 39.039062 248.960938 39.296875 250.582031 38.457031 L 274.660156 62.539062 L 274.660156 62.535156 L 274.726562 62.601562 C 273.890625 64.222656 274.144531 66.261719 275.503906 67.617188 C 277.179688 69.292969 279.902344 69.292969 281.578125 67.617188 C 283.253906 65.941406 283.253906 63.21875 281.578125 61.542969 C 280.222656 60.183594 278.183594 59.925781 276.5625 60.765625 L 252.417969 36.617188 C 253.257812 35.003906 253 32.964844 251.644531 31.609375 C 249.964844 29.925781 247.246094 29.925781 245.570312 31.609375 " fill-opacity="1" fill-rule="nonzero"/><g clip-path="url(#id4)"><path fill="#52afe6" d="M 276.019531 26.855469 C 277.253906 25.621094 279.25 25.621094 280.480469 26.855469 C 281.714844 28.085938 281.714844 30.082031 280.480469 31.3125 C 279.25 32.546875 277.253906 32.546875 276.019531 31.3125 C 274.789062 30.082031 274.789062 28.085938 276.019531 26.855469 Z M 305.957031 56.789062 C 307.1875 55.558594 309.1875 55.558594 310.417969 56.789062 C 311.648438 58.023438 311.648438 60.019531 310.417969 61.25 C 309.183594 62.480469 307.1875 62.484375 305.957031 61.25 C 304.726562 60.019531 304.726562 58.023438 305.957031 56.789062 Z M 275.210938 26.046875 C 273.535156 27.722656 273.535156 30.441406 275.210938 32.121094 C 276.566406 33.476562 278.605469 33.738281 280.226562 32.894531 L 304.371094 57.042969 C 303.53125 58.660156 303.789062 60.699219 305.148438 62.058594 C 306.824219 63.734375 309.542969 63.734375 311.222656 62.058594 C 312.902344 60.378906 312.902344 57.660156 311.222656 55.980469 C 309.867188 54.628906 307.824219 54.367188 306.210938 55.207031 L 282.0625 31.0625 C 282.902344 29.441406 282.644531 27.40625 281.285156 26.046875 C 279.609375 24.371094 276.890625 24.371094 275.210938 26.046875 " fill-opacity="1" fill-rule="nonzero"/></g><path fill="#52afe6" d="M 324.640625 106.496094 C 324.640625 104.753906 326.054688 103.34375 327.792969 103.34375 C 329.539062 103.34375 330.949219 104.753906 330.953125 106.496094 C 330.953125 108.238281 329.539062 109.648438 327.792969 109.648438 C 326.054688 109.648438 324.640625 108.238281 324.640625 106.496094 Z M 366.976562 106.496094 C 366.976562 104.753906 368.390625 103.34375 370.132812 103.34375 C 371.875 103.34375 373.289062 104.753906 373.289062 106.496094 C 373.289062 108.238281 371.875 109.648438 370.132812 109.648438 C 368.390625 109.648438 366.976562 108.238281 366.976562 106.496094 Z M 323.5 106.496094 C 323.5 108.867188 325.425781 110.792969 327.792969 110.792969 C 329.71875 110.792969 331.339844 109.535156 331.890625 107.796875 L 366.039062 107.796875 C 366.589844 109.535156 368.210938 110.792969 370.132812 110.792969 C 372.503906 110.792969 374.429688 108.867188 374.429688 106.496094 C 374.429688 104.125 372.503906 102.199219 370.132812 102.199219 C 368.214844 102.199219 366.589844 103.460938 366.039062 105.195312 L 331.890625 105.195312 C 331.339844 103.460938 329.71875 102.199219 327.792969 102.199219 C 325.421875 102.199219 323.5 104.125 323.5 106.496094 " fill-opacity="1" fill-rule="nonzero"/><path fill="#52afe6" d="M 255.578125 319.121094 C 254.648438 318.1875 254.648438 316.679688 255.578125 315.746094 C 256.511719 314.816406 258.019531 314.816406 258.953125 315.746094 C 259.882812 316.679688 259.882812 318.1875 258.953125 319.121094 C 258.019531 320.050781 256.511719 320.050781 255.578125 319.121094 Z M 278.207031 296.488281 C 277.277344 295.558594 277.277344 294.050781 278.207031 293.121094 C 279.140625 292.1875 280.648438 292.1875 281.578125 293.121094 C 282.507812 294.050781 282.507812 295.558594 281.578125 296.488281 C 280.648438 297.421875 279.140625 297.421875 278.207031 296.488281 Z M 254.96875 319.730469 C 256.238281 320.996094 258.292969 320.996094 259.5625 319.730469 C 260.585938 318.703125 260.78125 317.164062 260.148438 315.941406 L 278.398438 297.6875 C 279.621094 298.324219 281.164062 298.128906 282.191406 297.101562 C 283.457031 295.832031 283.457031 293.777344 282.191406 292.507812 C 280.921875 291.238281 278.863281 291.238281 277.597656 292.507812 C 276.570312 293.535156 276.375 295.078125 277.011719 296.296875 L 258.757812 314.550781 C 257.535156 313.917969 255.996094 314.113281 254.96875 315.140625 C 253.703125 316.40625 253.703125 318.460938 254.96875 319.730469 " fill-opacity="1" fill-rule="nonzero"/><path fill="#52afe6" d="M 298.5625 246.191406 C 298.566406 244.472656 299.957031 243.078125 301.679688 243.078125 C 303.398438 243.078125 304.792969 244.46875 304.792969 246.191406 C 304.792969 247.914062 303.402344 249.308594 301.679688 249.308594 C 299.957031 249.308594 298.5625 247.914062 298.5625 246.191406 Z M 340.390625 246.191406 C 340.390625 244.46875 341.789062 243.078125 343.507812 243.078125 C 345.226562 243.078125 346.621094 244.46875 346.621094 246.191406 C 346.621094 247.910156 345.226562 249.308594 343.507812 249.308594 C 341.789062 249.308594 340.390625 247.914062 340.390625 246.191406 Z M 297.4375 246.191406 C 297.4375 248.539062 299.332031 250.433594 301.679688 250.433594 C 303.574219 250.433594 305.183594 249.191406 305.726562 247.476562 L 339.371094 247.476562 L 339.367188 247.476562 L 339.460938 247.476562 C 340.007812 249.191406 341.613281 250.433594 343.507812 250.433594 C 345.847656 250.433594 347.753906 248.535156 347.753906 246.191406 C 347.753906 243.847656 345.847656 241.953125 343.507812 241.949219 C 341.613281 241.953125 340.003906 243.195312 339.460938 244.910156 L 305.726562 244.910156 C 305.183594 243.195312 303.574219 241.953125 301.679688 241.953125 C 299.332031 241.953125 297.4375 243.851562 297.4375 246.191406 " fill-opacity="1" fill-rule="nonzero"/><path fill="#409bce" d="M 264.945312 190.398438 C 260.160156 248.085938 187.5 284.96875 187.5 284.96875 C 187.5 284.96875 114.84375 248.085938 110.054688 190.398438 C 105.269531 132.707031 114.84375 81.875 114.84375 81.875 L 187.5 48.34375 L 260.160156 81.875 C 260.160156 81.875 269.734375 132.707031 264.945312 190.398438 Z M 268.089844 72.628906 L 187.5 35.433594 L 106.914062 72.628906 C 106.914062 72.628906 96.292969 129.003906 101.605469 192.984375 C 106.914062 256.96875 187.5 297.882812 187.5 297.882812 C 187.5 297.882812 268.089844 256.96875 273.398438 192.984375 C 278.710938 129.003906 268.089844 72.628906 268.089844 72.628906 " fill-opacity="1" fill-rule="nonzero"/><path fill="#52afe6" d="M 220.101562 155.191406 C 220.101562 137.183594 205.507812 122.59375 187.5 122.59375 C 169.496094 122.59375 154.898438 137.183594 154.898438 155.191406 C 154.898438 168.347656 162.710938 179.648438 173.925781 184.800781 L 173.925781 210.722656 L 201.078125 210.722656 L 201.078125 184.800781 C 212.292969 179.648438 220.101562 168.347656 220.101562 155.191406 " fill-opacity="1" fill-rule="nonzero"/><path fill="#409bce" d="M 214.042969 160.917969 C 214.042969 147.160156 202.890625 136.007812 189.132812 136.007812 C 175.367188 136.007812 164.214844 147.160156 164.214844 160.917969 C 164.214844 170.972656 170.179688 179.613281 178.757812 183.554688 L 178.757812 203.359375 L 199.503906 203.359375 L 199.503906 183.554688 C 208.078125 179.613281 214.042969 170.972656 214.042969 160.917969 " fill-opacity="1" fill-rule="nonzero"/></svg>